<mxfile host="app.diagrams.net" agent="Mozilla/5.0 (Windows NT 10.0; Win64; x64) AppleWebKit/537.36 (KHTML, like Gecko) Chrome/137.0.0.0 Safari/537.36" version="27.1.4" pages="11">
  <diagram name="Altas de materiales " id="8eCEHtoxQRxR08vLJhsJ">
    <mxGraphModel dx="1429" dy="2073" grid="1" gridSize="10" guides="1" tooltips="1" connect="1" arrows="1" fold="1" page="1" pageScale="1" pageWidth="827" pageHeight="1169" math="0" shadow="0">
      <root>
        <mxCell id="i4HORExXwTHbloD7KYRc-0" />
        <mxCell id="i4HORExXwTHbloD7KYRc-1" parent="i4HORExXwTHbloD7KYRc-0" />
        <mxCell id="i4HORExXwTHbloD7KYRc-2" style="edgeStyle=orthogonalEdgeStyle;rounded=0;orthogonalLoop=1;jettySize=auto;html=1;entryX=0.5;entryY=0;entryDx=0;entryDy=0;fontSize=10;" parent="i4HORExXwTHbloD7KYRc-1" source="i4HORExXwTHbloD7KYRc-11" target="i4HORExXwTHbloD7KYRc-25" edge="1">
          <mxGeometry relative="1" as="geometry" />
        </mxCell>
        <mxCell id="i4HORExXwTHbloD7KYRc-3" style="edgeStyle=orthogonalEdgeStyle;rounded=0;orthogonalLoop=1;jettySize=auto;html=1;entryX=0.5;entryY=0;entryDx=0;entryDy=0;fontSize=10;" parent="i4HORExXwTHbloD7KYRc-1" source="i4HORExXwTHbloD7KYRc-11" target="i4HORExXwTHbloD7KYRc-13" edge="1">
          <mxGeometry relative="1" as="geometry">
            <Array as="points">
              <mxPoint x="815" y="-830" />
              <mxPoint x="95" y="-830" />
            </Array>
          </mxGeometry>
        </mxCell>
        <mxCell id="i4HORExXwTHbloD7KYRc-4" style="edgeStyle=orthogonalEdgeStyle;rounded=0;orthogonalLoop=1;jettySize=auto;html=1;entryX=0.5;entryY=0;entryDx=0;entryDy=0;fontSize=10;" parent="i4HORExXwTHbloD7KYRc-1" source="i4HORExXwTHbloD7KYRc-11" target="i4HORExXwTHbloD7KYRc-16" edge="1">
          <mxGeometry relative="1" as="geometry">
            <Array as="points">
              <mxPoint x="815" y="-830" />
              <mxPoint x="275" y="-830" />
            </Array>
          </mxGeometry>
        </mxCell>
        <mxCell id="i4HORExXwTHbloD7KYRc-5" style="edgeStyle=orthogonalEdgeStyle;rounded=0;orthogonalLoop=1;jettySize=auto;html=1;fontSize=10;" parent="i4HORExXwTHbloD7KYRc-1" source="i4HORExXwTHbloD7KYRc-11" target="i4HORExXwTHbloD7KYRc-19" edge="1">
          <mxGeometry relative="1" as="geometry">
            <Array as="points">
              <mxPoint x="815" y="-830" />
              <mxPoint x="455" y="-830" />
            </Array>
          </mxGeometry>
        </mxCell>
        <mxCell id="i4HORExXwTHbloD7KYRc-6" style="edgeStyle=orthogonalEdgeStyle;rounded=0;orthogonalLoop=1;jettySize=auto;html=1;fontSize=10;" parent="i4HORExXwTHbloD7KYRc-1" source="i4HORExXwTHbloD7KYRc-11" target="i4HORExXwTHbloD7KYRc-22" edge="1">
          <mxGeometry relative="1" as="geometry">
            <Array as="points">
              <mxPoint x="815" y="-830" />
              <mxPoint x="635" y="-830" />
            </Array>
          </mxGeometry>
        </mxCell>
        <mxCell id="i4HORExXwTHbloD7KYRc-7" style="edgeStyle=orthogonalEdgeStyle;rounded=0;orthogonalLoop=1;jettySize=auto;html=1;entryX=0.5;entryY=0;entryDx=0;entryDy=0;fontSize=10;" parent="i4HORExXwTHbloD7KYRc-1" source="i4HORExXwTHbloD7KYRc-11" target="i4HORExXwTHbloD7KYRc-28" edge="1">
          <mxGeometry relative="1" as="geometry">
            <Array as="points">
              <mxPoint x="815" y="-830" />
              <mxPoint x="995" y="-830" />
            </Array>
          </mxGeometry>
        </mxCell>
        <mxCell id="i4HORExXwTHbloD7KYRc-8" style="edgeStyle=orthogonalEdgeStyle;rounded=0;orthogonalLoop=1;jettySize=auto;html=1;entryX=0.5;entryY=0;entryDx=0;entryDy=0;fontSize=10;" parent="i4HORExXwTHbloD7KYRc-1" source="i4HORExXwTHbloD7KYRc-11" target="i4HORExXwTHbloD7KYRc-31" edge="1">
          <mxGeometry relative="1" as="geometry">
            <Array as="points">
              <mxPoint x="815" y="-830" />
              <mxPoint x="1175" y="-830" />
            </Array>
          </mxGeometry>
        </mxCell>
        <mxCell id="i4HORExXwTHbloD7KYRc-9" style="edgeStyle=orthogonalEdgeStyle;rounded=0;orthogonalLoop=1;jettySize=auto;html=1;entryX=0.5;entryY=0;entryDx=0;entryDy=0;fontSize=10;" parent="i4HORExXwTHbloD7KYRc-1" source="i4HORExXwTHbloD7KYRc-11" target="i4HORExXwTHbloD7KYRc-34" edge="1">
          <mxGeometry relative="1" as="geometry">
            <Array as="points">
              <mxPoint x="815" y="-830" />
              <mxPoint x="1355" y="-830" />
            </Array>
          </mxGeometry>
        </mxCell>
        <mxCell id="i4HORExXwTHbloD7KYRc-11" value="&lt;p class=&quot;MsoListParagraphCxSpFirst&quot; style=&quot;text-align: justify ; text-indent: -18.0pt&quot;&gt;1.&lt;span style=&quot;font-stretch: normal ; font-size: 7pt ; line-height: normal ; font-family: &amp;#34;times new roman&amp;#34;&quot;&gt;&amp;nbsp;&amp;nbsp;&amp;nbsp;&amp;nbsp;&amp;nbsp;&amp;nbsp; &lt;/span&gt;¿Dónde encuentro el estándar de descripciones para materiales?&lt;/p&gt;&lt;p class=&quot;MsoListParagraphCxSpMiddle&quot; style=&quot;text-align: justify ; text-indent: -18.0pt&quot;&gt;2.&lt;span style=&quot;font-stretch: normal ; font-size: 7pt ; line-height: normal ; font-family: &amp;#34;times new roman&amp;#34;&quot;&gt;&amp;nbsp;&amp;nbsp;&amp;nbsp;&amp;nbsp;&amp;nbsp;&amp;nbsp; &lt;/span&gt;Consultar si un subensamble ya se encuentra en infotool-&amp;gt;Ingresa el nombre del&lt;br&gt;subensamble&lt;/p&gt;&lt;p class=&quot;MsoListParagraphCxSpMiddle&quot; style=&quot;text-align: justify ; text-indent: -18.0pt&quot;&gt;3.&lt;span style=&quot;font-stretch: normal ; font-size: 7pt ; line-height: normal ; font-family: &amp;#34;times new roman&amp;#34;&quot;&gt;&amp;nbsp;&amp;nbsp;&amp;nbsp;&amp;nbsp;&amp;nbsp;&amp;nbsp; &lt;/span&gt;¿Qué hago si no existe el estándar de un nuevo componente?&lt;/p&gt;&lt;p class=&quot;MsoListParagraphCxSpMiddle&quot; style=&quot;text-align: justify ; text-indent: -18.0pt&quot;&gt;4.&lt;span style=&quot;font-stretch: normal ; font-size: 7pt ; line-height: normal ; font-family: &amp;#34;times new roman&amp;#34;&quot;&gt;&amp;nbsp;&amp;nbsp;&amp;nbsp;&amp;nbsp;&amp;nbsp;&amp;nbsp; &lt;/span&gt;¿Cuáles son los tipos de configuraciones y significado?&lt;/p&gt;&lt;p class=&quot;MsoListParagraphCxSpMiddle&quot; style=&quot;text-align: justify ; text-indent: -18.0pt&quot;&gt;5.&lt;span style=&quot;font-stretch: normal ; font-size: 7pt ; line-height: normal ; font-family: &amp;#34;times new roman&amp;#34;&quot;&gt;&amp;nbsp;&amp;nbsp;&amp;nbsp;&amp;nbsp;&amp;nbsp;&amp;nbsp; &lt;/span&gt;¿Qué significa llevar rastreabilidad? &lt;/p&gt;&lt;p class=&quot;MsoListParagraphCxSpMiddle&quot; style=&quot;text-align: justify ; text-indent: -18.0pt&quot;&gt;6.&lt;span style=&quot;font-stretch: normal ; font-size: 7pt ; line-height: normal ; font-family: &amp;#34;times new roman&amp;#34;&quot;&gt;&amp;nbsp;&amp;nbsp;&amp;nbsp;&amp;nbsp;&amp;nbsp;&amp;nbsp; &lt;/span&gt;¿Qué es la unidad de medida base?&lt;/p&gt;&lt;p class=&quot;MsoListParagraphCxSpMiddle&quot; style=&quot;text-align: justify ; text-indent: -18.0pt&quot;&gt;7.&lt;span style=&quot;font-stretch: normal ; font-size: 7pt ; line-height: normal ; font-family: &amp;#34;times new roman&amp;#34;&quot;&gt;&amp;nbsp;&amp;nbsp;&amp;nbsp;&amp;nbsp;&amp;nbsp;&amp;nbsp; &lt;/span&gt;¿Qué es el factor de conversión?&lt;/p&gt;&lt;p class=&quot;MsoListParagraphCxSpMiddle&quot; style=&quot;text-align: justify ; text-indent: -18.0pt&quot;&gt;&lt;span style=&quot;text-indent: -18pt&quot;&gt;8.&lt;/span&gt;&lt;span style=&quot;text-indent: -18pt ; font-stretch: normal ; font-size: 7pt ; line-height: normal ; font-family: &amp;#34;times new roman&amp;#34;&quot;&gt;&amp;nbsp;&amp;nbsp;&amp;nbsp;&amp;nbsp;&amp;nbsp;&amp;nbsp; &lt;/span&gt;&lt;span style=&quot;text-indent: -18pt&quot;&gt;¿Qué&amp;nbsp;&lt;/span&gt;&lt;span style=&quot;text-indent: -18pt&quot;&gt;hacer si quiero agregar un nuevo ensamble o material que no está indicado en la&amp;nbsp;&lt;/span&gt;&lt;span style=&quot;text-indent: -18pt&quot;&gt;guía de BTO?&lt;/span&gt;&lt;/p&gt;" style="shape=callout;whiteSpace=wrap;html=1;perimeter=calloutPerimeter;" parent="i4HORExXwTHbloD7KYRc-1" vertex="1">
          <mxGeometry x="530" y="-1090" width="570" height="250" as="geometry" />
        </mxCell>
        <mxCell id="i4HORExXwTHbloD7KYRc-12" value="" style="group;align=left;fontStyle=1;fontSize=8;" parent="i4HORExXwTHbloD7KYRc-1" vertex="1" connectable="0">
          <mxGeometry x="10" y="-750" width="190" height="230" as="geometry" />
        </mxCell>
        <mxCell id="i4HORExXwTHbloD7KYRc-13" value="&lt;p class=&quot;MsoListParagraphCxSpFirst&quot; style=&quot;text-indent: -18pt ; font-size: 10px&quot;&gt;&lt;/p&gt;&lt;span style=&quot;text-align: left&quot;&gt;&lt;b&gt;Para subensambles revisar Infotool&amp;nbsp; y el archivo de excel&lt;/b&gt;&lt;br&gt;&lt;b&gt;Windchill&lt;/b&gt;&lt;br&gt;&lt;/span&gt;1. Infotool&lt;br&gt;2. Estandarización de descripciones&lt;br&gt;&lt;p class=&quot;MsoNormal&quot;&gt;&lt;span style=&quot;color: rgb(68 , 68 , 68)&quot;&gt;&lt;b&gt;Para&lt;br&gt;familias de materiales consultar archivo de Excel en Windchill&lt;/b&gt;&lt;/span&gt;&lt;/p&gt;&lt;p class=&quot;MsoNormal&quot;&gt;&lt;span style=&quot;color: rgb(68 , 68 , 68)&quot;&gt;1. Estandarización familias&lt;/span&gt;&lt;/p&gt;" style="whiteSpace=wrap;html=1;aspect=fixed;fontSize=10;gradientColor=#ffd966;fillColor=#fff2cc;strokeColor=#d6b656;" parent="i4HORExXwTHbloD7KYRc-12" vertex="1">
          <mxGeometry y="18.4" width="170" height="170" as="geometry" />
        </mxCell>
        <mxCell id="i4HORExXwTHbloD7KYRc-14" value="&lt;b&gt;1&lt;/b&gt;" style="text;html=1;strokeColor=none;fillColor=none;align=center;verticalAlign=middle;whiteSpace=wrap;rounded=0;" parent="i4HORExXwTHbloD7KYRc-12" vertex="1">
          <mxGeometry width="31.55709342560554" height="15.86206896551724" as="geometry" />
        </mxCell>
        <mxCell id="i4HORExXwTHbloD7KYRc-15" value="" style="group;align=left;fontStyle=1;fontSize=8;" parent="i4HORExXwTHbloD7KYRc-1" vertex="1" connectable="0">
          <mxGeometry x="190" y="-750" width="260" height="240" as="geometry" />
        </mxCell>
        <mxCell id="i4HORExXwTHbloD7KYRc-16" value="&lt;p class=&quot;MsoListParagraphCxSpFirst&quot; style=&quot;text-indent: -18pt ; font-size: 10px&quot;&gt;&lt;/p&gt;&lt;div style=&quot;text-align: left&quot;&gt;&lt;p class=&quot;MsoNormal&quot;&gt;&lt;span style=&quot;color: rgb(68 , 68 , 68)&quot;&gt;Consultar&lt;br&gt;si un subensamble ya se encuentra en infotool-&amp;gt;Ingresa el nombre del&lt;br&gt;subensamble&lt;/span&gt;&lt;/p&gt;&lt;/div&gt;" style="whiteSpace=wrap;html=1;aspect=fixed;fontSize=10;" parent="i4HORExXwTHbloD7KYRc-15" vertex="1">
          <mxGeometry y="18.4" width="170" height="170" as="geometry" />
        </mxCell>
        <mxCell id="i4HORExXwTHbloD7KYRc-17" value="&lt;b&gt;2&lt;/b&gt;" style="text;html=1;strokeColor=none;fillColor=none;align=center;verticalAlign=middle;whiteSpace=wrap;rounded=0;" parent="i4HORExXwTHbloD7KYRc-15" vertex="1">
          <mxGeometry width="31.55709342560554" height="15.86206896551724" as="geometry" />
        </mxCell>
        <mxCell id="i4HORExXwTHbloD7KYRc-18" value="" style="group;align=left;fontStyle=1;fontSize=8;" parent="i4HORExXwTHbloD7KYRc-15" vertex="1" connectable="0">
          <mxGeometry x="180" width="190" height="230" as="geometry" />
        </mxCell>
        <mxCell id="i4HORExXwTHbloD7KYRc-19" value="&lt;p class=&quot;MsoListParagraphCxSpFirst&quot; style=&quot;text-indent: -18pt ; font-size: 10px&quot;&gt;&lt;/p&gt;&lt;div&gt;&lt;p class=&quot;MsoNormal&quot;&gt;&lt;/p&gt;&lt;span style=&quot;background-color: white ; color: rgb(68 , 68 , 68) ; text-align: left&quot;&gt;Revisar&lt;br&gt;con ingeniería de información para definir el estándar.&lt;/span&gt;&lt;br&gt;&lt;p&gt;&lt;/p&gt;&lt;/div&gt;&lt;div&gt;&lt;span style=&quot;background-color: white ; color: rgb(68 , 68 , 68) ; text-align: left&quot;&gt;&lt;b&gt;Ver opción de programar reunión&lt;/b&gt;&lt;/span&gt;&lt;/div&gt;" style="whiteSpace=wrap;html=1;aspect=fixed;fontSize=10;labelBorderColor=none;labelBackgroundColor=none;" parent="i4HORExXwTHbloD7KYRc-18" vertex="1">
          <mxGeometry y="18.4" width="170" height="170" as="geometry" />
        </mxCell>
        <mxCell id="i4HORExXwTHbloD7KYRc-20" value="&lt;b&gt;3&lt;/b&gt;" style="text;html=1;strokeColor=none;fillColor=none;align=center;verticalAlign=middle;whiteSpace=wrap;rounded=0;" parent="i4HORExXwTHbloD7KYRc-18" vertex="1">
          <mxGeometry width="31.55709342560554" height="15.86206896551724" as="geometry" />
        </mxCell>
        <mxCell id="i4HORExXwTHbloD7KYRc-21" value="" style="group;align=left;fontStyle=1;fontSize=5;" parent="i4HORExXwTHbloD7KYRc-1" vertex="1" connectable="0">
          <mxGeometry x="550" y="-750" width="190" height="230" as="geometry" />
        </mxCell>
        <mxCell id="i4HORExXwTHbloD7KYRc-22" value="&lt;p class=&quot;MsoListParagraphCxSpFirst&quot; style=&quot;text-indent: -18pt ; font-size: 5.5px&quot;&gt;&lt;/p&gt;&lt;div style=&quot;font-size: 5.5px&quot;&gt;&lt;p class=&quot;MsoNormal&quot; style=&quot;font-size: 5.5px&quot;&gt;&lt;/p&gt;&lt;p class=&quot;MsoNormal&quot; style=&quot;text-align: justify ; font-size: 5.5px&quot;&gt;&lt;b style=&quot;font-size: 5.5px&quot;&gt;&lt;span style=&quot;color: rgb(68 , 68 , 68) ; font-size: 5.5px&quot;&gt;E &lt;/span&gt;&lt;/b&gt;&lt;span style=&quot;color: rgb(68 , 68 , 68) ; font-size: 5.5px&quot;&gt;(Fabricación propia -Producción):&lt;br style=&quot;font-size: 5.5px&quot;&gt;Ensamble agrupador de componentes, requiere de una orden de fabricación previa a la producción del producto terminado.&lt;/span&gt;&lt;/p&gt;&lt;p class=&quot;MsoNormal&quot; style=&quot;text-align: justify ; font-size: 5.5px&quot;&gt;&lt;b style=&quot;font-size: 5.5px&quot;&gt;&lt;span style=&quot;color: rgb(68 , 68 , 68) ; font-size: 5.5px&quot;&gt;E 50&lt;/span&gt;&lt;/b&gt;&lt;span style=&quot;color: rgb(68 , 68 , 68) ; font-size: 5.5px&quot;&gt; (Ficticio): Ensamble interno, es un&amp;nbsp;&lt;/span&gt;&lt;span style=&quot;color: rgb(68 , 68 , 68) ; font-size: 5.5px&quot;&gt;agrupador de componentes, en su estructura se enlistan los materiales a&amp;nbsp;&lt;/span&gt;&lt;span style=&quot;color: rgb(68 , 68 , 68) ; font-size: 5.5px&quot;&gt;utilizar.&lt;/span&gt;&lt;/p&gt;&lt;p class=&quot;MsoNormal&quot; style=&quot;text-align: justify ; font-size: 5.5px&quot;&gt;&lt;b style=&quot;font-size: 5.5px&quot;&gt;&lt;span style=&quot;color: rgb(68 , 68 , 68) ; font-size: 5.5px&quot;&gt;E 50&lt;/span&gt;&lt;/b&gt;&lt;span style=&quot;color: rgb(68 , 68 , 68) ; font-size: 5.5px&quot;&gt; (Ficticio a nivel estructura): En algunos casos se requiere configurar dentro de estructura como ficticio, esto es para materiales que se facturan y se refabrican internamente (aplica para componentes metálicos).&lt;/span&gt;&lt;/p&gt;&lt;p class=&quot;MsoNormal&quot; style=&quot;text-align: justify ; font-size: 5.5px&quot;&gt;&lt;b style=&quot;font-size: 5.5px&quot;&gt;&lt;span style=&quot;color: rgb(68 , 68 , 68) ; font-size: 5.5px&quot;&gt;F&lt;/span&gt;&lt;/b&gt;&lt;span style=&quot;color: rgb(68 , 68 , 68) ; font-size: 5.5px&quot;&gt; (Acopio externo-Materia prima): Material solo con alternativa de compra.&lt;/span&gt;&lt;/p&gt;&lt;p class=&quot;MsoNormal&quot; style=&quot;text-align: justify ; font-size: 5.5px&quot;&gt;&lt;b style=&quot;font-size: 5.5px&quot;&gt;&lt;span style=&quot;color: rgb(68 , 68 , 68) ; font-size: 5.5px&quot;&gt;F&lt;/span&gt;&lt;/b&gt;&lt;span style=&quot;color: rgb(68 , 68 , 68) ; font-size: 5.5px&quot;&gt; (Materia prima no valorada): Material que no se compra por parte de la empresa, es proporcionado por el cliente.&lt;/span&gt;&lt;/p&gt;&lt;p class=&quot;MsoNormal&quot; style=&quot;text-align: justify ; font-size: 5.5px&quot;&gt;&lt;b style=&quot;font-size: 5.5px&quot;&gt;&lt;span style=&quot;color: rgb(68 , 68 , 68) ; font-size: 5.5px&quot;&gt;F 30&lt;/span&gt;&lt;/b&gt;&lt;span style=&quot;color: rgb(68 , 68 , 68) ; font-size: 5.5px&quot;&gt; (Maquila): Material que requiere algún proceso con proveedor, una maquila cuenta con estructura, los materiales se envían al proveedor para que entregue la pieza final.&lt;/span&gt;&lt;/p&gt;&lt;p class=&quot;MsoNormal&quot; style=&quot;text-align: justify ; font-size: 5.5px&quot;&gt;&lt;b style=&quot;font-size: 5.5px&quot;&gt;&lt;span style=&quot;color: rgb(68 , 68 , 68) ; font-size: 5.5px&quot;&gt;X&lt;/span&gt;&lt;/b&gt;&lt;span style=&quot;color: rgb(68 , 68 , 68) ; font-size: 5.5px&quot;&gt; (Ambas clases de acopio): Ensamble que tiene la opción de fabricarse internamente o comprarse con proveedor, debe&lt;br style=&quot;font-size: 5.5px&quot;&gt;llevar estructura.&lt;/span&gt;&lt;/p&gt;&lt;p class=&quot;MsoNormal&quot; style=&quot;text-align: justify ; font-size: 5.5px&quot;&gt;&lt;span style=&quot;color: rgb(68 , 68 , 68) ; font-size: 5.5px&quot;&gt;&lt;b&gt;NOTA: HACER INFOGRAFÍA/IMAGEN&lt;/b&gt;&lt;/span&gt;&lt;/p&gt;&lt;p style=&quot;font-size: 5.5px&quot;&gt;&lt;/p&gt;&lt;/div&gt;" style="whiteSpace=wrap;html=1;aspect=fixed;fontSize=5.5;labelBorderColor=none;labelBackgroundColor=none;fillColor=#dae8fc;strokeColor=#6c8ebf;" parent="i4HORExXwTHbloD7KYRc-21" vertex="1">
          <mxGeometry y="18.4" width="170" height="170" as="geometry" />
        </mxCell>
        <mxCell id="i4HORExXwTHbloD7KYRc-23" value="&lt;b&gt;4&lt;/b&gt;" style="text;html=1;strokeColor=none;fillColor=none;align=center;verticalAlign=middle;whiteSpace=wrap;rounded=0;" parent="i4HORExXwTHbloD7KYRc-21" vertex="1">
          <mxGeometry width="31.55709342560554" height="15.86206896551724" as="geometry" />
        </mxCell>
        <mxCell id="i4HORExXwTHbloD7KYRc-24" value="" style="group;align=left;fontStyle=1;fontSize=8;" parent="i4HORExXwTHbloD7KYRc-1" vertex="1" connectable="0">
          <mxGeometry x="730" y="-750" width="190" height="230" as="geometry" />
        </mxCell>
        <mxCell id="i4HORExXwTHbloD7KYRc-25" value="&lt;p class=&quot;MsoListParagraphCxSpFirst&quot; style=&quot;text-indent: -18pt ; font-size: 10px&quot;&gt;&lt;/p&gt;&lt;div&gt;&lt;p class=&quot;MsoNormal&quot;&gt;&lt;/p&gt;&lt;p class=&quot;MsoNormal&quot;&gt;&lt;span style=&quot;color: #444444 ; background: white&quot;&gt;Son&lt;br/&gt;componentes que se tienen que leer en línea, un ejemplo son las PLACAS MET CTE&lt;/span&gt;&lt;/p&gt;&lt;p&gt;&lt;/p&gt;&lt;/div&gt;" style="whiteSpace=wrap;html=1;aspect=fixed;fontSize=10;labelBorderColor=none;labelBackgroundColor=none;" parent="i4HORExXwTHbloD7KYRc-24" vertex="1">
          <mxGeometry y="18.4" width="170" height="170" as="geometry" />
        </mxCell>
        <mxCell id="i4HORExXwTHbloD7KYRc-26" value="&lt;b&gt;5&lt;/b&gt;" style="text;html=1;strokeColor=none;fillColor=none;align=center;verticalAlign=middle;whiteSpace=wrap;rounded=0;" parent="i4HORExXwTHbloD7KYRc-24" vertex="1">
          <mxGeometry width="31.55709342560554" height="15.86206896551724" as="geometry" />
        </mxCell>
        <mxCell id="i4HORExXwTHbloD7KYRc-27" value="" style="group;align=left;fontStyle=1;fontSize=8;" parent="i4HORExXwTHbloD7KYRc-1" vertex="1" connectable="0">
          <mxGeometry x="910" y="-750" width="190" height="230" as="geometry" />
        </mxCell>
        <mxCell id="i4HORExXwTHbloD7KYRc-28" value="&lt;p class=&quot;MsoListParagraphCxSpFirst&quot; style=&quot;text-indent: -18pt ; font-size: 10px&quot;&gt;&lt;/p&gt;&lt;div&gt;&lt;p class=&quot;MsoNormal&quot;&gt;&lt;/p&gt;&lt;p class=&quot;MsoNormal&quot;&gt;&lt;span style=&quot;color: #444444 ; background: white&quot;&gt;Es la&lt;br/&gt;unidad en la que se va a consumir internamente un componente.&lt;/span&gt;&lt;/p&gt;&lt;p&gt;&lt;/p&gt;&lt;/div&gt;" style="whiteSpace=wrap;html=1;aspect=fixed;fontSize=10;labelBorderColor=none;labelBackgroundColor=none;" parent="i4HORExXwTHbloD7KYRc-27" vertex="1">
          <mxGeometry y="18.4" width="170" height="170" as="geometry" />
        </mxCell>
        <mxCell id="i4HORExXwTHbloD7KYRc-29" value="&lt;b&gt;6&lt;/b&gt;" style="text;html=1;strokeColor=none;fillColor=none;align=center;verticalAlign=middle;whiteSpace=wrap;rounded=0;" parent="i4HORExXwTHbloD7KYRc-27" vertex="1">
          <mxGeometry width="31.55709342560554" height="15.86206896551724" as="geometry" />
        </mxCell>
        <mxCell id="i4HORExXwTHbloD7KYRc-30" value="" style="group;align=left;fontStyle=1;fontSize=8;" parent="i4HORExXwTHbloD7KYRc-1" vertex="1" connectable="0">
          <mxGeometry x="1090" y="-750" width="190" height="230" as="geometry" />
        </mxCell>
        <mxCell id="i4HORExXwTHbloD7KYRc-31" value="&lt;p class=&quot;MsoListParagraphCxSpFirst&quot; style=&quot;text-indent: -18pt ; font-size: 10px&quot;&gt;&lt;/p&gt;&lt;div&gt;&lt;p class=&quot;MsoNormal&quot;&gt;&lt;/p&gt;&lt;p class=&quot;MsoNormal&quot;&gt;&lt;span style=&quot;color: #444444 ; background: white&quot;&gt;Es la&lt;br/&gt;unidad en la que se va a comprar el componente y se deberá agregar la unidad&lt;br/&gt;medida pedido.&lt;/span&gt;&lt;/p&gt;&lt;p&gt;&lt;/p&gt;&lt;/div&gt;" style="whiteSpace=wrap;html=1;aspect=fixed;fontSize=10;labelBorderColor=none;labelBackgroundColor=none;" parent="i4HORExXwTHbloD7KYRc-30" vertex="1">
          <mxGeometry y="18.4" width="170" height="170" as="geometry" />
        </mxCell>
        <mxCell id="i4HORExXwTHbloD7KYRc-32" value="&lt;b&gt;7&lt;/b&gt;" style="text;html=1;strokeColor=none;fillColor=none;align=center;verticalAlign=middle;whiteSpace=wrap;rounded=0;" parent="i4HORExXwTHbloD7KYRc-30" vertex="1">
          <mxGeometry width="31.55709342560554" height="15.86206896551724" as="geometry" />
        </mxCell>
        <mxCell id="i4HORExXwTHbloD7KYRc-33" value="" style="group;align=left;fontStyle=1;fontSize=8;" parent="i4HORExXwTHbloD7KYRc-1" vertex="1" connectable="0">
          <mxGeometry x="1270" y="-750" width="190" height="230" as="geometry" />
        </mxCell>
        <mxCell id="i4HORExXwTHbloD7KYRc-34" value="&lt;p class=&quot;MsoListParagraphCxSpFirst&quot; style=&quot;text-indent: -18pt ; font-size: 10px&quot;&gt;&lt;/p&gt;&lt;div&gt;&lt;p class=&quot;MsoNormal&quot;&gt;&lt;/p&gt;&lt;p class=&quot;MsoNormal&quot; style=&quot;text-align: justify&quot;&gt;IMAGEN&lt;/p&gt;&lt;p&gt;&lt;/p&gt;&lt;/div&gt;" style="whiteSpace=wrap;html=1;aspect=fixed;fontSize=10;labelBorderColor=none;labelBackgroundColor=none;" parent="i4HORExXwTHbloD7KYRc-33" vertex="1">
          <mxGeometry y="18.4" width="170" height="170" as="geometry" />
        </mxCell>
        <mxCell id="i4HORExXwTHbloD7KYRc-35" value="&lt;b&gt;8&lt;/b&gt;" style="text;html=1;strokeColor=none;fillColor=none;align=center;verticalAlign=middle;whiteSpace=wrap;rounded=0;" parent="i4HORExXwTHbloD7KYRc-33" vertex="1">
          <mxGeometry width="31.55709342560554" height="15.86206896551724" as="geometry" />
        </mxCell>
        <mxCell id="i4HORExXwTHbloD7KYRc-45" style="edgeStyle=orthogonalEdgeStyle;rounded=0;orthogonalLoop=1;jettySize=auto;html=1;fontSize=10;" parent="i4HORExXwTHbloD7KYRc-1" source="i4HORExXwTHbloD7KYRc-13" edge="1">
          <mxGeometry relative="1" as="geometry">
            <Array as="points">
              <mxPoint x="95" y="-470" />
              <mxPoint x="815" y="-470" />
            </Array>
            <mxPoint x="815" y="-420" as="targetPoint" />
          </mxGeometry>
        </mxCell>
        <mxCell id="i4HORExXwTHbloD7KYRc-46" style="edgeStyle=orthogonalEdgeStyle;rounded=0;orthogonalLoop=1;jettySize=auto;html=1;entryX=0.5;entryY=0;entryDx=0;entryDy=0;entryPerimeter=0;fontSize=10;" parent="i4HORExXwTHbloD7KYRc-1" source="i4HORExXwTHbloD7KYRc-16" edge="1">
          <mxGeometry relative="1" as="geometry">
            <Array as="points">
              <mxPoint x="275" y="-470" />
              <mxPoint x="815" y="-470" />
            </Array>
            <mxPoint x="815" y="-420" as="targetPoint" />
          </mxGeometry>
        </mxCell>
        <mxCell id="i4HORExXwTHbloD7KYRc-47" style="edgeStyle=orthogonalEdgeStyle;rounded=0;orthogonalLoop=1;jettySize=auto;html=1;entryX=0.5;entryY=0;entryDx=0;entryDy=0;entryPerimeter=0;fontSize=10;" parent="i4HORExXwTHbloD7KYRc-1" source="i4HORExXwTHbloD7KYRc-19" edge="1">
          <mxGeometry relative="1" as="geometry">
            <Array as="points">
              <mxPoint x="455" y="-470" />
              <mxPoint x="815" y="-470" />
            </Array>
            <mxPoint x="815" y="-420" as="targetPoint" />
          </mxGeometry>
        </mxCell>
        <mxCell id="i4HORExXwTHbloD7KYRc-48" style="edgeStyle=orthogonalEdgeStyle;rounded=0;orthogonalLoop=1;jettySize=auto;html=1;entryX=0.5;entryY=0;entryDx=0;entryDy=0;entryPerimeter=0;fontSize=10;" parent="i4HORExXwTHbloD7KYRc-1" source="i4HORExXwTHbloD7KYRc-22" edge="1">
          <mxGeometry relative="1" as="geometry">
            <Array as="points">
              <mxPoint x="635" y="-470" />
              <mxPoint x="815" y="-470" />
            </Array>
            <mxPoint x="815" y="-420" as="targetPoint" />
          </mxGeometry>
        </mxCell>
        <mxCell id="i4HORExXwTHbloD7KYRc-49" style="edgeStyle=orthogonalEdgeStyle;rounded=0;orthogonalLoop=1;jettySize=auto;html=1;fontSize=10;" parent="i4HORExXwTHbloD7KYRc-1" source="i4HORExXwTHbloD7KYRc-25" edge="1">
          <mxGeometry relative="1" as="geometry">
            <mxPoint x="815" y="-420" as="targetPoint" />
          </mxGeometry>
        </mxCell>
        <mxCell id="i4HORExXwTHbloD7KYRc-50" style="edgeStyle=orthogonalEdgeStyle;rounded=0;orthogonalLoop=1;jettySize=auto;html=1;entryX=0.5;entryY=0;entryDx=0;entryDy=0;entryPerimeter=0;fontSize=10;" parent="i4HORExXwTHbloD7KYRc-1" source="i4HORExXwTHbloD7KYRc-28" edge="1">
          <mxGeometry relative="1" as="geometry">
            <Array as="points">
              <mxPoint x="995" y="-470" />
              <mxPoint x="815" y="-470" />
            </Array>
            <mxPoint x="815" y="-420" as="targetPoint" />
          </mxGeometry>
        </mxCell>
        <mxCell id="i4HORExXwTHbloD7KYRc-51" style="edgeStyle=orthogonalEdgeStyle;rounded=0;orthogonalLoop=1;jettySize=auto;html=1;entryX=0.5;entryY=0;entryDx=0;entryDy=0;entryPerimeter=0;fontSize=10;" parent="i4HORExXwTHbloD7KYRc-1" source="i4HORExXwTHbloD7KYRc-31" edge="1">
          <mxGeometry relative="1" as="geometry">
            <Array as="points">
              <mxPoint x="1175" y="-470" />
              <mxPoint x="815" y="-470" />
            </Array>
            <mxPoint x="815" y="-420" as="targetPoint" />
          </mxGeometry>
        </mxCell>
        <mxCell id="i4HORExXwTHbloD7KYRc-52" style="edgeStyle=orthogonalEdgeStyle;rounded=0;orthogonalLoop=1;jettySize=auto;html=1;entryX=0.5;entryY=0;entryDx=0;entryDy=0;entryPerimeter=0;fontSize=10;" parent="i4HORExXwTHbloD7KYRc-1" source="i4HORExXwTHbloD7KYRc-34" edge="1">
          <mxGeometry relative="1" as="geometry">
            <Array as="points">
              <mxPoint x="1355" y="-470" />
              <mxPoint x="815" y="-470" />
              <mxPoint x="815" y="-140" />
            </Array>
            <mxPoint x="615" y="-140" as="targetPoint" />
          </mxGeometry>
        </mxCell>
      </root>
    </mxGraphModel>
  </diagram>
  <diagram id="B7dlH4Aojz8JjoXW3sHu" name="MMM">
    <mxGraphModel dx="1465" dy="1794" grid="0" gridSize="10" guides="1" tooltips="1" connect="1" arrows="1" fold="1" page="1" pageScale="1" pageWidth="827" pageHeight="1169" math="0" shadow="0">
      <root>
        <mxCell id="FV20sulQuTvMeDrOD772-0" />
        <mxCell id="FV20sulQuTvMeDrOD772-1" parent="FV20sulQuTvMeDrOD772-0" />
        <mxCell id="ASVrXUEzMPWV5QrNTGg8-0" style="edgeStyle=orthogonalEdgeStyle;rounded=0;orthogonalLoop=1;jettySize=auto;html=1;entryX=0.5;entryY=0;entryDx=0;entryDy=0;fontSize=10;" parent="FV20sulQuTvMeDrOD772-1" source="ASVrXUEzMPWV5QrNTGg8-8" target="ASVrXUEzMPWV5QrNTGg8-22" edge="1">
          <mxGeometry relative="1" as="geometry">
            <Array as="points">
              <mxPoint x="455" y="-830" />
              <mxPoint x="815" y="-830" />
            </Array>
          </mxGeometry>
        </mxCell>
        <mxCell id="ASVrXUEzMPWV5QrNTGg8-1" style="edgeStyle=orthogonalEdgeStyle;rounded=0;orthogonalLoop=1;jettySize=auto;html=1;entryX=0.5;entryY=0;entryDx=0;entryDy=0;fontSize=10;" parent="FV20sulQuTvMeDrOD772-1" source="ASVrXUEzMPWV5QrNTGg8-8" target="ASVrXUEzMPWV5QrNTGg8-10" edge="1">
          <mxGeometry relative="1" as="geometry">
            <Array as="points">
              <mxPoint x="815" y="-830" />
              <mxPoint x="95" y="-830" />
            </Array>
          </mxGeometry>
        </mxCell>
        <mxCell id="ASVrXUEzMPWV5QrNTGg8-2" style="edgeStyle=orthogonalEdgeStyle;rounded=0;orthogonalLoop=1;jettySize=auto;html=1;entryX=0.5;entryY=0;entryDx=0;entryDy=0;fontSize=10;" parent="FV20sulQuTvMeDrOD772-1" source="ASVrXUEzMPWV5QrNTGg8-8" target="ASVrXUEzMPWV5QrNTGg8-13" edge="1">
          <mxGeometry relative="1" as="geometry">
            <Array as="points">
              <mxPoint x="815" y="-830" />
              <mxPoint x="275" y="-830" />
            </Array>
          </mxGeometry>
        </mxCell>
        <mxCell id="ASVrXUEzMPWV5QrNTGg8-3" style="edgeStyle=orthogonalEdgeStyle;rounded=0;orthogonalLoop=1;jettySize=auto;html=1;fontSize=10;" parent="FV20sulQuTvMeDrOD772-1" source="ASVrXUEzMPWV5QrNTGg8-8" target="ASVrXUEzMPWV5QrNTGg8-16" edge="1">
          <mxGeometry relative="1" as="geometry">
            <Array as="points">
              <mxPoint x="815" y="-830" />
              <mxPoint x="455" y="-830" />
            </Array>
          </mxGeometry>
        </mxCell>
        <mxCell id="ASVrXUEzMPWV5QrNTGg8-4" style="edgeStyle=orthogonalEdgeStyle;rounded=0;orthogonalLoop=1;jettySize=auto;html=1;fontSize=10;exitX=0;exitY=0;exitDx=285;exitDy=280;exitPerimeter=0;" parent="FV20sulQuTvMeDrOD772-1" source="ASVrXUEzMPWV5QrNTGg8-8" target="ASVrXUEzMPWV5QrNTGg8-19" edge="1">
          <mxGeometry relative="1" as="geometry">
            <Array as="points">
              <mxPoint x="455" y="-830" />
              <mxPoint x="635" y="-830" />
            </Array>
          </mxGeometry>
        </mxCell>
        <mxCell id="ASVrXUEzMPWV5QrNTGg8-8" value="&lt;div&gt;1. ¿Dónde encuentro el estándar de descripciones para materiales?&lt;/div&gt;&lt;div&gt;2. ¿Se puede cambiar la descripción de un equipo?&lt;/div&gt;&lt;div&gt;3. ¿Cuáles son las consideraciones para reconfigurar un material?&lt;/div&gt;&lt;div&gt;4. ¿Cuándo aplica Make to Order (Z1) en un equipo?&lt;/div&gt;&lt;div&gt;5. ¿Qué descripciones debo afectar si modifico la descripción del GAE?&lt;/div&gt;&lt;div&gt;&lt;br&gt;&lt;/div&gt;" style="shape=callout;whiteSpace=wrap;html=1;perimeter=calloutPerimeter;align=left;position2=0.49;" parent="FV20sulQuTvMeDrOD772-1" vertex="1">
          <mxGeometry x="170" y="-1041" width="570" height="169" as="geometry" />
        </mxCell>
        <mxCell id="ASVrXUEzMPWV5QrNTGg8-9" value="" style="group;align=left;fontStyle=1;fontSize=8;" parent="FV20sulQuTvMeDrOD772-1" vertex="1" connectable="0">
          <mxGeometry x="10" y="-750" width="190" height="230" as="geometry" />
        </mxCell>
        <mxCell id="ASVrXUEzMPWV5QrNTGg8-10" value="&lt;p class=&quot;MsoListParagraphCxSpFirst&quot; style=&quot;text-indent: -18pt ; font-size: 10px&quot;&gt;&lt;/p&gt;&lt;span style=&quot;text-align: left&quot;&gt;&lt;b&gt;Para subensambles revisar Infotool&amp;nbsp;&lt;/b&gt;&lt;br&gt;&lt;/span&gt;1. Infotool&lt;br&gt;2. Estandarización de descripciones&lt;br&gt;&lt;p class=&quot;MsoNormal&quot;&gt;&lt;br&gt;&lt;/p&gt;" style="whiteSpace=wrap;html=1;aspect=fixed;fontSize=10;" parent="ASVrXUEzMPWV5QrNTGg8-9" vertex="1">
          <mxGeometry y="18.4" width="170" height="170" as="geometry" />
        </mxCell>
        <mxCell id="ASVrXUEzMPWV5QrNTGg8-11" value="&lt;b&gt;1&lt;/b&gt;" style="text;html=1;strokeColor=none;fillColor=none;align=center;verticalAlign=middle;whiteSpace=wrap;rounded=0;" parent="ASVrXUEzMPWV5QrNTGg8-9" vertex="1">
          <mxGeometry width="31.55709342560554" height="15.86206896551724" as="geometry" />
        </mxCell>
        <mxCell id="ASVrXUEzMPWV5QrNTGg8-12" value="" style="group;align=left;fontStyle=1;fontSize=8;" parent="FV20sulQuTvMeDrOD772-1" vertex="1" connectable="0">
          <mxGeometry x="190" y="-750" width="260" height="240" as="geometry" />
        </mxCell>
        <mxCell id="ASVrXUEzMPWV5QrNTGg8-13" value="&lt;p class=&quot;MsoListParagraphCxSpFirst&quot; style=&quot;text-indent: -18pt ; font-size: 10px&quot;&gt;&lt;/p&gt;&lt;div style=&quot;text-align: left&quot;&gt;&lt;p class=&quot;MsoNormal&quot;&gt;&lt;font color=&quot;#444444&quot;&gt;Solo aplica si el equipo está como PRO&lt;/font&gt;&lt;br&gt;&lt;/p&gt;&lt;/div&gt;" style="whiteSpace=wrap;html=1;aspect=fixed;fontSize=10;" parent="ASVrXUEzMPWV5QrNTGg8-12" vertex="1">
          <mxGeometry y="18.4" width="170" height="170" as="geometry" />
        </mxCell>
        <mxCell id="ASVrXUEzMPWV5QrNTGg8-14" value="&lt;b&gt;2&lt;/b&gt;" style="text;html=1;strokeColor=none;fillColor=none;align=center;verticalAlign=middle;whiteSpace=wrap;rounded=0;" parent="ASVrXUEzMPWV5QrNTGg8-12" vertex="1">
          <mxGeometry width="31.55709342560554" height="15.86206896551724" as="geometry" />
        </mxCell>
        <mxCell id="ASVrXUEzMPWV5QrNTGg8-15" value="" style="group;align=left;fontStyle=1;fontSize=8;" parent="ASVrXUEzMPWV5QrNTGg8-12" vertex="1" connectable="0">
          <mxGeometry x="180" width="190" height="230" as="geometry" />
        </mxCell>
        <mxCell id="ASVrXUEzMPWV5QrNTGg8-16" value="&lt;p class=&quot;MsoListParagraphCxSpFirst&quot; style=&quot;text-indent: -18pt ; font-size: 10px&quot;&gt;&lt;/p&gt;&lt;div&gt;&lt;p class=&quot;MsoNormal&quot;&gt;&lt;/p&gt;&lt;div style=&quot;text-align: left&quot;&gt;&lt;font color=&quot;#444444&quot;&gt;1. El material no debe estar liberado.&amp;nbsp;&lt;/font&gt;&lt;/div&gt;&lt;div style=&quot;text-align: left&quot;&gt;&lt;font color=&quot;#444444&quot;&gt;2. Indicar si se requiere como refaccionable.&lt;/font&gt;&lt;/div&gt;&lt;div style=&quot;text-align: left&quot;&gt;&lt;font color=&quot;#444444&quot;&gt;3. Si se requiere como materia prima con la misma MMM se elimina la estructura (no aplica activar depende de ajuste).&lt;/font&gt;&lt;/div&gt;&lt;div style=&quot;text-align: left&quot;&gt;&lt;font color=&quot;#444444&quot;&gt;4. Si se requiere con estructura con la misma MMM se agrega la lista de materiales (no aplica activar depende de ajuste).&lt;/font&gt;&lt;/div&gt;&lt;div style=&quot;text-align: left&quot;&gt;&lt;br&gt;&lt;/div&gt;&lt;p&gt;&lt;/p&gt;&lt;/div&gt;" style="whiteSpace=wrap;html=1;aspect=fixed;fontSize=10;labelBorderColor=none;labelBackgroundColor=none;" parent="ASVrXUEzMPWV5QrNTGg8-15" vertex="1">
          <mxGeometry y="18.4" width="170" height="170" as="geometry" />
        </mxCell>
        <mxCell id="ASVrXUEzMPWV5QrNTGg8-17" value="&lt;b&gt;3&lt;/b&gt;" style="text;html=1;strokeColor=none;fillColor=none;align=center;verticalAlign=middle;whiteSpace=wrap;rounded=0;" parent="ASVrXUEzMPWV5QrNTGg8-15" vertex="1">
          <mxGeometry width="31.55709342560554" height="15.86206896551724" as="geometry" />
        </mxCell>
        <mxCell id="ASVrXUEzMPWV5QrNTGg8-18" value="" style="group;align=left;fontStyle=1;fontSize=5;" parent="FV20sulQuTvMeDrOD772-1" vertex="1" connectable="0">
          <mxGeometry x="550" y="-750" width="190" height="230" as="geometry" />
        </mxCell>
        <mxCell id="ASVrXUEzMPWV5QrNTGg8-19" value="&lt;p class=&quot;MsoListParagraphCxSpFirst&quot; style=&quot;text-indent: -18pt; font-size: 10px;&quot;&gt;&lt;/p&gt;&lt;div style=&quot;font-size: 10px;&quot;&gt;&lt;p class=&quot;MsoNormal&quot; style=&quot;font-size: 10px;&quot;&gt;&lt;/p&gt;&lt;p class=&quot;MsoNormal&quot; style=&quot;margin-bottom: 0.0001pt; line-height: normal; font-size: 10px;&quot;&gt;Cuando el cliente solicita colocar&lt;br style=&quot;font-size: 10px;&quot;&gt;datos exclusivos (ejemplo placa cte), se puede aplicar para un equipo que esté&lt;br style=&quot;font-size: 10px;&quot;&gt;en PRO o para cambios temporales con la MMM.&lt;/p&gt;&lt;p style=&quot;font-size: 10px;&quot;&gt;&lt;/p&gt;&lt;/div&gt;" style="whiteSpace=wrap;html=1;aspect=fixed;fontSize=10;labelBorderColor=none;labelBackgroundColor=none;" parent="ASVrXUEzMPWV5QrNTGg8-18" vertex="1">
          <mxGeometry y="18.4" width="170" height="170" as="geometry" />
        </mxCell>
        <mxCell id="ASVrXUEzMPWV5QrNTGg8-20" value="&lt;b&gt;4&lt;/b&gt;" style="text;html=1;strokeColor=none;fillColor=none;align=center;verticalAlign=middle;whiteSpace=wrap;rounded=0;" parent="ASVrXUEzMPWV5QrNTGg8-18" vertex="1">
          <mxGeometry width="31.55709342560554" height="15.86206896551724" as="geometry" />
        </mxCell>
        <mxCell id="ASVrXUEzMPWV5QrNTGg8-21" value="" style="group;align=left;fontStyle=1;fontSize=8;" parent="FV20sulQuTvMeDrOD772-1" vertex="1" connectable="0">
          <mxGeometry x="730" y="-750" width="190" height="230" as="geometry" />
        </mxCell>
        <mxCell id="ASVrXUEzMPWV5QrNTGg8-22" value="&lt;p class=&quot;MsoListParagraphCxSpFirst&quot; style=&quot;text-indent: -18pt ; font-size: 10px&quot;&gt;&lt;/p&gt;&lt;div&gt;&lt;p class=&quot;MsoNormal&quot;&gt;&lt;/p&gt;&lt;p class=&quot;MsoNormal&quot; style=&quot;margin-bottom: 0cm ; margin-bottom: 0.0001pt ; line-height: normal&quot;&gt;Se debe modificar el PTO BASE,&lt;br/&gt;CONFIGURABLE, VARIANTES (colocar un renglón por cada código, incluyendo un&lt;br/&gt;renglón para el GAE).&lt;/p&gt;&lt;p&gt;&lt;/p&gt;&lt;/div&gt;" style="whiteSpace=wrap;html=1;aspect=fixed;fontSize=10;labelBorderColor=none;labelBackgroundColor=none;" parent="ASVrXUEzMPWV5QrNTGg8-21" vertex="1">
          <mxGeometry y="18.4" width="170" height="170" as="geometry" />
        </mxCell>
        <mxCell id="ASVrXUEzMPWV5QrNTGg8-23" value="&lt;b&gt;5&lt;/b&gt;" style="text;html=1;strokeColor=none;fillColor=none;align=center;verticalAlign=middle;whiteSpace=wrap;rounded=0;" parent="ASVrXUEzMPWV5QrNTGg8-21" vertex="1">
          <mxGeometry width="31.55709342560554" height="15.86206896551724" as="geometry" />
        </mxCell>
        <mxCell id="ASVrXUEzMPWV5QrNTGg8-37" style="edgeStyle=orthogonalEdgeStyle;rounded=0;orthogonalLoop=1;jettySize=auto;html=1;fontSize=10;" parent="FV20sulQuTvMeDrOD772-1" source="ASVrXUEzMPWV5QrNTGg8-10" edge="1">
          <mxGeometry relative="1" as="geometry">
            <Array as="points">
              <mxPoint x="95" y="-470" />
              <mxPoint x="815" y="-470" />
            </Array>
            <mxPoint x="815.0000000000005" y="-420" as="targetPoint" />
          </mxGeometry>
        </mxCell>
        <mxCell id="ASVrXUEzMPWV5QrNTGg8-38" style="edgeStyle=orthogonalEdgeStyle;rounded=0;orthogonalLoop=1;jettySize=auto;html=1;entryX=0.5;entryY=0;entryDx=0;entryDy=0;entryPerimeter=0;fontSize=10;" parent="FV20sulQuTvMeDrOD772-1" source="ASVrXUEzMPWV5QrNTGg8-13" edge="1">
          <mxGeometry relative="1" as="geometry">
            <Array as="points">
              <mxPoint x="275" y="-470" />
              <mxPoint x="815" y="-470" />
            </Array>
            <mxPoint x="815" y="-420" as="targetPoint" />
          </mxGeometry>
        </mxCell>
        <mxCell id="ASVrXUEzMPWV5QrNTGg8-39" style="edgeStyle=orthogonalEdgeStyle;rounded=0;orthogonalLoop=1;jettySize=auto;html=1;entryX=0.5;entryY=0;entryDx=0;entryDy=0;entryPerimeter=0;fontSize=10;" parent="FV20sulQuTvMeDrOD772-1" source="ASVrXUEzMPWV5QrNTGg8-16" edge="1">
          <mxGeometry relative="1" as="geometry">
            <Array as="points">
              <mxPoint x="455" y="-470" />
              <mxPoint x="815" y="-470" />
            </Array>
            <mxPoint x="815" y="-420" as="targetPoint" />
          </mxGeometry>
        </mxCell>
        <mxCell id="ASVrXUEzMPWV5QrNTGg8-40" style="edgeStyle=orthogonalEdgeStyle;rounded=0;orthogonalLoop=1;jettySize=auto;html=1;entryX=0.5;entryY=0;entryDx=0;entryDy=0;entryPerimeter=0;fontSize=10;" parent="FV20sulQuTvMeDrOD772-1" source="ASVrXUEzMPWV5QrNTGg8-19" edge="1">
          <mxGeometry relative="1" as="geometry">
            <Array as="points">
              <mxPoint x="635" y="-470" />
              <mxPoint x="815" y="-470" />
            </Array>
            <mxPoint x="815" y="-420" as="targetPoint" />
          </mxGeometry>
        </mxCell>
        <mxCell id="ASVrXUEzMPWV5QrNTGg8-41" style="edgeStyle=orthogonalEdgeStyle;rounded=0;orthogonalLoop=1;jettySize=auto;html=1;fontSize=10;" parent="FV20sulQuTvMeDrOD772-1" source="ASVrXUEzMPWV5QrNTGg8-22" edge="1">
          <mxGeometry relative="1" as="geometry">
            <mxPoint x="815" y="-420" as="targetPoint" />
          </mxGeometry>
        </mxCell>
      </root>
    </mxGraphModel>
  </diagram>
  <diagram id="KD6LMxfnMNTXZ5h_aJvF" name="AVISO MAYOR">
    <mxGraphModel dx="2399" dy="994" grid="1" gridSize="10" guides="1" tooltips="1" connect="1" arrows="1" fold="1" page="1" pageScale="1" pageWidth="827" pageHeight="1169" math="0" shadow="0">
      <root>
        <mxCell id="vVpiDGkbSCTv4L-1f80x-0" />
        <mxCell id="vVpiDGkbSCTv4L-1f80x-1" parent="vVpiDGkbSCTv4L-1f80x-0" />
        <mxCell id="vVpiDGkbSCTv4L-1f80x-2" value="1" style="rounded=0;whiteSpace=wrap;html=1;fontStyle=1;fontSize=19;" parent="vVpiDGkbSCTv4L-1f80x-1" vertex="1">
          <mxGeometry x="-210" y="380" width="40" height="40" as="geometry" />
        </mxCell>
        <mxCell id="vVpiDGkbSCTv4L-1f80x-3" value="" style="endArrow=classic;html=1;exitX=0.5;exitY=1;exitDx=0;exitDy=0;" parent="vVpiDGkbSCTv4L-1f80x-1" source="vVpiDGkbSCTv4L-1f80x-2" edge="1">
          <mxGeometry width="50" height="50" relative="1" as="geometry">
            <mxPoint x="390" y="620" as="sourcePoint" />
            <mxPoint x="-190" y="460" as="targetPoint" />
          </mxGeometry>
        </mxCell>
        <mxCell id="SbyU9w08h1lnXDW3Vi63-4" style="edgeStyle=orthogonalEdgeStyle;rounded=0;orthogonalLoop=1;jettySize=auto;html=1;entryX=0.569;entryY=0.027;entryDx=0;entryDy=0;entryPerimeter=0;fontSize=15;" parent="vVpiDGkbSCTv4L-1f80x-1" source="vVpiDGkbSCTv4L-1f80x-6" target="SbyU9w08h1lnXDW3Vi63-0" edge="1">
          <mxGeometry relative="1" as="geometry" />
        </mxCell>
        <mxCell id="SbyU9w08h1lnXDW3Vi63-6" style="edgeStyle=orthogonalEdgeStyle;rounded=0;orthogonalLoop=1;jettySize=auto;html=1;fontSize=15;" parent="vVpiDGkbSCTv4L-1f80x-1" source="vVpiDGkbSCTv4L-1f80x-6" target="SbyU9w08h1lnXDW3Vi63-1" edge="1">
          <mxGeometry relative="1" as="geometry" />
        </mxCell>
        <mxCell id="vVpiDGkbSCTv4L-1f80x-6" value="&lt;span style=&quot;background-color: light-dark(rgb(153, 204, 255), rgb(255, 255, 255));&quot;&gt;&lt;span style=&quot;font-size: 15px; font-weight: 400; text-align: center;&quot;&gt;1. Aplicación&lt;br&gt;&lt;/span&gt;&lt;span style=&quot;color: rgb(68, 68, 68); font-family: calibri, sans-serif, &amp;quot;mongolian baiti&amp;quot;, &amp;quot;microsoft yi baiti&amp;quot;, &amp;quot;javanese text&amp;quot;, &amp;quot;yu gothic&amp;quot;; font-size: 14.6667px;&quot;&gt;2.&amp;nbsp;&lt;/span&gt;&lt;span style=&quot;font-size: 15px; font-weight: 400; text-align: center;&quot;&gt;Significado de fechas&lt;/span&gt;&lt;/span&gt;&lt;span style=&quot;color: rgb(68, 68, 68); font-family: calibri, sans-serif, &amp;quot;mongolian baiti&amp;quot;, &amp;quot;microsoft yi baiti&amp;quot;, &amp;quot;javanese text&amp;quot;, &amp;quot;yu gothic&amp;quot;; font-size: 14.6667px;&quot;&gt;&lt;br&gt;&lt;/span&gt;" style="shape=callout;whiteSpace=wrap;html=1;perimeter=calloutPerimeter;align=left;fontStyle=1;labelBackgroundColor=#99CCFF;position2=0.51;" parent="vVpiDGkbSCTv4L-1f80x-1" vertex="1">
          <mxGeometry x="64" y="10" width="350" height="130" as="geometry" />
        </mxCell>
        <mxCell id="3d1n-3S8Lbc6DrGkiSIv-9" style="edgeStyle=orthogonalEdgeStyle;rounded=0;orthogonalLoop=1;jettySize=auto;html=1;exitX=0.5;exitY=1;exitDx=0;exitDy=0;fontColor=#000000;" parent="vVpiDGkbSCTv4L-1f80x-1" source="3d1n-3S8Lbc6DrGkiSIv-2" edge="1">
          <mxGeometry relative="1" as="geometry">
            <mxPoint x="220" y="535" as="targetPoint" />
          </mxGeometry>
        </mxCell>
        <mxCell id="3d1n-3S8Lbc6DrGkiSIv-2" value="2" style="rounded=0;whiteSpace=wrap;html=1;fontStyle=1;fontSize=19;" parent="vVpiDGkbSCTv4L-1f80x-1" vertex="1">
          <mxGeometry x="200" y="465" width="40" height="40" as="geometry" />
        </mxCell>
        <mxCell id="3d1n-3S8Lbc6DrGkiSIv-11" style="edgeStyle=orthogonalEdgeStyle;rounded=0;orthogonalLoop=1;jettySize=auto;html=1;exitX=0.5;exitY=1;exitDx=0;exitDy=0;fontColor=#000000;" parent="vVpiDGkbSCTv4L-1f80x-1" source="3d1n-3S8Lbc6DrGkiSIv-3" edge="1">
          <mxGeometry relative="1" as="geometry">
            <mxPoint x="440" y="535" as="targetPoint" />
          </mxGeometry>
        </mxCell>
        <mxCell id="3d1n-3S8Lbc6DrGkiSIv-3" value="3" style="rounded=0;whiteSpace=wrap;html=1;fontStyle=1;fontSize=19;" parent="vVpiDGkbSCTv4L-1f80x-1" vertex="1">
          <mxGeometry x="420" y="465" width="40" height="40" as="geometry" />
        </mxCell>
        <mxCell id="3d1n-3S8Lbc6DrGkiSIv-13" style="edgeStyle=orthogonalEdgeStyle;rounded=0;orthogonalLoop=1;jettySize=auto;html=1;exitX=0.5;exitY=1;exitDx=0;exitDy=0;fontColor=#000000;" parent="vVpiDGkbSCTv4L-1f80x-1" source="3d1n-3S8Lbc6DrGkiSIv-4" edge="1">
          <mxGeometry relative="1" as="geometry">
            <mxPoint x="690" y="535" as="targetPoint" />
          </mxGeometry>
        </mxCell>
        <mxCell id="3d1n-3S8Lbc6DrGkiSIv-4" value="4" style="rounded=0;whiteSpace=wrap;html=1;fontStyle=1;fontSize=19;" parent="vVpiDGkbSCTv4L-1f80x-1" vertex="1">
          <mxGeometry x="670" y="465" width="40" height="40" as="geometry" />
        </mxCell>
        <mxCell id="3d1n-3S8Lbc6DrGkiSIv-15" style="edgeStyle=orthogonalEdgeStyle;rounded=0;orthogonalLoop=1;jettySize=auto;html=1;exitX=0.5;exitY=1;exitDx=0;exitDy=0;fontColor=#000000;" parent="vVpiDGkbSCTv4L-1f80x-1" source="3d1n-3S8Lbc6DrGkiSIv-5" edge="1">
          <mxGeometry relative="1" as="geometry">
            <mxPoint x="910" y="535" as="targetPoint" />
          </mxGeometry>
        </mxCell>
        <mxCell id="3d1n-3S8Lbc6DrGkiSIv-5" value="5" style="rounded=0;whiteSpace=wrap;html=1;fontStyle=1;fontSize=19;" parent="vVpiDGkbSCTv4L-1f80x-1" vertex="1">
          <mxGeometry x="890" y="465" width="40" height="40" as="geometry" />
        </mxCell>
        <mxCell id="3d1n-3S8Lbc6DrGkiSIv-6" value="&lt;h1&gt;&lt;span style=&quot;font-family: calibri, &amp;quot;segoe ui&amp;quot;, calibri, thonburi, arial, verdana, sans-serif, &amp;quot;mongolian baiti&amp;quot;, &amp;quot;microsoft yi baiti&amp;quot;, &amp;quot;javanese text&amp;quot;; font-size: 14.6667px; font-weight: 400;&quot;&gt;- Tiene que estar Autorizado&lt;br&gt;- Debe tener todas las fechas (a menos que sean Partidas Independientes).&lt;br&gt;- Si se indica un MB, el inventario deberá estar en 0.&lt;br&gt;- En caso de que este ligado con otro aviso u otros avisos, todos deberán de cumplir con todas las condiciones anteriores. &lt;br&gt;NOTA: considerar que la fecha de efectividad o autorización deben ser igual o menor al día en que se pide aplicar.&lt;/span&gt;&lt;br&gt;&lt;/h1&gt;" style="text;html=1;strokeColor=none;fillColor=none;spacing=5;spacingTop=-20;whiteSpace=wrap;overflow=hidden;rounded=0;labelBackgroundColor=none;align=left;labelBorderColor=#000000;" parent="vVpiDGkbSCTv4L-1f80x-1" vertex="1">
          <mxGeometry x="-610" y="470" width="530" height="450" as="geometry" />
        </mxCell>
        <mxCell id="3d1n-3S8Lbc6DrGkiSIv-10" value="&lt;h1&gt;&lt;span style=&quot;color: rgb(68 , 68 , 68) ; font-family: &amp;#34;calibri&amp;#34; , sans-serif , &amp;#34;mongolian baiti&amp;#34; , &amp;#34;microsoft yi baiti&amp;#34; , &amp;#34;javanese text&amp;#34; , &amp;#34;yu gothic&amp;#34; ; font-size: 14.6667px ; background-color: rgb(255 , 255 , 255)&quot;&gt;AFP:&lt;/span&gt;&lt;span style=&quot;color: rgb(68 , 68 , 68) ; font-family: &amp;#34;calibri&amp;#34; , sans-serif , &amp;#34;mongolian baiti&amp;#34; , &amp;#34;microsoft yi baiti&amp;#34; , &amp;#34;javanese text&amp;#34; , &amp;#34;yu gothic&amp;#34; ; font-size: 14.6667px ; font-weight: 400 ; background-color: rgb(255 , 255 , 255)&quot;&gt; Actualización de fecha con proveedor, es asignada por desarrollo de proveedores.&lt;/span&gt;&lt;br&gt;&lt;/h1&gt;" style="text;html=1;strokeColor=none;fillColor=none;spacing=5;spacingTop=-20;whiteSpace=wrap;overflow=hidden;rounded=0;labelBackgroundColor=none;fontColor=#000000;align=left;labelBorderColor=#000000;" parent="vVpiDGkbSCTv4L-1f80x-1" vertex="1">
          <mxGeometry x="125" y="545" width="190" height="140" as="geometry" />
        </mxCell>
        <mxCell id="3d1n-3S8Lbc6DrGkiSIv-12" value="&lt;h1&gt;&lt;span style=&quot;color: rgb(68 , 68 , 68) ; font-family: &amp;#34;calibri&amp;#34; , sans-serif , &amp;#34;mongolian baiti&amp;#34; , &amp;#34;microsoft yi baiti&amp;#34; , &amp;#34;javanese text&amp;#34; , &amp;#34;yu gothic&amp;#34; ; font-size: 14.6667px ; background-color: rgb(255 , 255 , 255)&quot;&gt;AFRS:&lt;/span&gt;&lt;span style=&quot;color: rgb(68 , 68 , 68) ; font-family: &amp;#34;calibri&amp;#34; , sans-serif , &amp;#34;mongolian baiti&amp;#34; , &amp;#34;microsoft yi baiti&amp;#34; , &amp;#34;javanese text&amp;#34; , &amp;#34;yu gothic&amp;#34; ; font-size: 14.6667px ; font-weight: 400 ; background-color: rgb(255 , 255 , 255)&quot;&gt; Actualización fecha de revisión en el sistema, es asignada por planeación.&lt;/span&gt;&lt;br&gt;&lt;/h1&gt;" style="text;html=1;strokeColor=none;fillColor=none;spacing=5;spacingTop=-20;whiteSpace=wrap;overflow=hidden;rounded=0;labelBackgroundColor=none;fontColor=#000000;align=left;labelBorderColor=#000000;" parent="vVpiDGkbSCTv4L-1f80x-1" vertex="1">
          <mxGeometry x="345" y="545" width="190" height="140" as="geometry" />
        </mxCell>
        <mxCell id="3d1n-3S8Lbc6DrGkiSIv-14" value="&lt;h1&gt;&lt;/h1&gt;&lt;span style=&quot;color: rgb(68 , 68 , 68) ; font-family: &amp;#34;calibri&amp;#34; , sans-serif , &amp;#34;mongolian baiti&amp;#34; , &amp;#34;microsoft yi baiti&amp;#34; , &amp;#34;javanese text&amp;#34; , &amp;#34;yu gothic&amp;#34; ; font-size: 14.6667px ; background-color: rgb(255 , 255 , 255)&quot;&gt;&lt;b&gt;FEFEC:&lt;/b&gt; Fecha de efectividad en la que está disponible el material, es asignada por planeación.&lt;/span&gt;" style="text;html=1;strokeColor=none;fillColor=none;spacing=5;spacingTop=-20;whiteSpace=wrap;overflow=hidden;rounded=0;labelBackgroundColor=none;fontColor=#000000;align=left;labelBorderColor=#000000;" parent="vVpiDGkbSCTv4L-1f80x-1" vertex="1">
          <mxGeometry x="580" y="545" width="190" height="160" as="geometry" />
        </mxCell>
        <mxCell id="3d1n-3S8Lbc6DrGkiSIv-16" value="&lt;h1&gt;&lt;/h1&gt;&lt;span style=&quot;color: rgb(68 , 68 , 68) ; font-family: &amp;#34;calibri&amp;#34; , sans-serif , &amp;#34;mongolian baiti&amp;#34; , &amp;#34;microsoft yi baiti&amp;#34; , &amp;#34;javanese text&amp;#34; , &amp;#34;yu gothic&amp;#34; ; font-size: 14.6667px ; background-color: rgb(255 , 255 , 255)&quot;&gt;&lt;b&gt;MB:&lt;/b&gt; Marcar para borrado (La asigna planeación o el sistema en automático cuando detecta que ya no se tiene inventario).&lt;/span&gt;" style="text;html=1;strokeColor=none;fillColor=none;spacing=5;spacingTop=-20;whiteSpace=wrap;overflow=hidden;rounded=0;labelBackgroundColor=none;fontColor=#000000;align=left;labelBorderColor=#000000;" parent="vVpiDGkbSCTv4L-1f80x-1" vertex="1">
          <mxGeometry x="800" y="545" width="190" height="160" as="geometry" />
        </mxCell>
        <mxCell id="SbyU9w08h1lnXDW3Vi63-5" style="edgeStyle=orthogonalEdgeStyle;rounded=0;orthogonalLoop=1;jettySize=auto;html=1;entryX=0.5;entryY=0;entryDx=0;entryDy=0;fontSize=15;" parent="vVpiDGkbSCTv4L-1f80x-1" source="SbyU9w08h1lnXDW3Vi63-0" target="vVpiDGkbSCTv4L-1f80x-2" edge="1">
          <mxGeometry relative="1" as="geometry" />
        </mxCell>
        <mxCell id="SbyU9w08h1lnXDW3Vi63-0" value="1. Aplicación" style="rounded=0;whiteSpace=wrap;html=1;fontSize=15;" parent="vVpiDGkbSCTv4L-1f80x-1" vertex="1">
          <mxGeometry x="-130" y="160" width="120" height="60" as="geometry" />
        </mxCell>
        <mxCell id="SbyU9w08h1lnXDW3Vi63-3" value="" style="edgeStyle=orthogonalEdgeStyle;rounded=0;orthogonalLoop=1;jettySize=auto;html=1;fontSize=15;" parent="vVpiDGkbSCTv4L-1f80x-1" source="SbyU9w08h1lnXDW3Vi63-1" target="SbyU9w08h1lnXDW3Vi63-2" edge="1">
          <mxGeometry relative="1" as="geometry" />
        </mxCell>
        <mxCell id="SbyU9w08h1lnXDW3Vi63-1" value="2. Significado de fechas" style="rounded=0;whiteSpace=wrap;html=1;fontSize=15;" parent="vVpiDGkbSCTv4L-1f80x-1" vertex="1">
          <mxGeometry x="480" y="160" width="120" height="60" as="geometry" />
        </mxCell>
        <mxCell id="SbyU9w08h1lnXDW3Vi63-7" style="edgeStyle=orthogonalEdgeStyle;rounded=0;orthogonalLoop=1;jettySize=auto;html=1;fontSize=15;" parent="vVpiDGkbSCTv4L-1f80x-1" source="SbyU9w08h1lnXDW3Vi63-2" target="3d1n-3S8Lbc6DrGkiSIv-2" edge="1">
          <mxGeometry relative="1" as="geometry" />
        </mxCell>
        <mxCell id="SbyU9w08h1lnXDW3Vi63-9" style="edgeStyle=orthogonalEdgeStyle;rounded=0;orthogonalLoop=1;jettySize=auto;html=1;entryX=0.5;entryY=0;entryDx=0;entryDy=0;fontSize=15;" parent="vVpiDGkbSCTv4L-1f80x-1" source="SbyU9w08h1lnXDW3Vi63-2" target="3d1n-3S8Lbc6DrGkiSIv-3" edge="1">
          <mxGeometry relative="1" as="geometry" />
        </mxCell>
        <mxCell id="SbyU9w08h1lnXDW3Vi63-10" style="edgeStyle=orthogonalEdgeStyle;rounded=0;orthogonalLoop=1;jettySize=auto;html=1;entryX=0.5;entryY=0;entryDx=0;entryDy=0;fontSize=15;" parent="vVpiDGkbSCTv4L-1f80x-1" source="SbyU9w08h1lnXDW3Vi63-2" target="3d1n-3S8Lbc6DrGkiSIv-4" edge="1">
          <mxGeometry relative="1" as="geometry" />
        </mxCell>
        <mxCell id="SbyU9w08h1lnXDW3Vi63-11" style="edgeStyle=orthogonalEdgeStyle;rounded=0;orthogonalLoop=1;jettySize=auto;html=1;fontSize=15;" parent="vVpiDGkbSCTv4L-1f80x-1" source="SbyU9w08h1lnXDW3Vi63-2" target="3d1n-3S8Lbc6DrGkiSIv-5" edge="1">
          <mxGeometry relative="1" as="geometry" />
        </mxCell>
        <mxCell id="SbyU9w08h1lnXDW3Vi63-2" value="2.&amp;nbsp;&lt;span style=&quot;color: rgb(68 , 68 , 68) ; font-family: &amp;#34;calibri&amp;#34; , sans-serif , &amp;#34;mongolian baiti&amp;#34; , &amp;#34;microsoft yi baiti&amp;#34; , &amp;#34;javanese text&amp;#34; , &amp;#34;yu gothic&amp;#34; ; font-size: 14.6667px ; font-weight: 700 ; text-align: left&quot;&gt;AFP&amp;nbsp;&lt;br&gt;3. AFRS&lt;br&gt;4. FEFEC&lt;br&gt;5. MB&lt;br&gt;&lt;/span&gt;" style="whiteSpace=wrap;html=1;rounded=0;fontSize=15;" parent="vVpiDGkbSCTv4L-1f80x-1" vertex="1">
          <mxGeometry x="480" y="260" width="120" height="110" as="geometry" />
        </mxCell>
      </root>
    </mxGraphModel>
  </diagram>
  <diagram name="SOL. GARANTÍAS" id="tNUe5tWFO01QcW7D_SEj">
    <mxGraphModel dx="1613" dy="1666" grid="1" gridSize="10" guides="1" tooltips="1" connect="1" arrows="1" fold="1" page="1" pageScale="1" pageWidth="827" pageHeight="1169" math="0" shadow="0">
      <root>
        <mxCell id="h83ZCsJNhsTddXrFmZ4N-0" />
        <mxCell id="h83ZCsJNhsTddXrFmZ4N-1" parent="h83ZCsJNhsTddXrFmZ4N-0" />
        <mxCell id="cWClOL-MO2IXcHaKbF80-3" style="edgeStyle=orthogonalEdgeStyle;rounded=0;orthogonalLoop=1;jettySize=auto;html=1;exitX=0.5;exitY=1;exitDx=0;exitDy=0;fontColor=#000000;" parent="h83ZCsJNhsTddXrFmZ4N-1" source="h83ZCsJNhsTddXrFmZ4N-2" edge="1">
          <mxGeometry relative="1" as="geometry">
            <mxPoint x="-720" y="360" as="targetPoint" />
          </mxGeometry>
        </mxCell>
        <mxCell id="h83ZCsJNhsTddXrFmZ4N-2" value="1" style="rounded=0;whiteSpace=wrap;html=1;fillColor=#dae8fc;strokeColor=#6c8ebf;fontStyle=1;fontSize=19;" parent="h83ZCsJNhsTddXrFmZ4N-1" vertex="1">
          <mxGeometry x="-740" y="305" width="40" height="40" as="geometry" />
        </mxCell>
        <mxCell id="h83ZCsJNhsTddXrFmZ4N-4" value="&lt;span style=&quot;color: rgb(68, 68, 68); font-family: calibri, sans-serif, &amp;quot;mongolian baiti&amp;quot;, &amp;quot;microsoft yi baiti&amp;quot;, &amp;quot;javanese text&amp;quot;, &amp;quot;yu gothic&amp;quot;; font-size: 14.6667px;&quot;&gt;1. ¿Qué se lleva en el centro 7001?&lt;br&gt;2.&amp;nbsp;&lt;/span&gt;&lt;span style=&quot;color: rgb(68, 68, 68); font-family: calibri, sans-serif, &amp;quot;mongolian baiti&amp;quot;, &amp;quot;microsoft yi baiti&amp;quot;, &amp;quot;javanese text&amp;quot;, &amp;quot;yu gothic&amp;quot;; font-size: 14.6667px;&quot;&gt;¿Qué se lleva en el centro 7010?&lt;br&gt;&lt;/span&gt;&lt;span style=&quot;color: rgb(68, 68, 68); font-family: calibri, sans-serif, &amp;quot;mongolian baiti&amp;quot;, &amp;quot;microsoft yi baiti&amp;quot;, &amp;quot;javanese text&amp;quot;, &amp;quot;yu gothic&amp;quot;; font-size: 14.6667px;&quot;&gt;3.&amp;nbsp;&lt;/span&gt;&lt;span style=&quot;color: rgb(68, 68, 68); font-family: calibri, sans-serif, &amp;quot;mongolian baiti&amp;quot;, &amp;quot;microsoft yi baiti&amp;quot;, &amp;quot;javanese text&amp;quot;, &amp;quot;yu gothic&amp;quot;; font-size: 14.6667px;&quot;&gt;¿Qué revisar antes de solicitar una réplica?&lt;br&gt;&lt;/span&gt;&lt;span style=&quot;color: rgb(68, 68, 68); font-family: calibri, sans-serif, &amp;quot;mongolian baiti&amp;quot;, &amp;quot;microsoft yi baiti&amp;quot;, &amp;quot;javanese text&amp;quot;, &amp;quot;yu gothic&amp;quot;; font-size: 14.6667px;&quot;&gt;4.&amp;nbsp;&lt;/span&gt;&lt;span style=&quot;color: rgb(68, 68, 68); font-family: calibri, sans-serif, &amp;quot;mongolian baiti&amp;quot;, &amp;quot;microsoft yi baiti&amp;quot;, &amp;quot;javanese text&amp;quot;, &amp;quot;yu gothic&amp;quot;; font-size: 14.6667px;&quot;&gt;¿Qué almacén y canal de distribución indicar en una réplica?&lt;br&gt;&lt;/span&gt;&lt;span style=&quot;color: rgb(68, 68, 68); font-family: calibri, sans-serif, &amp;quot;mongolian baiti&amp;quot;, &amp;quot;microsoft yi baiti&amp;quot;, &amp;quot;javanese text&amp;quot;, &amp;quot;yu gothic&amp;quot;; font-size: 14.6667px;&quot;&gt;5.&amp;nbsp;&lt;/span&gt;&lt;span style=&quot;color: rgb(68, 68, 68); font-family: calibri, sans-serif, &amp;quot;mongolian baiti&amp;quot;, &amp;quot;microsoft yi baiti&amp;quot;, &amp;quot;javanese text&amp;quot;, &amp;quot;yu gothic&amp;quot;; font-size: 14.6667px;&quot;&gt;¿Con qué configuración se réplica?&lt;br&gt;&lt;/span&gt;&lt;font face=&quot;calibri, sans-serif, mongolian baiti, microsoft yi baiti, javanese text, yu gothic&quot;&gt;&lt;span style=&quot;font-size: 14.6667px;&quot;&gt;6. ¿Cuál es la nota que se debe colocar en la solicitud para replica?&lt;/span&gt;&lt;/font&gt;" style="shape=callout;whiteSpace=wrap;html=1;perimeter=calloutPerimeter;align=left;fontStyle=1;labelBackgroundColor=#99CCFF;position2=0.51;base=15;fillColor=none;" parent="h83ZCsJNhsTddXrFmZ4N-1" vertex="1">
          <mxGeometry x="-540" y="130" width="450" height="150" as="geometry" />
        </mxCell>
        <mxCell id="h83ZCsJNhsTddXrFmZ4N-5" value="" style="endArrow=none;html=1;fontSize=19;entryX=0;entryY=0.25;entryDx=0;entryDy=0;" parent="h83ZCsJNhsTddXrFmZ4N-1" target="cWClOL-MO2IXcHaKbF80-4" edge="1">
          <mxGeometry width="50" height="50" relative="1" as="geometry">
            <mxPoint x="-700" y="305" as="sourcePoint" />
            <mxPoint x="20" y="305" as="targetPoint" />
          </mxGeometry>
        </mxCell>
        <mxCell id="h83ZCsJNhsTddXrFmZ4N-6" style="edgeStyle=orthogonalEdgeStyle;rounded=0;orthogonalLoop=1;jettySize=auto;html=1;exitX=0.5;exitY=1;exitDx=0;exitDy=0;fontColor=#000000;" parent="h83ZCsJNhsTddXrFmZ4N-1" source="h83ZCsJNhsTddXrFmZ4N-7" edge="1">
          <mxGeometry relative="1" as="geometry">
            <mxPoint x="-450" y="375" as="targetPoint" />
          </mxGeometry>
        </mxCell>
        <mxCell id="h83ZCsJNhsTddXrFmZ4N-7" value="2" style="rounded=0;whiteSpace=wrap;html=1;fillColor=#dae8fc;strokeColor=#6c8ebf;fontStyle=1;fontSize=19;" parent="h83ZCsJNhsTddXrFmZ4N-1" vertex="1">
          <mxGeometry x="-470" y="305" width="40" height="40" as="geometry" />
        </mxCell>
        <mxCell id="h83ZCsJNhsTddXrFmZ4N-8" style="edgeStyle=orthogonalEdgeStyle;rounded=0;orthogonalLoop=1;jettySize=auto;html=1;exitX=0.5;exitY=1;exitDx=0;exitDy=0;fontColor=#000000;" parent="h83ZCsJNhsTddXrFmZ4N-1" source="h83ZCsJNhsTddXrFmZ4N-9" edge="1">
          <mxGeometry relative="1" as="geometry">
            <mxPoint x="-230" y="375" as="targetPoint" />
          </mxGeometry>
        </mxCell>
        <mxCell id="h83ZCsJNhsTddXrFmZ4N-9" value="3" style="rounded=0;whiteSpace=wrap;html=1;fillColor=#dae8fc;strokeColor=#6c8ebf;fontStyle=1;fontSize=19;" parent="h83ZCsJNhsTddXrFmZ4N-1" vertex="1">
          <mxGeometry x="-250" y="305" width="40" height="40" as="geometry" />
        </mxCell>
        <mxCell id="h83ZCsJNhsTddXrFmZ4N-10" style="edgeStyle=orthogonalEdgeStyle;rounded=0;orthogonalLoop=1;jettySize=auto;html=1;exitX=0.5;exitY=1;exitDx=0;exitDy=0;fontColor=#000000;" parent="h83ZCsJNhsTddXrFmZ4N-1" source="h83ZCsJNhsTddXrFmZ4N-11" edge="1">
          <mxGeometry relative="1" as="geometry">
            <mxPoint x="20" y="375" as="targetPoint" />
          </mxGeometry>
        </mxCell>
        <mxCell id="h83ZCsJNhsTddXrFmZ4N-11" value="4" style="rounded=0;whiteSpace=wrap;html=1;fillColor=#dae8fc;strokeColor=#6c8ebf;fontStyle=1;fontSize=19;" parent="h83ZCsJNhsTddXrFmZ4N-1" vertex="1">
          <mxGeometry y="305" width="40" height="40" as="geometry" />
        </mxCell>
        <mxCell id="h83ZCsJNhsTddXrFmZ4N-12" style="edgeStyle=orthogonalEdgeStyle;rounded=0;orthogonalLoop=1;jettySize=auto;html=1;exitX=0.5;exitY=1;exitDx=0;exitDy=0;fontColor=#000000;" parent="h83ZCsJNhsTddXrFmZ4N-1" source="h83ZCsJNhsTddXrFmZ4N-13" edge="1">
          <mxGeometry relative="1" as="geometry">
            <mxPoint x="240" y="375" as="targetPoint" />
          </mxGeometry>
        </mxCell>
        <mxCell id="h83ZCsJNhsTddXrFmZ4N-13" value="5" style="rounded=0;whiteSpace=wrap;html=1;fillColor=#dae8fc;strokeColor=#6c8ebf;fontStyle=1;fontSize=19;" parent="h83ZCsJNhsTddXrFmZ4N-1" vertex="1">
          <mxGeometry x="220" y="305" width="40" height="40" as="geometry" />
        </mxCell>
        <mxCell id="h83ZCsJNhsTddXrFmZ4N-14" value="&lt;h1&gt;&lt;span style=&quot;color: rgb(68 , 68 , 68) ; font-family: &amp;#34;calibri&amp;#34; , sans-serif , &amp;#34;mongolian baiti&amp;#34; , &amp;#34;microsoft yi baiti&amp;#34; , &amp;#34;javanese text&amp;#34; , &amp;#34;yu gothic&amp;#34; ; font-size: 14.6667px ; font-weight: 400 ; background-color: rgb(255 , 255 , 255)&quot;&gt;Todo material que se requiera como refacción y subensambles de producción (SpareParts)&lt;/span&gt;&lt;br&gt;&lt;/h1&gt;" style="text;html=1;strokeColor=none;fillColor=none;spacing=5;spacingTop=-20;whiteSpace=wrap;overflow=hidden;rounded=0;labelBackgroundColor=none;align=left;labelBorderColor=#000000;" parent="h83ZCsJNhsTddXrFmZ4N-1" vertex="1">
          <mxGeometry x="-800" y="370" width="190" height="450" as="geometry" />
        </mxCell>
        <mxCell id="h83ZCsJNhsTddXrFmZ4N-15" value="&lt;h1&gt;&lt;span style=&quot;color: rgb(68 , 68 , 68) ; font-family: &amp;#34;calibri&amp;#34; , sans-serif , &amp;#34;mongolian baiti&amp;#34; , &amp;#34;microsoft yi baiti&amp;#34; , &amp;#34;javanese text&amp;#34; , &amp;#34;yu gothic&amp;#34; ; font-size: 14.6667px ; font-weight: 400 ; background-color: rgb(255 , 255 , 255)&quot;&gt;Producto terminado que sea de exportación y spare parts (se configuran como materia prima) para traslado al almacén de Atlanta&lt;/span&gt;&lt;br&gt;&lt;/h1&gt;" style="text;html=1;strokeColor=none;fillColor=none;spacing=5;spacingTop=-20;whiteSpace=wrap;overflow=hidden;rounded=0;labelBackgroundColor=none;fontColor=#000000;align=left;labelBorderColor=#000000;" parent="h83ZCsJNhsTddXrFmZ4N-1" vertex="1">
          <mxGeometry x="-550" y="385" width="190" height="165" as="geometry" />
        </mxCell>
        <mxCell id="h83ZCsJNhsTddXrFmZ4N-16" value="&lt;h1&gt;&lt;span style=&quot;background-color: rgb(255 , 255 , 255)&quot;&gt;&lt;font color=&quot;#444444&quot; face=&quot;calibri, sans-serif, mongolian baiti, microsoft yi baiti, javanese text, yu gothic&quot;&gt;&lt;span style=&quot;font-size: 14.6667px ; font-weight: 400&quot;&gt;Que el material no exista en el centro donde se quiere replicar&amp;nbsp;y que esté liberado en planta (centro 7000)&lt;/span&gt;&lt;/font&gt;&lt;/span&gt;&lt;br&gt;&lt;/h1&gt;" style="text;html=1;strokeColor=none;fillColor=none;spacing=5;spacingTop=-20;whiteSpace=wrap;overflow=hidden;rounded=0;labelBackgroundColor=none;fontColor=#000000;align=left;labelBorderColor=#000000;" parent="h83ZCsJNhsTddXrFmZ4N-1" vertex="1">
          <mxGeometry x="-325" y="385" width="190" height="140" as="geometry" />
        </mxCell>
        <mxCell id="h83ZCsJNhsTddXrFmZ4N-17" value="&lt;h1&gt;&lt;/h1&gt;&lt;span style=&quot;color: rgb(68 , 68 , 68) ; font-family: &amp;#34;calibri&amp;#34; , sans-serif , &amp;#34;mongolian baiti&amp;#34; , &amp;#34;microsoft yi baiti&amp;#34; , &amp;#34;javanese text&amp;#34; , &amp;#34;yu gothic&amp;#34; ; font-size: 14.6667px ; background-color: rgb(255 , 255 , 255)&quot;&gt;Indicar en el almacén 0075 y canal de distribución 02&lt;/span&gt;" style="text;html=1;strokeColor=none;fillColor=none;spacing=5;spacingTop=-20;whiteSpace=wrap;overflow=hidden;rounded=0;labelBackgroundColor=none;fontColor=#000000;align=left;labelBorderColor=#000000;" parent="h83ZCsJNhsTddXrFmZ4N-1" vertex="1">
          <mxGeometry x="-75" y="385" width="190" height="160" as="geometry" />
        </mxCell>
        <mxCell id="h83ZCsJNhsTddXrFmZ4N-18" value="&lt;h1&gt;&lt;/h1&gt;&lt;span style=&quot;background-color: rgb(255 , 255 , 255)&quot;&gt;&lt;font color=&quot;#444444&quot; face=&quot;calibri, sans-serif, mongolian baiti, microsoft yi baiti, javanese text, yu gothic&quot;&gt;&lt;span style=&quot;font-size: 14.6667px&quot;&gt;Todo material se debe replicar&amp;nbsp;como materia prima a excepción de los controles que deben ser producción y las molduras ficticias &lt;/span&gt;&lt;/font&gt;&lt;/span&gt;" style="text;html=1;strokeColor=none;fillColor=none;spacing=5;spacingTop=-20;whiteSpace=wrap;overflow=hidden;rounded=0;labelBackgroundColor=none;fontColor=#000000;align=left;labelBorderColor=#000000;" parent="h83ZCsJNhsTddXrFmZ4N-1" vertex="1">
          <mxGeometry x="130" y="385" width="190" height="160" as="geometry" />
        </mxCell>
        <mxCell id="cWClOL-MO2IXcHaKbF80-1" style="edgeStyle=orthogonalEdgeStyle;rounded=0;orthogonalLoop=1;jettySize=auto;html=1;exitX=0.5;exitY=1;exitDx=0;exitDy=0;fontColor=#000000;" parent="h83ZCsJNhsTddXrFmZ4N-1" source="cWClOL-MO2IXcHaKbF80-0" edge="1">
          <mxGeometry relative="1" as="geometry">
            <mxPoint x="-380" y="140" as="targetPoint" />
          </mxGeometry>
        </mxCell>
        <mxCell id="cWClOL-MO2IXcHaKbF80-0" value="1. Réplica de materiales" style="ellipse;whiteSpace=wrap;html=1;labelBackgroundColor=none;fontColor=#000000;align=left;" parent="h83ZCsJNhsTddXrFmZ4N-1" vertex="1">
          <mxGeometry x="-440" y="10" width="120" height="80" as="geometry" />
        </mxCell>
        <mxCell id="cWClOL-MO2IXcHaKbF80-5" style="edgeStyle=orthogonalEdgeStyle;rounded=0;orthogonalLoop=1;jettySize=auto;html=1;exitX=0.5;exitY=1;exitDx=0;exitDy=0;fontColor=#000000;" parent="h83ZCsJNhsTddXrFmZ4N-1" source="cWClOL-MO2IXcHaKbF80-4" edge="1">
          <mxGeometry relative="1" as="geometry">
            <mxPoint x="394" y="370" as="targetPoint" />
          </mxGeometry>
        </mxCell>
        <mxCell id="cWClOL-MO2IXcHaKbF80-4" value="6" style="rounded=0;whiteSpace=wrap;html=1;fillColor=#dae8fc;strokeColor=#6c8ebf;fontStyle=1;fontSize=19;" parent="h83ZCsJNhsTddXrFmZ4N-1" vertex="1">
          <mxGeometry x="374" y="305" width="40" height="40" as="geometry" />
        </mxCell>
        <mxCell id="cWClOL-MO2IXcHaKbF80-8" value="&#xa;&#xa;&lt;span style=&quot;color: rgb(68, 68, 68); font-family: calibri, sans-serif, &amp;quot;mongolian baiti&amp;quot;, &amp;quot;microsoft yi baiti&amp;quot;, &amp;quot;javanese text&amp;quot;, &amp;quot;yu gothic&amp;quot;; font-size: 14.6667px; font-style: normal; font-weight: 400; letter-spacing: normal; text-align: left; text-indent: 0px; text-transform: none; word-spacing: 0px; background-color: rgb(255, 255, 255); display: inline; float: none;&quot;&gt;Liberar información bajo especificaciones de planta en centro 7001&lt;/span&gt;&#xa;&#xa;" style="text;html=1;strokeColor=none;fillColor=none;spacing=5;spacingTop=-20;whiteSpace=wrap;overflow=hidden;rounded=0;labelBackgroundColor=none;fontColor=#000000;align=left;labelBorderColor=#000000;" parent="h83ZCsJNhsTddXrFmZ4N-1" vertex="1">
          <mxGeometry x="320" y="385" width="190" height="160" as="geometry" />
        </mxCell>
        <mxCell id="cWClOL-MO2IXcHaKbF80-10" style="edgeStyle=orthogonalEdgeStyle;rounded=0;orthogonalLoop=1;jettySize=auto;html=1;exitX=0.5;exitY=1;exitDx=0;exitDy=0;fontColor=#000000;" parent="h83ZCsJNhsTddXrFmZ4N-1" source="cWClOL-MO2IXcHaKbF80-9" edge="1">
          <mxGeometry relative="1" as="geometry">
            <mxPoint x="860" y="237" as="targetPoint" />
          </mxGeometry>
        </mxCell>
        <mxCell id="cWClOL-MO2IXcHaKbF80-9" value="2. Liberación" style="ellipse;whiteSpace=wrap;html=1;labelBackgroundColor=none;fontColor=#000000;align=center;" parent="h83ZCsJNhsTddXrFmZ4N-1" vertex="1">
          <mxGeometry x="800" y="107" width="120" height="80" as="geometry" />
        </mxCell>
        <mxCell id="cWClOL-MO2IXcHaKbF80-11" value="&lt;font color=&quot;#444444&quot; face=&quot;calibri, sans-serif, mongolian baiti, microsoft yi baiti, javanese text, yu gothic&quot;&gt;&lt;span style=&quot;font-size: 14.6667px&quot;&gt;1.&amp;nbsp;&lt;/span&gt;&lt;/font&gt;&lt;span style=&quot;color: rgb(68 , 68 , 68) ; font-family: &amp;#34;calibri&amp;#34; , sans-serif , &amp;#34;mongolian baiti&amp;#34; , &amp;#34;microsoft yi baiti&amp;#34; , &amp;#34;javanese text&amp;#34; , &amp;#34;yu gothic&amp;#34; ; font-size: 14.6667px ; font-weight: 400 ; background-color: rgb(255 , 255 , 255)&quot;&gt;¿Cuáles son las consideraciones para planos exclusivos de garantías?&lt;/span&gt;" style="shape=callout;whiteSpace=wrap;html=1;perimeter=calloutPerimeter;fillColor=#dae8fc;strokeColor=#6c8ebf;align=left;fontStyle=1;labelBackgroundColor=#99CCFF;position2=0.51;base=15;" parent="h83ZCsJNhsTddXrFmZ4N-1" vertex="1">
          <mxGeometry x="650" y="230" width="450" height="150" as="geometry" />
        </mxCell>
        <mxCell id="cWClOL-MO2IXcHaKbF80-14" value="Cuando se libere&amp;nbsp;&lt;span style=&quot;color: rgb(68 , 68 , 68) ; font-family: &amp;#34;calibri&amp;#34; , sans-serif , &amp;#34;mongolian baiti&amp;#34; , &amp;#34;microsoft yi baiti&amp;#34; , &amp;#34;javanese text&amp;#34; , &amp;#34;yu gothic&amp;#34; ; font-size: 14.6667px ; background-color: rgb(255 , 255 , 255)&quot;&gt;o modifique un número de parte exclusivo de garantías se deberá colocar al final del folio la letra G&lt;/span&gt;" style="text;html=1;strokeColor=none;fillColor=none;spacing=5;spacingTop=-20;whiteSpace=wrap;overflow=hidden;rounded=0;labelBackgroundColor=none;fontColor=#000000;align=left;labelBorderColor=#000000;" parent="h83ZCsJNhsTddXrFmZ4N-1" vertex="1">
          <mxGeometry x="760" y="410" width="240" height="180" as="geometry" />
        </mxCell>
        <mxCell id="jYXvJrl9BM74R14LY9E7-1" style="edgeStyle=orthogonalEdgeStyle;rounded=0;orthogonalLoop=1;jettySize=auto;html=1;fontSize=15;" parent="h83ZCsJNhsTddXrFmZ4N-1" source="jYXvJrl9BM74R14LY9E7-0" target="cWClOL-MO2IXcHaKbF80-0" edge="1">
          <mxGeometry relative="1" as="geometry" />
        </mxCell>
        <mxCell id="jYXvJrl9BM74R14LY9E7-2" style="edgeStyle=orthogonalEdgeStyle;rounded=0;orthogonalLoop=1;jettySize=auto;html=1;fontSize=15;" parent="h83ZCsJNhsTddXrFmZ4N-1" source="jYXvJrl9BM74R14LY9E7-0" target="cWClOL-MO2IXcHaKbF80-9" edge="1">
          <mxGeometry relative="1" as="geometry" />
        </mxCell>
        <mxCell id="jYXvJrl9BM74R14LY9E7-0" value="1. Réplicas&lt;br&gt;2. Liberación" style="rounded=0;whiteSpace=wrap;html=1;fontSize=15;" parent="h83ZCsJNhsTddXrFmZ4N-1" vertex="1">
          <mxGeometry x="254" y="-100" width="120" height="60" as="geometry" />
        </mxCell>
      </root>
    </mxGraphModel>
  </diagram>
  <diagram id="M-SpBoQDapPKxa1CvpDH" name="Ajustes Folios PRO y IT">
    <mxGraphModel dx="786" dy="497" grid="1" gridSize="10" guides="1" tooltips="1" connect="1" arrows="1" fold="1" page="1" pageScale="1" pageWidth="850" pageHeight="1100" math="0" shadow="0">
      <root>
        <mxCell id="RgXkD2lbaGnpkpuc-eOh-0" />
        <mxCell id="RgXkD2lbaGnpkpuc-eOh-1" parent="RgXkD2lbaGnpkpuc-eOh-0" />
        <mxCell id="GoRfoh26bEN_1_MXFB8m-0" value="Ajustes" style="rounded=1;whiteSpace=wrap;html=1;fontSize=12;glass=0;strokeWidth=1;shadow=0;" parent="RgXkD2lbaGnpkpuc-eOh-1" vertex="1">
          <mxGeometry x="340" y="70" width="120" height="40" as="geometry" />
        </mxCell>
        <mxCell id="GoRfoh26bEN_1_MXFB8m-1" value="MENU&lt;br&gt;1. Ajuste IT PLANNER&lt;br&gt;2.Ajuste sin utilización" style="rounded=1;whiteSpace=wrap;html=1;fontSize=12;glass=0;strokeWidth=1;shadow=0;" parent="RgXkD2lbaGnpkpuc-eOh-1" vertex="1">
          <mxGeometry x="330" y="160" width="140" height="60" as="geometry" />
        </mxCell>
        <mxCell id="GoRfoh26bEN_1_MXFB8m-2" value="&lt;br&gt;El equipo tiene que estar en estado PRO&lt;br&gt;y&lt;br&gt;La tarea de costos no debe de estar cerrada en el plan de trabajo" style="rounded=1;whiteSpace=wrap;html=1;fontSize=12;glass=0;strokeWidth=1;shadow=0;" parent="RgXkD2lbaGnpkpuc-eOh-1" vertex="1">
          <mxGeometry x="200" y="280" width="120" height="110" as="geometry" />
        </mxCell>
        <mxCell id="GoRfoh26bEN_1_MXFB8m-3" value="" style="endArrow=classic;html=1;" parent="RgXkD2lbaGnpkpuc-eOh-1" edge="1">
          <mxGeometry width="50" height="50" relative="1" as="geometry">
            <mxPoint x="261" y="240" as="sourcePoint" />
            <mxPoint x="261" y="280" as="targetPoint" />
          </mxGeometry>
        </mxCell>
        <mxCell id="GoRfoh26bEN_1_MXFB8m-4" value="" style="endArrow=classic;html=1;entryX=0.308;entryY=0;entryDx=0;entryDy=0;entryPerimeter=0;" parent="RgXkD2lbaGnpkpuc-eOh-1" edge="1">
          <mxGeometry width="50" height="50" relative="1" as="geometry">
            <mxPoint x="542" y="240" as="sourcePoint" />
            <mxPoint x="541.96" y="280" as="targetPoint" />
          </mxGeometry>
        </mxCell>
        <mxCell id="GoRfoh26bEN_1_MXFB8m-5" value="1" style="ellipse;whiteSpace=wrap;html=1;" parent="RgXkD2lbaGnpkpuc-eOh-1" vertex="1">
          <mxGeometry x="250" y="220" width="30" height="20" as="geometry" />
        </mxCell>
        <mxCell id="GoRfoh26bEN_1_MXFB8m-6" value="2" style="ellipse;whiteSpace=wrap;html=1;" parent="RgXkD2lbaGnpkpuc-eOh-1" vertex="1">
          <mxGeometry x="520" y="220" width="30" height="20" as="geometry" />
        </mxCell>
        <mxCell id="GoRfoh26bEN_1_MXFB8m-7" value="" style="endArrow=classic;html=1;exitX=0.5;exitY=1;exitDx=0;exitDy=0;" parent="RgXkD2lbaGnpkpuc-eOh-1" source="GoRfoh26bEN_1_MXFB8m-0" target="GoRfoh26bEN_1_MXFB8m-1" edge="1">
          <mxGeometry width="50" height="50" relative="1" as="geometry">
            <mxPoint x="300" y="360" as="sourcePoint" />
            <mxPoint x="350" y="310" as="targetPoint" />
          </mxGeometry>
        </mxCell>
        <mxCell id="GoRfoh26bEN_1_MXFB8m-8" value="" style="endArrow=none;html=1;" parent="RgXkD2lbaGnpkpuc-eOh-1" edge="1">
          <mxGeometry width="50" height="50" relative="1" as="geometry">
            <mxPoint x="260" y="240" as="sourcePoint" />
            <mxPoint x="540" y="240" as="targetPoint" />
          </mxGeometry>
        </mxCell>
        <mxCell id="GoRfoh26bEN_1_MXFB8m-9" value="" style="endArrow=classic;html=1;" parent="RgXkD2lbaGnpkpuc-eOh-1" edge="1">
          <mxGeometry width="50" height="50" relative="1" as="geometry">
            <mxPoint x="399.5" y="220" as="sourcePoint" />
            <mxPoint x="400" y="240" as="targetPoint" />
          </mxGeometry>
        </mxCell>
        <mxCell id="GoRfoh26bEN_1_MXFB8m-10" value="&lt;br&gt;El sub-ensamble no esta liberado y&lt;br&gt;no tenga utilización" style="rounded=1;whiteSpace=wrap;html=1;fontSize=12;glass=0;strokeWidth=1;shadow=0;" parent="RgXkD2lbaGnpkpuc-eOh-1" vertex="1">
          <mxGeometry x="490" y="280" width="120" height="60" as="geometry" />
        </mxCell>
      </root>
    </mxGraphModel>
  </diagram>
  <diagram id="fUwnHYFHqpIb6uxigT5R" name="BOMS">
    <mxGraphModel dx="786" dy="2835" grid="1" gridSize="10" guides="1" tooltips="1" connect="1" arrows="1" fold="1" page="1" pageScale="1" pageWidth="827" pageHeight="1169" math="0" shadow="0">
      <root>
        <mxCell id="98hlSpwaoAq8b1N6rRqg-0" />
        <mxCell id="98hlSpwaoAq8b1N6rRqg-1" parent="98hlSpwaoAq8b1N6rRqg-0" />
        <mxCell id="Q_xapoinyMw14eubzDcg-41" style="edgeStyle=orthogonalEdgeStyle;rounded=0;orthogonalLoop=1;jettySize=auto;html=1;entryX=0.5;entryY=0;entryDx=0;entryDy=0;fontSize=10;" parent="98hlSpwaoAq8b1N6rRqg-1" source="JUHGBb6j9uFDePD9bZK6-0" target="Q_xapoinyMw14eubzDcg-22" edge="1">
          <mxGeometry relative="1" as="geometry" />
        </mxCell>
        <mxCell id="Q_xapoinyMw14eubzDcg-42" style="edgeStyle=orthogonalEdgeStyle;rounded=0;orthogonalLoop=1;jettySize=auto;html=1;entryX=0.5;entryY=0;entryDx=0;entryDy=0;fontSize=10;" parent="98hlSpwaoAq8b1N6rRqg-1" source="JUHGBb6j9uFDePD9bZK6-0" target="Q_xapoinyMw14eubzDcg-0" edge="1">
          <mxGeometry relative="1" as="geometry">
            <Array as="points">
              <mxPoint x="815" y="-830" />
              <mxPoint x="95" y="-830" />
            </Array>
          </mxGeometry>
        </mxCell>
        <mxCell id="Q_xapoinyMw14eubzDcg-43" style="edgeStyle=orthogonalEdgeStyle;rounded=0;orthogonalLoop=1;jettySize=auto;html=1;entryX=0.5;entryY=0;entryDx=0;entryDy=0;fontSize=10;" parent="98hlSpwaoAq8b1N6rRqg-1" source="JUHGBb6j9uFDePD9bZK6-0" target="Q_xapoinyMw14eubzDcg-9" edge="1">
          <mxGeometry relative="1" as="geometry">
            <Array as="points">
              <mxPoint x="815" y="-830" />
              <mxPoint x="275" y="-830" />
            </Array>
          </mxGeometry>
        </mxCell>
        <mxCell id="Q_xapoinyMw14eubzDcg-44" style="edgeStyle=orthogonalEdgeStyle;rounded=0;orthogonalLoop=1;jettySize=auto;html=1;fontSize=10;" parent="98hlSpwaoAq8b1N6rRqg-1" source="JUHGBb6j9uFDePD9bZK6-0" target="Q_xapoinyMw14eubzDcg-12" edge="1">
          <mxGeometry relative="1" as="geometry">
            <Array as="points">
              <mxPoint x="815" y="-830" />
              <mxPoint x="455" y="-830" />
            </Array>
          </mxGeometry>
        </mxCell>
        <mxCell id="Q_xapoinyMw14eubzDcg-45" style="edgeStyle=orthogonalEdgeStyle;rounded=0;orthogonalLoop=1;jettySize=auto;html=1;fontSize=10;" parent="98hlSpwaoAq8b1N6rRqg-1" source="JUHGBb6j9uFDePD9bZK6-0" target="Q_xapoinyMw14eubzDcg-18" edge="1">
          <mxGeometry relative="1" as="geometry">
            <Array as="points">
              <mxPoint x="815" y="-830" />
              <mxPoint x="635" y="-830" />
            </Array>
          </mxGeometry>
        </mxCell>
        <mxCell id="Q_xapoinyMw14eubzDcg-46" style="edgeStyle=orthogonalEdgeStyle;rounded=0;orthogonalLoop=1;jettySize=auto;html=1;entryX=0.5;entryY=0;entryDx=0;entryDy=0;fontSize=10;" parent="98hlSpwaoAq8b1N6rRqg-1" source="JUHGBb6j9uFDePD9bZK6-0" target="Q_xapoinyMw14eubzDcg-25" edge="1">
          <mxGeometry relative="1" as="geometry">
            <Array as="points">
              <mxPoint x="815" y="-830" />
              <mxPoint x="995" y="-830" />
            </Array>
          </mxGeometry>
        </mxCell>
        <mxCell id="Q_xapoinyMw14eubzDcg-47" style="edgeStyle=orthogonalEdgeStyle;rounded=0;orthogonalLoop=1;jettySize=auto;html=1;entryX=0.5;entryY=0;entryDx=0;entryDy=0;fontSize=10;" parent="98hlSpwaoAq8b1N6rRqg-1" source="JUHGBb6j9uFDePD9bZK6-0" target="Q_xapoinyMw14eubzDcg-30" edge="1">
          <mxGeometry relative="1" as="geometry">
            <Array as="points">
              <mxPoint x="815" y="-830" />
              <mxPoint x="1175" y="-830" />
            </Array>
          </mxGeometry>
        </mxCell>
        <mxCell id="Q_xapoinyMw14eubzDcg-48" style="edgeStyle=orthogonalEdgeStyle;rounded=0;orthogonalLoop=1;jettySize=auto;html=1;entryX=0.5;entryY=0;entryDx=0;entryDy=0;fontSize=10;" parent="98hlSpwaoAq8b1N6rRqg-1" source="JUHGBb6j9uFDePD9bZK6-0" target="Q_xapoinyMw14eubzDcg-34" edge="1">
          <mxGeometry relative="1" as="geometry">
            <Array as="points">
              <mxPoint x="815" y="-830" />
              <mxPoint x="1355" y="-830" />
            </Array>
          </mxGeometry>
        </mxCell>
        <mxCell id="Q_xapoinyMw14eubzDcg-49" style="edgeStyle=orthogonalEdgeStyle;rounded=0;orthogonalLoop=1;jettySize=auto;html=1;entryX=0.5;entryY=0;entryDx=0;entryDy=0;fontSize=10;" parent="98hlSpwaoAq8b1N6rRqg-1" source="JUHGBb6j9uFDePD9bZK6-0" target="Q_xapoinyMw14eubzDcg-37" edge="1">
          <mxGeometry relative="1" as="geometry">
            <Array as="points">
              <mxPoint x="815" y="-830" />
              <mxPoint x="1535" y="-830" />
            </Array>
          </mxGeometry>
        </mxCell>
        <mxCell id="JUHGBb6j9uFDePD9bZK6-0" value="&lt;p class=&quot;MsoListParagraphCxSpFirst&quot; style=&quot;text-align: justify ; text-indent: -18pt ; font-size: 11px&quot;&gt;1.&lt;span style=&quot;font-stretch: normal ; line-height: normal ; font-family: &amp;#34;times new roman&amp;#34;&quot;&gt;&amp;nbsp;&amp;nbsp;&amp;nbsp;&amp;nbsp;&amp;nbsp;&amp;nbsp;&amp;nbsp;&lt;/span&gt;¿Cuándo solicitar un nuevo configurable con su PTO BASE y variante?&lt;/p&gt;&lt;p class=&quot;MsoListParagraphCxSpMiddle&quot; style=&quot;text-align: justify ; text-indent: -18pt ; font-size: 11px&quot;&gt;2. Variante&lt;span style=&quot;font-stretch: normal ; line-height: normal ; font-family: &amp;#34;times new roman&amp;#34;&quot;&gt;&amp;nbsp;&amp;nbsp;&lt;/span&gt;&lt;/p&gt;&lt;p class=&quot;MsoListParagraphCxSpMiddle&quot; style=&quot;text-align: justify ; text-indent: -18pt ; font-size: 11px&quot;&gt;&lt;span style=&quot;text-indent: -18pt&quot;&gt;&lt;font face=&quot;times new roman&quot;&gt;2.1&amp;nbsp;&lt;/font&gt;¿Cómo saber si la estructura está preparada para generar un variante (con ensambles&lt;/span&gt;&lt;/p&gt;&lt;p class=&quot;MsoListParagraphCxSpMiddle&quot; style=&quot;text-align: justify ; text-indent: -18pt ; font-size: 11px&quot;&gt;BTO)?&lt;/p&gt;&lt;p class=&quot;MsoListParagraphCxSpMiddle&quot; style=&quot;text-align: justify ; text-indent: -18pt ; font-size: 11px&quot;&gt;3.&lt;span style=&quot;font-stretch: normal ; line-height: normal ; font-family: &amp;#34;times new roman&amp;#34;&quot;&gt;&amp;nbsp;&amp;nbsp;&amp;nbsp;&amp;nbsp;&amp;nbsp;&amp;nbsp;&amp;nbsp;&lt;/span&gt;¿Dónde puedo consultar la nomenclatura de producto terminado?&lt;/p&gt;&lt;p class=&quot;MsoListParagraphCxSpMiddle&quot; style=&quot;text-align: justify ; text-indent: -18pt ; font-size: 11px&quot;&gt;4.&lt;span style=&quot;font-stretch: normal ; line-height: normal ; font-family: &amp;#34;times new roman&amp;#34;&quot;&gt;&amp;nbsp;&amp;nbsp;&amp;nbsp;&amp;nbsp;&amp;nbsp;&amp;nbsp;&amp;nbsp;&lt;/span&gt;¿Qué hacer si quiero agregar un nuevo ensamble o material que no está indicado en la&lt;br&gt;guía de BTO?&lt;/p&gt;&lt;p class=&quot;MsoListParagraphCxSpMiddle&quot; style=&quot;text-align: justify ; text-indent: -18pt ; font-size: 11px&quot;&gt;5. GAE&lt;/p&gt;&lt;p class=&quot;MsoListParagraphCxSpMiddle&quot; style=&quot;text-align: justify ; text-indent: -18pt ; font-size: 11px&quot;&gt;5.&lt;span style=&quot;font-stretch: normal ; line-height: normal ; font-family: &amp;#34;times new roman&amp;#34;&quot;&gt;&amp;nbsp;1&amp;nbsp; &amp;nbsp; &amp;nbsp;&amp;nbsp;&lt;/span&gt;¿Cuándo se puede usar un GAE existente?&lt;/p&gt;&lt;p class=&quot;MsoListParagraphCxSpMiddle&quot; style=&quot;text-align: justify ; text-indent: -18pt ; font-size: 11px&quot;&gt;&lt;span style=&quot;font-stretch: normal ; line-height: normal&quot;&gt;5.2&lt;/span&gt;&lt;span style=&quot;font-stretch: normal ; line-height: normal ; font-family: &amp;#34;times new roman&amp;#34;&quot;&gt;&amp;nbsp; &amp;nbsp;&amp;nbsp;&lt;/span&gt;¿Cuándo solicitar un nuevo GAE?&lt;/p&gt;&lt;p class=&quot;MsoListParagraphCxSpMiddle&quot; style=&quot;text-align: justify ; text-indent: -18pt ; font-size: 11px&quot;&gt;6. Configuración&lt;span style=&quot;font-stretch: normal ; line-height: normal ; font-family: &amp;#34;times new roman&amp;#34;&quot;&gt;&amp;nbsp;&amp;nbsp;&amp;nbsp;&amp;nbsp;&amp;nbsp;&amp;nbsp;&lt;/span&gt;&lt;/p&gt;&lt;p class=&quot;MsoListParagraphCxSpMiddle&quot; style=&quot;text-align: justify ; text-indent: -18pt ; font-size: 11px&quot;&gt;&lt;span style=&quot;font-stretch: normal ; line-height: normal ; font-family: &amp;#34;times new roman&amp;#34;&quot;&gt;&amp;nbsp;6.1&amp;nbsp;&lt;/span&gt;¿Cuándo solicitar la configuración Make to Order?&lt;/p&gt;&lt;p class=&quot;MsoListParagraphCxSpMiddle&quot; style=&quot;text-align: justify ; text-indent: -18pt ; font-size: 11px&quot;&gt;6.2.&lt;span style=&quot;font-stretch: normal ; line-height: normal ; font-family: &amp;#34;times new roman&amp;#34;&quot;&gt;&amp;nbsp;&amp;nbsp;&amp;nbsp;&amp;nbsp;&amp;nbsp;&amp;nbsp;&amp;nbsp;&lt;/span&gt;¿Cuándo indicar el campo Inf.Fabricación?&lt;/p&gt;&lt;p class=&quot;MsoListParagraphCxSpLast&quot; style=&quot;text-align: justify ; text-indent: -18pt ; font-size: 11px&quot;&gt;&lt;span style=&quot;font-stretch: normal ; line-height: normal&quot;&gt;2.2&lt;/span&gt;&lt;span style=&quot;font-stretch: normal ; line-height: normal ; font-family: &amp;#34;times new roman&amp;#34;&quot;&gt;&amp;nbsp; &amp;nbsp; &amp;nbsp; &amp;nbsp;&lt;/span&gt;¿Cuándo aplica generar un variante?&lt;/p&gt;" style="shape=callout;whiteSpace=wrap;html=1;perimeter=calloutPerimeter;" parent="98hlSpwaoAq8b1N6rRqg-1" vertex="1">
          <mxGeometry x="530" y="-1220" width="640" height="370" as="geometry" />
        </mxCell>
        <mxCell id="Q_xapoinyMw14eubzDcg-2" value="" style="group;align=left;fontStyle=1;fontSize=8;" parent="98hlSpwaoAq8b1N6rRqg-1" vertex="1" connectable="0">
          <mxGeometry x="10" y="-750" width="190" height="230" as="geometry" />
        </mxCell>
        <mxCell id="Q_xapoinyMw14eubzDcg-0" value="&lt;p class=&quot;MsoListParagraphCxSpFirst&quot; style=&quot;text-indent: -18pt; font-size: 10px;&quot;&gt;&lt;/p&gt;&lt;ol style=&quot;font-size: 10px;&quot;&gt;&lt;li style=&quot;text-align: left; font-size: 10px;&quot;&gt;Cuando se tenga un nuevo modelo.&lt;/li&gt;&lt;li style=&quot;text-align: left; font-size: 10px;&quot;&gt;Cuando cambie o sea un nuevo sistema de refrigeración.&lt;/li&gt;&lt;li style=&quot;text-align: left; font-size: 10px;&quot;&gt;Cuando cambie el tipo de control.&lt;/li&gt;&lt;li style=&quot;text-align: left; font-size: 10px;&quot;&gt;Cuando la construcción tiene requerimientos específicos (ejemplo: cambia por barrenos de antena u otros componentes, es tipo NGD, más frío, etc.).&lt;/li&gt;&lt;/ol&gt;" style="whiteSpace=wrap;html=1;aspect=fixed;fontSize=10;" parent="Q_xapoinyMw14eubzDcg-2" vertex="1">
          <mxGeometry y="18.4" width="170" height="170" as="geometry" />
        </mxCell>
        <mxCell id="Q_xapoinyMw14eubzDcg-1" value="&lt;b&gt;1&lt;/b&gt;" style="text;html=1;strokeColor=none;fillColor=none;align=center;verticalAlign=middle;whiteSpace=wrap;rounded=0;" parent="Q_xapoinyMw14eubzDcg-2" vertex="1">
          <mxGeometry width="31.55709342560554" height="15.86206896551724" as="geometry" />
        </mxCell>
        <mxCell id="Q_xapoinyMw14eubzDcg-8" value="" style="group;align=left;fontStyle=1;fontSize=8;" parent="98hlSpwaoAq8b1N6rRqg-1" vertex="1" connectable="0">
          <mxGeometry x="190" y="-750" width="260" height="240" as="geometry" />
        </mxCell>
        <mxCell id="Q_xapoinyMw14eubzDcg-9" value="&lt;p class=&quot;MsoListParagraphCxSpFirst&quot; style=&quot;text-indent: -18pt ; font-size: 10px&quot;&gt;&lt;/p&gt;&lt;div style=&quot;text-align: left&quot;&gt;&lt;p class=&quot;MsoNormal&quot;&gt;Que en estructura contenga subensambles (ejemplo SE GAB, SE&lt;br/&gt;ARNES, SE ILUM, SE CONTROL, etc).&lt;/p&gt;&lt;/div&gt;" style="whiteSpace=wrap;html=1;aspect=fixed;fontSize=10;" parent="Q_xapoinyMw14eubzDcg-8" vertex="1">
          <mxGeometry y="18.4" width="170" height="170" as="geometry" />
        </mxCell>
        <mxCell id="Q_xapoinyMw14eubzDcg-10" value="&lt;b&gt;2.1&lt;/b&gt;" style="text;html=1;strokeColor=none;fillColor=none;align=center;verticalAlign=middle;whiteSpace=wrap;rounded=0;" parent="Q_xapoinyMw14eubzDcg-8" vertex="1">
          <mxGeometry width="31.55709342560554" height="15.86206896551724" as="geometry" />
        </mxCell>
        <mxCell id="Q_xapoinyMw14eubzDcg-11" value="" style="group;align=left;fontStyle=1;fontSize=8;" parent="Q_xapoinyMw14eubzDcg-8" vertex="1" connectable="0">
          <mxGeometry x="180" width="190" height="230" as="geometry" />
        </mxCell>
        <mxCell id="Q_xapoinyMw14eubzDcg-12" value="&lt;p class=&quot;MsoListParagraphCxSpFirst&quot; style=&quot;text-indent: -18pt ; font-size: 10px&quot;&gt;&lt;/p&gt;&lt;div&gt;&lt;p class=&quot;MsoNormal&quot;&gt;&lt;/p&gt;&lt;ol&gt;&lt;li style=&quot;text-align: left&quot;&gt;Nomenclatura nueva (Manuales&amp;gt;Carpetas&amp;gt;Info-tool&amp;gt;GuiaNomenclaturaPT_00)&lt;/li&gt;&lt;li style=&quot;text-align: left&quot;&gt;Nomenclatura anterior (Manuales&amp;gt;Carpetas&amp;gt;Info-tool&amp;gt;GuiaNomenclaturaPT_ANTERIOR_00)&lt;/li&gt;&lt;/ol&gt;&lt;p&gt;&lt;/p&gt;&lt;/div&gt;" style="whiteSpace=wrap;html=1;aspect=fixed;fontSize=10;labelBorderColor=none;labelBackgroundColor=none;" parent="Q_xapoinyMw14eubzDcg-11" vertex="1">
          <mxGeometry y="18.4" width="170" height="170" as="geometry" />
        </mxCell>
        <mxCell id="Q_xapoinyMw14eubzDcg-13" value="&lt;b&gt;3&lt;/b&gt;" style="text;html=1;strokeColor=none;fillColor=none;align=center;verticalAlign=middle;whiteSpace=wrap;rounded=0;" parent="Q_xapoinyMw14eubzDcg-11" vertex="1">
          <mxGeometry width="31.55709342560554" height="15.86206896551724" as="geometry" />
        </mxCell>
        <mxCell id="Q_xapoinyMw14eubzDcg-17" value="" style="group;align=left;fontStyle=1;fontSize=8;" parent="98hlSpwaoAq8b1N6rRqg-1" vertex="1" connectable="0">
          <mxGeometry x="550" y="-750" width="190" height="230" as="geometry" />
        </mxCell>
        <mxCell id="Q_xapoinyMw14eubzDcg-18" value="&lt;p class=&quot;MsoListParagraphCxSpFirst&quot; style=&quot;text-indent: -18pt ; font-size: 10px&quot;&gt;&lt;/p&gt;&lt;div&gt;&lt;p class=&quot;MsoNormal&quot;&gt;&lt;/p&gt;&lt;ol&gt;&lt;li style=&quot;text-align: left&quot;&gt;Agregar URL con imágen&lt;/li&gt;&lt;/ol&gt;&lt;p&gt;&lt;/p&gt;&lt;/div&gt;" style="whiteSpace=wrap;html=1;aspect=fixed;fontSize=10;labelBorderColor=none;labelBackgroundColor=none;fillColor=#d5e8d4;strokeColor=#82b366;" parent="Q_xapoinyMw14eubzDcg-17" vertex="1">
          <mxGeometry y="18.4" width="170" height="170" as="geometry" />
        </mxCell>
        <mxCell id="Q_xapoinyMw14eubzDcg-19" value="&lt;b&gt;4&lt;/b&gt;" style="text;html=1;strokeColor=none;fillColor=none;align=center;verticalAlign=middle;whiteSpace=wrap;rounded=0;" parent="Q_xapoinyMw14eubzDcg-17" vertex="1">
          <mxGeometry width="31.55709342560554" height="15.86206896551724" as="geometry" />
        </mxCell>
        <mxCell id="Q_xapoinyMw14eubzDcg-21" value="" style="group;align=left;fontStyle=1;fontSize=8;" parent="98hlSpwaoAq8b1N6rRqg-1" vertex="1" connectable="0">
          <mxGeometry x="730" y="-750" width="190" height="230" as="geometry" />
        </mxCell>
        <mxCell id="Q_xapoinyMw14eubzDcg-22" value="&lt;p class=&quot;MsoListParagraphCxSpFirst&quot; style=&quot;text-indent: -18pt ; font-size: 10px&quot;&gt;&lt;/p&gt;&lt;div&gt;&lt;p class=&quot;MsoNormal&quot;&gt;&lt;/p&gt;&lt;span style=&quot;text-align: left&quot;&gt;Cuando el sistema de refrigeración y datos técnicos coincida&lt;br/&gt;con el GAE y descripción del equipo.&lt;/span&gt;&lt;br&gt;&lt;p&gt;&lt;/p&gt;&lt;/div&gt;" style="whiteSpace=wrap;html=1;aspect=fixed;fontSize=10;labelBorderColor=none;labelBackgroundColor=none;" parent="Q_xapoinyMw14eubzDcg-21" vertex="1">
          <mxGeometry y="18.4" width="170" height="170" as="geometry" />
        </mxCell>
        <mxCell id="Q_xapoinyMw14eubzDcg-23" value="&lt;b&gt;5.1&lt;/b&gt;" style="text;html=1;strokeColor=none;fillColor=none;align=center;verticalAlign=middle;whiteSpace=wrap;rounded=0;" parent="Q_xapoinyMw14eubzDcg-21" vertex="1">
          <mxGeometry width="31.55709342560554" height="15.86206896551724" as="geometry" />
        </mxCell>
        <mxCell id="Q_xapoinyMw14eubzDcg-24" value="" style="group;align=left;fontStyle=1;fontSize=8;" parent="98hlSpwaoAq8b1N6rRqg-1" vertex="1" connectable="0">
          <mxGeometry x="910" y="-750" width="190" height="230" as="geometry" />
        </mxCell>
        <mxCell id="Q_xapoinyMw14eubzDcg-25" value="&lt;p class=&quot;MsoListParagraphCxSpFirst&quot; style=&quot;text-indent: -18pt ; font-size: 10px&quot;&gt;&lt;/p&gt;&lt;div&gt;&lt;p class=&quot;MsoNormal&quot;&gt;&lt;/p&gt;&lt;p class=&quot;MsoNormal&quot;&gt;Cuando el sistema de refrigeración y datos técnicos sean&lt;br/&gt;diferentes a los existentes (modelo, refrigerante, consumo, voltaje,&lt;br/&gt;frecuencia, etc).&lt;/p&gt;&lt;p&gt;&lt;/p&gt;&lt;/div&gt;" style="whiteSpace=wrap;html=1;aspect=fixed;fontSize=10;labelBorderColor=none;labelBackgroundColor=none;" parent="Q_xapoinyMw14eubzDcg-24" vertex="1">
          <mxGeometry y="18.4" width="170" height="170" as="geometry" />
        </mxCell>
        <mxCell id="Q_xapoinyMw14eubzDcg-26" value="&lt;b&gt;5.2&lt;/b&gt;" style="text;html=1;strokeColor=none;fillColor=none;align=center;verticalAlign=middle;whiteSpace=wrap;rounded=0;" parent="Q_xapoinyMw14eubzDcg-24" vertex="1">
          <mxGeometry width="31.55709342560554" height="15.86206896551724" as="geometry" />
        </mxCell>
        <mxCell id="Q_xapoinyMw14eubzDcg-29" value="" style="group;align=left;fontStyle=1;fontSize=8;" parent="98hlSpwaoAq8b1N6rRqg-1" vertex="1" connectable="0">
          <mxGeometry x="1090" y="-750" width="190" height="230" as="geometry" />
        </mxCell>
        <mxCell id="Q_xapoinyMw14eubzDcg-30" value="&lt;p class=&quot;MsoListParagraphCxSpFirst&quot; style=&quot;text-indent: -18pt ; font-size: 10px&quot;&gt;&lt;/p&gt;&lt;div&gt;&lt;p class=&quot;MsoNormal&quot;&gt;&lt;/p&gt;&lt;p class=&quot;MsoNormal&quot; style=&quot;text-align: justify&quot;&gt;Cuando ventas indica que sea de&lt;br/&gt;este tipo porque lleva datos ligados de cliente con numeración serial de&lt;br/&gt;Imbera.&lt;/p&gt;&lt;p&gt;&lt;/p&gt;&lt;/div&gt;" style="whiteSpace=wrap;html=1;aspect=fixed;fontSize=10;labelBorderColor=none;labelBackgroundColor=none;" parent="Q_xapoinyMw14eubzDcg-29" vertex="1">
          <mxGeometry y="18.4" width="170" height="170" as="geometry" />
        </mxCell>
        <mxCell id="Q_xapoinyMw14eubzDcg-31" value="&lt;b&gt;6.1&lt;/b&gt;" style="text;html=1;strokeColor=none;fillColor=none;align=center;verticalAlign=middle;whiteSpace=wrap;rounded=0;" parent="Q_xapoinyMw14eubzDcg-29" vertex="1">
          <mxGeometry width="31.55709342560554" height="15.86206896551724" as="geometry" />
        </mxCell>
        <mxCell id="Q_xapoinyMw14eubzDcg-33" value="" style="group;align=left;fontStyle=1;fontSize=8;" parent="98hlSpwaoAq8b1N6rRqg-1" vertex="1" connectable="0">
          <mxGeometry x="1270" y="-750" width="190" height="230" as="geometry" />
        </mxCell>
        <mxCell id="Q_xapoinyMw14eubzDcg-34" value="&lt;p class=&quot;MsoListParagraphCxSpFirst&quot; style=&quot;text-indent: -18pt ; font-size: 10px&quot;&gt;&lt;/p&gt;&lt;div&gt;&lt;p class=&quot;MsoNormal&quot;&gt;&lt;/p&gt;&lt;p class=&quot;MsoNormal&quot; style=&quot;text-align: justify&quot;&gt;Cuando se requiere la impresión&lt;br/&gt;de la etiqueta con el nombre de la imagen que va en el equipo. Nota:&amp;nbsp; máximo 5 caracteres.&lt;/p&gt;&lt;p&gt;&lt;/p&gt;&lt;/div&gt;" style="whiteSpace=wrap;html=1;aspect=fixed;fontSize=10;labelBorderColor=none;labelBackgroundColor=none;" parent="Q_xapoinyMw14eubzDcg-33" vertex="1">
          <mxGeometry y="18.4" width="170" height="170" as="geometry" />
        </mxCell>
        <mxCell id="Q_xapoinyMw14eubzDcg-35" value="&lt;b&gt;6.2&lt;/b&gt;" style="text;html=1;strokeColor=none;fillColor=none;align=center;verticalAlign=middle;whiteSpace=wrap;rounded=0;" parent="Q_xapoinyMw14eubzDcg-33" vertex="1">
          <mxGeometry width="31.55709342560554" height="15.86206896551724" as="geometry" />
        </mxCell>
        <mxCell id="Q_xapoinyMw14eubzDcg-36" value="" style="group;align=left;fontStyle=1;fontSize=8;" parent="98hlSpwaoAq8b1N6rRqg-1" vertex="1" connectable="0">
          <mxGeometry x="1450" y="-750" width="190" height="230" as="geometry" />
        </mxCell>
        <mxCell id="Q_xapoinyMw14eubzDcg-37" value="&lt;p class=&quot;MsoListParagraphCxSpFirst&quot; style=&quot;text-indent: -18pt ; font-size: 10px&quot;&gt;&lt;/p&gt;&lt;div&gt;&lt;p class=&quot;MsoNormal&quot;&gt;&lt;/p&gt;&lt;p class=&quot;MsoNormal&quot; style=&quot;margin-bottom: 0cm ; margin-bottom: 0.0001pt ; text-align: justify ; line-height: normal&quot;&gt;Cuando el equipo solo cambia por imagen, etiquetas, color de gabinete, tipo de iluminación (cantidad de leds), accesorios (como separador de pared, con o sin protección eléctrica, etc.).&lt;br&gt;&lt;b&gt;Nota: para que sea un variante no deben cambiar barrenos en el gabinete.&lt;/b&gt;&lt;/p&gt;&lt;p&gt;&lt;/p&gt;&lt;/div&gt;" style="whiteSpace=wrap;html=1;aspect=fixed;fontSize=10;labelBorderColor=none;labelBackgroundColor=none;" parent="Q_xapoinyMw14eubzDcg-36" vertex="1">
          <mxGeometry y="18.4" width="170" height="170" as="geometry" />
        </mxCell>
        <mxCell id="Q_xapoinyMw14eubzDcg-38" value="&lt;b&gt;2.2&lt;/b&gt;" style="text;html=1;strokeColor=none;fillColor=none;align=center;verticalAlign=middle;whiteSpace=wrap;rounded=0;" parent="Q_xapoinyMw14eubzDcg-36" vertex="1">
          <mxGeometry width="31.55709342560554" height="15.86206896551724" as="geometry" />
        </mxCell>
        <mxCell id="Q_xapoinyMw14eubzDcg-56" style="edgeStyle=orthogonalEdgeStyle;rounded=0;orthogonalLoop=1;jettySize=auto;html=1;fontSize=10;" parent="98hlSpwaoAq8b1N6rRqg-1" source="Q_xapoinyMw14eubzDcg-0" edge="1">
          <mxGeometry relative="1" as="geometry">
            <Array as="points">
              <mxPoint x="95" y="-470" />
              <mxPoint x="815" y="-470" />
            </Array>
            <mxPoint x="815.1999999999998" y="-420" as="targetPoint" />
          </mxGeometry>
        </mxCell>
        <mxCell id="Q_xapoinyMw14eubzDcg-57" style="edgeStyle=orthogonalEdgeStyle;rounded=0;orthogonalLoop=1;jettySize=auto;html=1;entryX=0.5;entryY=0;entryDx=0;entryDy=0;entryPerimeter=0;fontSize=10;" parent="98hlSpwaoAq8b1N6rRqg-1" source="Q_xapoinyMw14eubzDcg-9" edge="1">
          <mxGeometry relative="1" as="geometry">
            <Array as="points">
              <mxPoint x="275" y="-470" />
              <mxPoint x="815" y="-470" />
            </Array>
            <mxPoint x="815" y="-420" as="targetPoint" />
          </mxGeometry>
        </mxCell>
        <mxCell id="Q_xapoinyMw14eubzDcg-58" style="edgeStyle=orthogonalEdgeStyle;rounded=0;orthogonalLoop=1;jettySize=auto;html=1;entryX=0.5;entryY=0;entryDx=0;entryDy=0;entryPerimeter=0;fontSize=10;" parent="98hlSpwaoAq8b1N6rRqg-1" source="Q_xapoinyMw14eubzDcg-12" edge="1">
          <mxGeometry relative="1" as="geometry">
            <Array as="points">
              <mxPoint x="455" y="-470" />
              <mxPoint x="815" y="-470" />
            </Array>
            <mxPoint x="815" y="-420" as="targetPoint" />
          </mxGeometry>
        </mxCell>
        <mxCell id="Q_xapoinyMw14eubzDcg-59" style="edgeStyle=orthogonalEdgeStyle;rounded=0;orthogonalLoop=1;jettySize=auto;html=1;entryX=0.5;entryY=0;entryDx=0;entryDy=0;entryPerimeter=0;fontSize=10;" parent="98hlSpwaoAq8b1N6rRqg-1" source="Q_xapoinyMw14eubzDcg-18" edge="1">
          <mxGeometry relative="1" as="geometry">
            <Array as="points">
              <mxPoint x="635" y="-470" />
              <mxPoint x="815" y="-470" />
            </Array>
            <mxPoint x="815" y="-420" as="targetPoint" />
          </mxGeometry>
        </mxCell>
        <mxCell id="Q_xapoinyMw14eubzDcg-60" style="edgeStyle=orthogonalEdgeStyle;rounded=0;orthogonalLoop=1;jettySize=auto;html=1;fontSize=10;" parent="98hlSpwaoAq8b1N6rRqg-1" source="Q_xapoinyMw14eubzDcg-22" edge="1">
          <mxGeometry relative="1" as="geometry">
            <mxPoint x="815" y="-420" as="targetPoint" />
          </mxGeometry>
        </mxCell>
        <mxCell id="Q_xapoinyMw14eubzDcg-61" style="edgeStyle=orthogonalEdgeStyle;rounded=0;orthogonalLoop=1;jettySize=auto;html=1;entryX=0.5;entryY=0;entryDx=0;entryDy=0;entryPerimeter=0;fontSize=10;" parent="98hlSpwaoAq8b1N6rRqg-1" source="Q_xapoinyMw14eubzDcg-25" edge="1">
          <mxGeometry relative="1" as="geometry">
            <Array as="points">
              <mxPoint x="995" y="-470" />
              <mxPoint x="815" y="-470" />
            </Array>
            <mxPoint x="815" y="-420" as="targetPoint" />
          </mxGeometry>
        </mxCell>
        <mxCell id="Q_xapoinyMw14eubzDcg-62" style="edgeStyle=orthogonalEdgeStyle;rounded=0;orthogonalLoop=1;jettySize=auto;html=1;entryX=0.5;entryY=0;entryDx=0;entryDy=0;entryPerimeter=0;fontSize=10;" parent="98hlSpwaoAq8b1N6rRqg-1" source="Q_xapoinyMw14eubzDcg-30" edge="1">
          <mxGeometry relative="1" as="geometry">
            <Array as="points">
              <mxPoint x="1175" y="-470" />
              <mxPoint x="815" y="-470" />
            </Array>
            <mxPoint x="815" y="-420" as="targetPoint" />
          </mxGeometry>
        </mxCell>
        <mxCell id="Q_xapoinyMw14eubzDcg-63" style="edgeStyle=orthogonalEdgeStyle;rounded=0;orthogonalLoop=1;jettySize=auto;html=1;entryX=0.5;entryY=0;entryDx=0;entryDy=0;entryPerimeter=0;fontSize=10;" parent="98hlSpwaoAq8b1N6rRqg-1" source="Q_xapoinyMw14eubzDcg-34" edge="1">
          <mxGeometry relative="1" as="geometry">
            <Array as="points">
              <mxPoint x="1355" y="-470" />
              <mxPoint x="815" y="-470" />
            </Array>
            <mxPoint x="815" y="-420" as="targetPoint" />
          </mxGeometry>
        </mxCell>
        <mxCell id="Q_xapoinyMw14eubzDcg-64" style="edgeStyle=orthogonalEdgeStyle;rounded=0;orthogonalLoop=1;jettySize=auto;html=1;entryX=0.5;entryY=0;entryDx=0;entryDy=0;entryPerimeter=0;fontSize=10;" parent="98hlSpwaoAq8b1N6rRqg-1" source="Q_xapoinyMw14eubzDcg-37" edge="1">
          <mxGeometry relative="1" as="geometry">
            <Array as="points">
              <mxPoint x="1535" y="-470" />
              <mxPoint x="815" y="-470" />
            </Array>
            <mxPoint x="815" y="-420" as="targetPoint" />
          </mxGeometry>
        </mxCell>
      </root>
    </mxGraphModel>
  </diagram>
  <diagram id="Kiqp1y39vQRMJ9riBXQb" name="SOLICITUD MAYOR">
    <mxGraphModel dx="3270" dy="2218" grid="1" gridSize="10" guides="1" tooltips="1" connect="1" arrows="1" fold="1" page="1" pageScale="1" pageWidth="980" pageHeight="1390" math="0" shadow="0">
      <root>
        <mxCell id="aKb07sc8I3OObU_iPS45-0" />
        <mxCell id="aKb07sc8I3OObU_iPS45-1" parent="aKb07sc8I3OObU_iPS45-0" />
        <mxCell id="wdOfcYoXb2hJwhhr4pcY-20" style="edgeStyle=orthogonalEdgeStyle;rounded=0;orthogonalLoop=1;jettySize=auto;html=1;entryX=0.5;entryY=0;entryDx=0;entryDy=0;fontSize=15;" parent="aKb07sc8I3OObU_iPS45-1" source="JOMpUSb2YAvpxywNs_4w-0" target="wdOfcYoXb2hJwhhr4pcY-1" edge="1">
          <mxGeometry relative="1" as="geometry" />
        </mxCell>
        <mxCell id="wdOfcYoXb2hJwhhr4pcY-21" style="edgeStyle=orthogonalEdgeStyle;rounded=0;orthogonalLoop=1;jettySize=auto;html=1;entryX=0.5;entryY=0;entryDx=0;entryDy=0;fontSize=15;" parent="aKb07sc8I3OObU_iPS45-1" source="JOMpUSb2YAvpxywNs_4w-0" target="wdOfcYoXb2hJwhhr4pcY-4" edge="1">
          <mxGeometry relative="1" as="geometry" />
        </mxCell>
        <mxCell id="wdOfcYoXb2hJwhhr4pcY-22" style="edgeStyle=orthogonalEdgeStyle;rounded=0;orthogonalLoop=1;jettySize=auto;html=1;entryX=0.5;entryY=0;entryDx=0;entryDy=0;fontSize=15;" parent="aKb07sc8I3OObU_iPS45-1" source="JOMpUSb2YAvpxywNs_4w-0" target="wdOfcYoXb2hJwhhr4pcY-7" edge="1">
          <mxGeometry relative="1" as="geometry" />
        </mxCell>
        <mxCell id="wdOfcYoXb2hJwhhr4pcY-23" style="edgeStyle=orthogonalEdgeStyle;rounded=0;orthogonalLoop=1;jettySize=auto;html=1;entryX=0.5;entryY=0;entryDx=0;entryDy=0;fontSize=15;" parent="aKb07sc8I3OObU_iPS45-1" source="JOMpUSb2YAvpxywNs_4w-0" target="wdOfcYoXb2hJwhhr4pcY-12" edge="1">
          <mxGeometry relative="1" as="geometry" />
        </mxCell>
        <mxCell id="wdOfcYoXb2hJwhhr4pcY-24" style="edgeStyle=orthogonalEdgeStyle;rounded=0;orthogonalLoop=1;jettySize=auto;html=1;fontSize=15;" parent="aKb07sc8I3OObU_iPS45-1" source="JOMpUSb2YAvpxywNs_4w-0" target="wdOfcYoXb2hJwhhr4pcY-15" edge="1">
          <mxGeometry relative="1" as="geometry" />
        </mxCell>
        <mxCell id="wdOfcYoXb2hJwhhr4pcY-25" style="edgeStyle=orthogonalEdgeStyle;rounded=0;orthogonalLoop=1;jettySize=auto;html=1;entryX=0.5;entryY=0;entryDx=0;entryDy=0;fontSize=15;" parent="aKb07sc8I3OObU_iPS45-1" source="JOMpUSb2YAvpxywNs_4w-0" target="wdOfcYoXb2hJwhhr4pcY-19" edge="1">
          <mxGeometry relative="1" as="geometry" />
        </mxCell>
        <mxCell id="JOMpUSb2YAvpxywNs_4w-0" value="&lt;span style=&quot;font-size: 15px ; font-weight: 400 ; text-align: center&quot;&gt;1. Modificación de plano y especificación&lt;br&gt;&lt;/span&gt;&lt;span style=&quot;font-size: 15px ; font-weight: 400 ; text-align: center&quot;&gt;2. Liberación&lt;br&gt;&lt;/span&gt;&lt;span style=&quot;font-size: 15px ; font-weight: 400 ; text-align: center&quot;&gt;3. Cambio de estructura&lt;br&gt;&lt;/span&gt;&lt;span style=&quot;font-size: 15px ; font-weight: 400 ; text-align: center&quot;&gt;4. Avisos rechazados y partidas canceladas&lt;br&gt;&lt;/span&gt;&lt;span style=&quot;font-size: 15px ; font-weight: 400 ; text-align: center&quot;&gt;5. Reactivación&lt;br&gt;&lt;/span&gt;&lt;span style=&quot;font-size: 15px ; font-weight: 400 ; text-align: center&quot;&gt;6. Consideraciones metálicos&lt;/span&gt;&lt;span style=&quot;font-size: 15px ; font-weight: 400 ; text-align: center ; background-color: rgb(248 , 249 , 250)&quot;&gt;&lt;br&gt;&lt;/span&gt;" style="shape=callout;whiteSpace=wrap;html=1;perimeter=calloutPerimeter;fillColor=#dae8fc;strokeColor=#6c8ebf;align=left;fontStyle=1;labelBackgroundColor=#99CCFF;position2=0.51;" parent="aKb07sc8I3OObU_iPS45-1" vertex="1">
          <mxGeometry x="-500" y="-390" width="330" height="180" as="geometry" />
        </mxCell>
        <mxCell id="OzK4lWT5S-E6HL4JWZRe-0" value="&lt;h1&gt;&lt;font face=&quot;calibri, segoe ui, calibri, thonburi, arial, verdana, sans-serif, mongolian baiti, microsoft yi baiti, javanese text&quot;&gt;&lt;span style=&quot;font-size: 14.6667px ; font-weight: 400&quot;&gt;1. Indicar un renglón con la opción Modificar plano tachando la partida del plano viejo y en número de parte colocar N/A.&lt;/span&gt;&lt;/font&gt;&lt;/h1&gt;&lt;h1&gt;&lt;font face=&quot;calibri, segoe ui, calibri, thonburi, arial, verdana, sans-serif, mongolian baiti, microsoft yi baiti, javanese text&quot;&gt;&lt;span style=&quot;font-size: 14.6667px ; font-weight: 400&quot;&gt;2. Indicar un renglón con la opción Modificar plano y Cambiar número de documento para el plano nuevo e indicando el número de parte.&lt;/span&gt;&lt;/font&gt;&lt;/h1&gt;" style="text;html=1;strokeColor=none;fillColor=none;spacing=5;spacingTop=-20;whiteSpace=wrap;overflow=hidden;rounded=0;labelBackgroundColor=none;align=left;labelBorderColor=#000000;" parent="aKb07sc8I3OObU_iPS45-1" vertex="1">
          <mxGeometry x="-1720" y="470" width="210" height="360" as="geometry" />
        </mxCell>
        <mxCell id="c5cOzWmDf64X6aO6f1DW-0" value="&lt;h1&gt;&lt;font face=&quot;calibri, segoe ui, calibri, thonburi, arial, verdana, sans-serif, mongolian baiti, microsoft yi baiti, javanese text&quot;&gt;&lt;span style=&quot;font-size: 14.6667px ; font-weight: 400&quot;&gt;1. Cambio de descripción, estructura o configuración se hace en el mismo folio donde se libera la partida en la siguiente revisión.&lt;/span&gt;&lt;/font&gt;&lt;br&gt;&lt;/h1&gt;" style="text;html=1;strokeColor=none;fillColor=none;spacing=5;spacingTop=-20;whiteSpace=wrap;overflow=hidden;rounded=0;labelBackgroundColor=none;align=left;labelBorderColor=#000000;" parent="aKb07sc8I3OObU_iPS45-1" vertex="1">
          <mxGeometry x="1060" y="480" width="210" height="360" as="geometry" />
        </mxCell>
        <mxCell id="c5cOzWmDf64X6aO6f1DW-1" value="&lt;h1&gt;&lt;font face=&quot;calibri, segoe ui, calibri, thonburi, arial, verdana, sans-serif, mongolian baiti, microsoft yi baiti, javanese text&quot;&gt;&lt;span style=&quot;font-size: 14.6667px ; font-weight: 400&quot;&gt;1. Si se requiere cambio de descripción, número de documento o cambio de configuración pasar los cambios por MMM.&lt;/span&gt;&lt;/font&gt;&lt;/h1&gt;&lt;h1&gt;&lt;font face=&quot;calibri, segoe ui, calibri, thonburi, arial, verdana, sans-serif, mongolian baiti, microsoft yi baiti, javanese text&quot;&gt;&lt;span style=&quot;font-size: 14.6667px ; font-weight: 400&quot;&gt;2. Si se requiere algún cambio en estructura pasar el ajuste antes.&lt;/span&gt;&lt;/font&gt;&lt;/h1&gt;&lt;h1&gt;&lt;font face=&quot;calibri, segoe ui, calibri, thonburi, arial, verdana, sans-serif, mongolian baiti, microsoft yi baiti, javanese text&quot;&gt;&lt;span style=&quot;font-size: 14.6667px ; font-weight: 400&quot;&gt;NOTA: Colocar en revisión hasta que la MMM y/o el ajuste estén completos.&lt;/span&gt;&lt;/font&gt;&lt;/h1&gt;" style="text;html=1;strokeColor=none;fillColor=none;spacing=5;spacingTop=-20;whiteSpace=wrap;overflow=hidden;rounded=0;labelBackgroundColor=none;align=left;labelBorderColor=#000000;" parent="aKb07sc8I3OObU_iPS45-1" vertex="1">
          <mxGeometry x="-915" y="470" width="210" height="360" as="geometry" />
        </mxCell>
        <mxCell id="c5cOzWmDf64X6aO6f1DW-2" value="&lt;h1&gt;&lt;font face=&quot;calibri, segoe ui, calibri, thonburi, arial, verdana, sans-serif, mongolian baiti, microsoft yi baiti, javanese text&quot;&gt;&lt;span style=&quot;font-size: 14.6667px ; font-weight: 400&quot;&gt;Solo los ficticios&amp;nbsp;y se debe colocar la nota en las observaciones de el porqué se quedan activos.&lt;/span&gt;&lt;/font&gt;&lt;br&gt;&lt;/h1&gt;" style="text;html=1;strokeColor=none;fillColor=none;spacing=5;spacingTop=-20;whiteSpace=wrap;overflow=hidden;rounded=0;labelBackgroundColor=none;align=left;labelBorderColor=#000000;" parent="aKb07sc8I3OObU_iPS45-1" vertex="1">
          <mxGeometry x="-690" y="470" width="210" height="360" as="geometry" />
        </mxCell>
        <mxCell id="c5cOzWmDf64X6aO6f1DW-3" value="&lt;h1&gt;&lt;font face=&quot;calibri, segoe ui, calibri, thonburi, arial, verdana, sans-serif, mongolian baiti, microsoft yi baiti, javanese text&quot;&gt;&lt;span style=&quot;font-size: 14.6667px ; font-weight: 400&quot;&gt;Activar la casilla Ajustar consumo.&lt;/span&gt;&lt;/font&gt;&lt;br&gt;&lt;/h1&gt;" style="text;html=1;strokeColor=none;fillColor=none;spacing=5;spacingTop=-20;whiteSpace=wrap;overflow=hidden;rounded=0;labelBackgroundColor=none;align=left;labelBorderColor=#000000;" parent="aKb07sc8I3OObU_iPS45-1" vertex="1">
          <mxGeometry x="-460" y="470" width="210" height="360" as="geometry" />
        </mxCell>
        <mxCell id="c5cOzWmDf64X6aO6f1DW-4" value="&lt;h1&gt;&lt;font face=&quot;calibri, segoe ui, calibri, thonburi, arial, verdana, sans-serif, mongolian baiti, microsoft yi baiti, javanese text&quot;&gt;&lt;span style=&quot;font-size: 14.6667px ; font-weight: 400&quot;&gt;1. Cuando se agrega o elimina un ensamble y este en su estructura tiene componentes críticos&amp;nbsp;(tipo A) se deben desglosar indicando ***.&lt;/span&gt;&lt;/font&gt;&lt;/h1&gt;&lt;h1&gt;&lt;font face=&quot;calibri, segoe ui, calibri, thonburi, arial, verdana, sans-serif, mongolian baiti, microsoft yi baiti, javanese text&quot;&gt;&lt;span style=&quot;font-size: 14.6667px ; font-weight: 400&quot;&gt;2. Si se hace cambio de ensamble por ensamble se deben desglosar los componentes críticos&amp;nbsp;(tipo A) diferentes entre si, indicando los ***.&lt;/span&gt;&lt;/font&gt;&lt;/h1&gt;" style="text;html=1;strokeColor=none;fillColor=none;spacing=5;spacingTop=-20;whiteSpace=wrap;overflow=hidden;rounded=0;labelBackgroundColor=none;align=left;labelBorderColor=#000000;" parent="aKb07sc8I3OObU_iPS45-1" vertex="1">
          <mxGeometry x="-230" y="470" width="210" height="360" as="geometry" />
        </mxCell>
        <mxCell id="c5cOzWmDf64X6aO6f1DW-5" value="&lt;h1&gt;&lt;font face=&quot;calibri, segoe ui, calibri, thonburi, arial, verdana, sans-serif, mongolian baiti, microsoft yi baiti, javanese text&quot;&gt;&lt;span style=&quot;font-size: 14.6667px ; font-weight: 400&quot;&gt;1. Si tiene partidas en proceso de MB y el estatus es A3 pasar aviso para reactivar el material.&lt;/span&gt;&lt;/font&gt;&lt;/h1&gt;&lt;h1&gt;&lt;font face=&quot;calibri, segoe ui, calibri, thonburi, arial, verdana, sans-serif, mongolian baiti, microsoft yi baiti, javanese text&quot;&gt;&lt;span style=&quot;font-size: 14.6667px ; font-weight: 400&quot;&gt;2. Si tiene partidas en proceso de MB y el estatus es A4 pedir a ingeniería de información la reactivación del material con el mismo folio.&lt;/span&gt;&lt;/font&gt;&lt;/h1&gt;&lt;h1&gt;&lt;font face=&quot;calibri, segoe ui, calibri, thonburi, arial, verdana, sans-serif, mongolian baiti, microsoft yi baiti, javanese text&quot;&gt;&lt;span style=&quot;font-size: 14.6667px ; font-weight: 400&quot;&gt;3. Si tiene partidas en proceso de liberarse se tiene que pasar un aviso para pedir que se MB.&lt;/span&gt;&lt;/font&gt;&lt;/h1&gt;&lt;h1&gt;&lt;font face=&quot;calibri, segoe ui, calibri, thonburi, arial, verdana, sans-serif, mongolian baiti, microsoft yi baiti, javanese text&quot;&gt;&lt;span style=&quot;font-size: 14.6667px ; font-weight: 400&quot;&gt;4. Si tiene partidas de modificar plano, pasar un aviso para hacer una nueva revisión dando reversa a los cambios.&lt;/span&gt;&lt;/font&gt;&lt;/h1&gt;&lt;h1&gt;&lt;font face=&quot;calibri, segoe ui, calibri, thonburi, arial, verdana, sans-serif, mongolian baiti, microsoft yi baiti, javanese text&quot;&gt;&lt;span style=&quot;font-size: 14.6667px ; font-weight: 400&quot;&gt;5. Si tiene equipos bloqueados solicitar que se reactiven (consultar módulo)&lt;/span&gt;&lt;/font&gt;&lt;/h1&gt;" style="text;html=1;strokeColor=none;fillColor=none;spacing=5;spacingTop=-20;whiteSpace=wrap;overflow=hidden;rounded=0;labelBackgroundColor=none;align=left;labelBorderColor=#000000;" parent="aKb07sc8I3OObU_iPS45-1" vertex="1">
          <mxGeometry x="810" y="430" width="210" height="630" as="geometry" />
        </mxCell>
        <mxCell id="Pft8xKVkAoa8kcj5rMJR-0" value="&lt;h1&gt;&lt;font face=&quot;calibri, segoe ui, calibri, thonburi, arial, verdana, sans-serif, mongolian baiti, microsoft yi baiti, javanese text&quot;&gt;&lt;span style=&quot;font-size: 14.6667px ; font-weight: 400&quot;&gt;1. Cuando se modifiquen estructuras que estén dadas de alta en los centros 7000 y 4500 de componentes que se fabrican en metálicos.&lt;/span&gt;&lt;/font&gt;&lt;/h1&gt;&lt;h1&gt;&lt;font face=&quot;calibri, segoe ui, calibri, thonburi, arial, verdana, sans-serif, mongolian baiti, microsoft yi baiti, javanese text&quot;&gt;&lt;span style=&quot;font-size: 14.6667px ; font-weight: 400&quot;&gt;2. Cuando se marque para borrado un componente que esté dado de alta en los centros 7000 y 4500.&lt;/span&gt;&lt;/font&gt;&lt;/h1&gt;&lt;h1&gt;&lt;font face=&quot;calibri, segoe ui, calibri, thonburi, arial, verdana, sans-serif, mongolian baiti, microsoft yi baiti, javanese text&quot;&gt;&lt;span style=&quot;font-size: 14.6667px ; font-weight: 400&quot;&gt;3. Cuando se libera/modifica una lámina que es materia prima para el centro 4500.&lt;/span&gt;&lt;/font&gt;&lt;/h1&gt;&lt;h1&gt;&lt;font face=&quot;calibri, segoe ui, calibri, thonburi, arial, verdana, sans-serif, mongolian baiti, microsoft yi baiti, javanese text&quot;&gt;&lt;span style=&quot;font-size: 14.6667px ; font-weight: 400&quot;&gt;4. Cuando se modifiquen planos de componentes fabricados en el 4500 o materiales de compra de uso exclusivo para 4500. Por ejemplo: Soldadura y Pintura.&lt;/span&gt;&lt;/font&gt;&lt;/h1&gt;" style="text;html=1;strokeColor=none;fillColor=none;spacing=5;spacingTop=-20;whiteSpace=wrap;overflow=hidden;rounded=0;labelBackgroundColor=none;align=left;labelBorderColor=#000000;" parent="aKb07sc8I3OObU_iPS45-1" vertex="1">
          <mxGeometry x="1970" y="340" width="210" height="570" as="geometry" />
        </mxCell>
        <mxCell id="Pft8xKVkAoa8kcj5rMJR-1" value="&lt;h1&gt;&lt;font face=&quot;calibri, segoe ui, calibri, thonburi, arial, verdana, sans-serif, mongolian baiti, microsoft yi baiti, javanese text&quot;&gt;&lt;span style=&quot;font-size: 14.6667px ; font-weight: 400&quot;&gt;Agregar flujo&lt;/span&gt;&lt;/font&gt;&lt;/h1&gt;" style="text;html=1;spacing=5;spacingTop=-20;whiteSpace=wrap;overflow=hidden;rounded=0;labelBackgroundColor=none;align=left;labelBorderColor=#000000;" parent="aKb07sc8I3OObU_iPS45-1" vertex="1">
          <mxGeometry x="240" y="470" width="210" height="360" as="geometry" />
        </mxCell>
        <mxCell id="Pft8xKVkAoa8kcj5rMJR-2" value="&lt;h1&gt;&lt;font face=&quot;calibri, segoe ui, calibri, thonburi, arial, verdana, sans-serif, mongolian baiti, microsoft yi baiti, javanese text&quot;&gt;&lt;span style=&quot;font-size: 14.6667px ; font-weight: 400&quot;&gt;Cuando se solicite cambio en estructura de componentes refaccionables, indicar el configurable y sus variantes.&lt;/span&gt;&lt;/font&gt;&lt;/h1&gt;&lt;h1&gt;&lt;font face=&quot;calibri, segoe ui, calibri, thonburi, arial, verdana, sans-serif, mongolian baiti, microsoft yi baiti, javanese text&quot;&gt;&lt;span style=&quot;font-size: 14.6667px ; font-weight: 400&quot;&gt;Nota: no aplica para liberación de materiales refaccionables.&lt;/span&gt;&lt;/font&gt;&lt;/h1&gt;" style="text;html=1;strokeColor=none;fillColor=none;spacing=5;spacingTop=-20;whiteSpace=wrap;overflow=hidden;rounded=0;labelBackgroundColor=none;align=left;labelBorderColor=#000000;" parent="aKb07sc8I3OObU_iPS45-1" vertex="1">
          <mxGeometry y="470" width="210" height="360" as="geometry" />
        </mxCell>
        <mxCell id="Pft8xKVkAoa8kcj5rMJR-3" value="&lt;h1&gt;&lt;font face=&quot;calibri, segoe ui, calibri, thonburi, arial, verdana, sans-serif, mongolian baiti, microsoft yi baiti, javanese text&quot;&gt;&lt;span style=&quot;font-size: 14.6667px ; font-weight: 400&quot;&gt;Al liberar o modificar plano:&lt;/span&gt;&lt;/font&gt;&lt;/h1&gt;&lt;h1&gt;&lt;font face=&quot;calibri, segoe ui, calibri, thonburi, arial, verdana, sans-serif, mongolian baiti, microsoft yi baiti, javanese text&quot;&gt;&lt;span style=&quot;font-size: 14.6667px ; font-weight: 400&quot;&gt;1. Indicar en las observaciones la mascara y el número de cliente correspondiente (debe ser proporcionado por el área de comercial).&lt;/span&gt;&lt;/font&gt;&lt;/h1&gt;&lt;h1&gt;&lt;font face=&quot;calibri, segoe ui, calibri, thonburi, arial, verdana, sans-serif, mongolian baiti, microsoft yi baiti, javanese text&quot;&gt;&lt;span style=&quot;font-size: 14.6667px ; font-weight: 400&quot;&gt;2. Una vez efectuado el cambio en SAP podrás consultar en la transacción: ZAPPP_MASC_CTE_V&lt;/span&gt;&lt;/font&gt;&lt;/h1&gt;" style="text;html=1;strokeColor=none;fillColor=none;spacing=5;spacingTop=-20;whiteSpace=wrap;overflow=hidden;rounded=0;labelBackgroundColor=none;align=left;labelBorderColor=#000000;" parent="aKb07sc8I3OObU_iPS45-1" vertex="1">
          <mxGeometry x="-1200" y="470" width="210" height="360" as="geometry" />
        </mxCell>
        <mxCell id="Pft8xKVkAoa8kcj5rMJR-5" value="&lt;h1&gt;&lt;font face=&quot;calibri, segoe ui, calibri, thonburi, arial, verdana, sans-serif, mongolian baiti, microsoft yi baiti, javanese text&quot;&gt;&lt;span style=&quot;font-size: 14.6667px ; font-weight: 400&quot;&gt;1. El tipo de partidas debe ser Independientes.&lt;/span&gt;&lt;/font&gt;&lt;/h1&gt;&lt;h1&gt;&lt;font face=&quot;calibri, segoe ui, calibri, thonburi, arial, verdana, sans-serif, mongolian baiti, microsoft yi baiti, javanese text&quot;&gt;&lt;span style=&quot;font-size: 14.6667px ; font-weight: 400&quot;&gt;2. Colocar 2 renglones, en uno activar la casilla Reactivar y en otro la casilla Liberar.&lt;/span&gt;&lt;/font&gt;&lt;/h1&gt;&lt;h1&gt;&lt;font face=&quot;calibri, segoe ui, calibri, thonburi, arial, verdana, sans-serif, mongolian baiti, microsoft yi baiti, javanese text&quot;&gt;&lt;span style=&quot;font-size: 14.6667px ; font-weight: 400&quot;&gt;3. En el renglón de Liberar indicar el folio de la última revisión capturada.&lt;/span&gt;&lt;/font&gt;&lt;/h1&gt;" style="text;html=1;strokeColor=none;fillColor=none;spacing=5;spacingTop=-20;whiteSpace=wrap;overflow=hidden;rounded=0;labelBackgroundColor=none;align=left;labelBorderColor=#000000;" parent="aKb07sc8I3OObU_iPS45-1" vertex="1">
          <mxGeometry x="1350" y="430" width="210" height="360" as="geometry" />
        </mxCell>
        <mxCell id="Pft8xKVkAoa8kcj5rMJR-6" value="&lt;h1&gt;&lt;font face=&quot;calibri, segoe ui, calibri, thonburi, arial, verdana, sans-serif, mongolian baiti, microsoft yi baiti, javanese text&quot;&gt;&lt;span style=&quot;font-size: 14.6667px ; font-weight: 400&quot;&gt;Colocar un renglón activando la casilla Reactivar.&lt;/span&gt;&lt;/font&gt;&lt;br&gt;&lt;/h1&gt;" style="text;html=1;strokeColor=none;fillColor=none;spacing=5;spacingTop=-20;whiteSpace=wrap;overflow=hidden;rounded=0;labelBackgroundColor=none;align=left;labelBorderColor=#000000;" parent="aKb07sc8I3OObU_iPS45-1" vertex="1">
          <mxGeometry x="1610" y="430" width="210" height="180" as="geometry" />
        </mxCell>
        <mxCell id="Pft8xKVkAoa8kcj5rMJR-7" value="&lt;h1&gt;&lt;font face=&quot;calibri, segoe ui, calibri, thonburi, arial, verdana, sans-serif, mongolian baiti, microsoft yi baiti, javanese text&quot;&gt;&lt;span style=&quot;font-size: 14.6667px ; font-weight: 400&quot;&gt;Revisar que la especificación este autorizada y activar la casilla Modificar/Agregar especificación (ee, em, er).&lt;/span&gt;&lt;/font&gt;&lt;/h1&gt;&lt;h1&gt;&lt;font face=&quot;calibri, segoe ui, calibri, thonburi, arial, verdana, sans-serif, mongolian baiti, microsoft yi baiti, javanese text&quot;&gt;&lt;span style=&quot;font-size: 14.6667px ; font-weight: 400&quot;&gt;(ee: especificación de empaque, em: especificación de material, er: especificación de proceso)&lt;/span&gt;&lt;/font&gt;&lt;/h1&gt;" style="text;html=1;strokeColor=none;fillColor=none;spacing=5;spacingTop=-20;whiteSpace=wrap;overflow=hidden;rounded=0;labelBackgroundColor=none;align=left;labelBorderColor=#000000;" parent="aKb07sc8I3OObU_iPS45-1" vertex="1">
          <mxGeometry x="-1450" y="470" width="210" height="360" as="geometry" />
        </mxCell>
        <mxCell id="x-iL0cHxa0Fp-1ngTn5Y-0" value="1" style="rounded=0;whiteSpace=wrap;html=1;fillColor=#dae8fc;strokeColor=#6c8ebf;fontStyle=1;fontSize=19;" parent="aKb07sc8I3OObU_iPS45-1" vertex="1">
          <mxGeometry x="-1730" y="410" width="40" height="40" as="geometry" />
        </mxCell>
        <mxCell id="x-iL0cHxa0Fp-1ngTn5Y-1" value="2" style="rounded=0;whiteSpace=wrap;html=1;fillColor=#dae8fc;strokeColor=#6c8ebf;fontStyle=1;fontSize=19;" parent="aKb07sc8I3OObU_iPS45-1" vertex="1">
          <mxGeometry x="-915" y="410" width="40" height="40" as="geometry" />
        </mxCell>
        <mxCell id="x-iL0cHxa0Fp-1ngTn5Y-2" value="3" style="rounded=0;whiteSpace=wrap;html=1;fillColor=#dae8fc;strokeColor=#6c8ebf;fontStyle=1;fontSize=19;" parent="aKb07sc8I3OObU_iPS45-1" vertex="1">
          <mxGeometry x="1030" y="370" width="40" height="40" as="geometry" />
        </mxCell>
        <mxCell id="x-iL0cHxa0Fp-1ngTn5Y-3" value="4" style="rounded=0;whiteSpace=wrap;html=1;fillColor=#dae8fc;strokeColor=#6c8ebf;fontStyle=1;fontSize=19;" parent="aKb07sc8I3OObU_iPS45-1" vertex="1">
          <mxGeometry x="-680" y="410" width="40" height="40" as="geometry" />
        </mxCell>
        <mxCell id="x-iL0cHxa0Fp-1ngTn5Y-4" value="5" style="rounded=0;whiteSpace=wrap;html=1;fillColor=#dae8fc;strokeColor=#6c8ebf;fontStyle=1;fontSize=19;" parent="aKb07sc8I3OObU_iPS45-1" vertex="1">
          <mxGeometry x="-450" y="410" width="40" height="40" as="geometry" />
        </mxCell>
        <mxCell id="x-iL0cHxa0Fp-1ngTn5Y-5" value="6" style="rounded=0;whiteSpace=wrap;html=1;fillColor=#dae8fc;strokeColor=#6c8ebf;fontStyle=1;fontSize=19;" parent="aKb07sc8I3OObU_iPS45-1" vertex="1">
          <mxGeometry x="-220" y="410" width="40" height="40" as="geometry" />
        </mxCell>
        <mxCell id="x-iL0cHxa0Fp-1ngTn5Y-6" value="7" style="rounded=0;whiteSpace=wrap;html=1;fillColor=#dae8fc;strokeColor=#6c8ebf;fontStyle=1;fontSize=19;" parent="aKb07sc8I3OObU_iPS45-1" vertex="1">
          <mxGeometry x="580" y="380" width="40" height="40" as="geometry" />
        </mxCell>
        <mxCell id="x-iL0cHxa0Fp-1ngTn5Y-7" value="8" style="rounded=0;whiteSpace=wrap;html=1;fillColor=#dae8fc;strokeColor=#6c8ebf;fontStyle=1;fontSize=19;" parent="aKb07sc8I3OObU_iPS45-1" vertex="1">
          <mxGeometry x="820" y="380" width="40" height="40" as="geometry" />
        </mxCell>
        <mxCell id="x-iL0cHxa0Fp-1ngTn5Y-8" value="&lt;h1&gt;&lt;font face=&quot;calibri, segoe ui, calibri, thonburi, arial, verdana, sans-serif, mongolian baiti, microsoft yi baiti, javanese text&quot;&gt;&lt;span style=&quot;font-size: 14.6667px ; font-weight: 400&quot;&gt;Flujo partidas canceladas&lt;/span&gt;&lt;/font&gt;&lt;/h1&gt;" style="text;html=1;spacing=5;spacingTop=-20;whiteSpace=wrap;overflow=hidden;rounded=0;labelBackgroundColor=none;align=left;labelBorderColor=#000000;" parent="aKb07sc8I3OObU_iPS45-1" vertex="1">
          <mxGeometry x="590" y="440" width="210" height="360" as="geometry" />
        </mxCell>
        <mxCell id="x-iL0cHxa0Fp-1ngTn5Y-9" value="9" style="rounded=0;whiteSpace=wrap;html=1;fillColor=#dae8fc;strokeColor=#6c8ebf;fontStyle=1;fontSize=19;" parent="aKb07sc8I3OObU_iPS45-1" vertex="1">
          <mxGeometry x="-1450" y="410" width="40" height="40" as="geometry" />
        </mxCell>
        <mxCell id="x-iL0cHxa0Fp-1ngTn5Y-10" value="10" style="rounded=0;whiteSpace=wrap;html=1;fillColor=#dae8fc;strokeColor=#6c8ebf;fontStyle=1;fontSize=19;" parent="aKb07sc8I3OObU_iPS45-1" vertex="1">
          <mxGeometry x="1350" y="370" width="40" height="40" as="geometry" />
        </mxCell>
        <mxCell id="x-iL0cHxa0Fp-1ngTn5Y-11" value="11" style="rounded=0;whiteSpace=wrap;html=1;fillColor=#dae8fc;strokeColor=#6c8ebf;fontStyle=1;fontSize=19;" parent="aKb07sc8I3OObU_iPS45-1" vertex="1">
          <mxGeometry x="1620" y="370" width="40" height="40" as="geometry" />
        </mxCell>
        <mxCell id="x-iL0cHxa0Fp-1ngTn5Y-12" value="12" style="rounded=0;whiteSpace=wrap;html=1;fillColor=#dae8fc;strokeColor=#6c8ebf;fontStyle=1;fontSize=19;" parent="aKb07sc8I3OObU_iPS45-1" vertex="1">
          <mxGeometry x="-1200" y="410" width="40" height="40" as="geometry" />
        </mxCell>
        <mxCell id="x-iL0cHxa0Fp-1ngTn5Y-13" value="13" style="rounded=0;whiteSpace=wrap;html=1;fillColor=#dae8fc;strokeColor=#6c8ebf;fontStyle=1;fontSize=19;" parent="aKb07sc8I3OObU_iPS45-1" vertex="1">
          <mxGeometry y="410" width="40" height="40" as="geometry" />
        </mxCell>
        <mxCell id="x-iL0cHxa0Fp-1ngTn5Y-14" value="14" style="rounded=0;whiteSpace=wrap;html=1;fillColor=#dae8fc;strokeColor=#6c8ebf;fontStyle=1;fontSize=19;" parent="aKb07sc8I3OObU_iPS45-1" vertex="1">
          <mxGeometry x="240" y="410" width="40" height="40" as="geometry" />
        </mxCell>
        <mxCell id="x-iL0cHxa0Fp-1ngTn5Y-15" value="15" style="rounded=0;whiteSpace=wrap;html=1;fillColor=#dae8fc;strokeColor=#6c8ebf;fontStyle=1;fontSize=19;" parent="aKb07sc8I3OObU_iPS45-1" vertex="1">
          <mxGeometry x="1990" y="270" width="40" height="40" as="geometry" />
        </mxCell>
        <mxCell id="wdOfcYoXb2hJwhhr4pcY-3" value="" style="edgeStyle=orthogonalEdgeStyle;rounded=0;orthogonalLoop=1;jettySize=auto;html=1;fontSize=15;" parent="aKb07sc8I3OObU_iPS45-1" source="wdOfcYoXb2hJwhhr4pcY-1" target="wdOfcYoXb2hJwhhr4pcY-2" edge="1">
          <mxGeometry relative="1" as="geometry" />
        </mxCell>
        <mxCell id="wdOfcYoXb2hJwhhr4pcY-1" value="1. Modificación de plano y especificación" style="rounded=0;whiteSpace=wrap;html=1;fontSize=15;" parent="aKb07sc8I3OObU_iPS45-1" vertex="1">
          <mxGeometry x="-1600" y="-100" width="160" height="60" as="geometry" />
        </mxCell>
        <mxCell id="wdOfcYoXb2hJwhhr4pcY-26" style="edgeStyle=orthogonalEdgeStyle;rounded=0;orthogonalLoop=1;jettySize=auto;html=1;entryX=0.524;entryY=-0.028;entryDx=0;entryDy=0;entryPerimeter=0;fontSize=15;" parent="aKb07sc8I3OObU_iPS45-1" source="wdOfcYoXb2hJwhhr4pcY-2" target="OzK4lWT5S-E6HL4JWZRe-0" edge="1">
          <mxGeometry relative="1" as="geometry" />
        </mxCell>
        <mxCell id="wdOfcYoXb2hJwhhr4pcY-27" style="edgeStyle=orthogonalEdgeStyle;rounded=0;orthogonalLoop=1;jettySize=auto;html=1;entryX=0.5;entryY=0;entryDx=0;entryDy=0;fontSize=15;" parent="aKb07sc8I3OObU_iPS45-1" source="wdOfcYoXb2hJwhhr4pcY-2" target="Pft8xKVkAoa8kcj5rMJR-7" edge="1">
          <mxGeometry relative="1" as="geometry" />
        </mxCell>
        <mxCell id="wdOfcYoXb2hJwhhr4pcY-28" style="edgeStyle=orthogonalEdgeStyle;rounded=0;orthogonalLoop=1;jettySize=auto;html=1;fontSize=15;" parent="aKb07sc8I3OObU_iPS45-1" source="wdOfcYoXb2hJwhhr4pcY-2" target="Pft8xKVkAoa8kcj5rMJR-3" edge="1">
          <mxGeometry relative="1" as="geometry">
            <Array as="points">
              <mxPoint x="-1520" y="340" />
              <mxPoint x="-1095" y="340" />
            </Array>
          </mxGeometry>
        </mxCell>
        <mxCell id="wdOfcYoXb2hJwhhr4pcY-2" value="&lt;span style=&quot;color: rgb(68 , 68 , 68) ; font-family: &amp;#34;calibri&amp;#34; , sans-serif , &amp;#34;mongolian baiti&amp;#34; , &amp;#34;microsoft yi baiti&amp;#34; , &amp;#34;javanese text&amp;#34; , &amp;#34;yu gothic&amp;#34; ; font-size: 14.6667px ; font-weight: 700 ; text-align: left ; background-color: rgb(153 , 204 , 255)&quot;&gt;1. ¿Qué hacer si se cambia una partida de un plano a otro?&lt;br&gt;&lt;/span&gt;&lt;span style=&quot;color: rgb(68 , 68 , 68) ; font-family: &amp;#34;calibri&amp;#34; , sans-serif , &amp;#34;mongolian baiti&amp;#34; , &amp;#34;microsoft yi baiti&amp;#34; , &amp;#34;javanese text&amp;#34; , &amp;#34;yu gothic&amp;#34; ; font-size: 14.6667px ; font-weight: 700 ; text-align: left ; background-color: rgb(153 , 204 , 255)&quot;&gt;9. ¿Qué revisar cuando solicito Modificar/Agregar especificación (ee, em, er) antes de poner en revisión?&lt;br&gt;&lt;/span&gt;&lt;div style=&quot;font-size: 12px ; font-weight: 700 ; text-align: left&quot;&gt;&lt;font color=&quot;#444444&quot; face=&quot;calibri, sans-serif, mongolian baiti, microsoft yi baiti, javanese text, yu gothic&quot;&gt;&lt;span style=&quot;font-size: 14.6667px&quot;&gt;12. Consideraciones para etiqueta cliente o placa cliente que requiera ser leída en linea.&lt;/span&gt;&lt;/font&gt;&lt;/div&gt;&lt;div&gt;&lt;font color=&quot;#444444&quot; face=&quot;calibri, sans-serif, mongolian baiti, microsoft yi baiti, javanese text, yu gothic&quot;&gt;&lt;span style=&quot;font-size: 14.6667px&quot;&gt;&lt;br&gt;&lt;/span&gt;&lt;/font&gt;&lt;/div&gt;" style="whiteSpace=wrap;html=1;rounded=0;fontSize=15;" parent="aKb07sc8I3OObU_iPS45-1" vertex="1">
          <mxGeometry x="-1640" y="50" width="240" height="160" as="geometry" />
        </mxCell>
        <mxCell id="wdOfcYoXb2hJwhhr4pcY-6" value="" style="edgeStyle=orthogonalEdgeStyle;rounded=0;orthogonalLoop=1;jettySize=auto;html=1;fontSize=15;entryX=0.548;entryY=0;entryDx=0;entryDy=0;entryPerimeter=0;" parent="aKb07sc8I3OObU_iPS45-1" source="wdOfcYoXb2hJwhhr4pcY-4" target="c5cOzWmDf64X6aO6f1DW-1" edge="1">
          <mxGeometry relative="1" as="geometry">
            <mxPoint x="-520" y="170" as="targetPoint" />
          </mxGeometry>
        </mxCell>
        <mxCell id="wdOfcYoXb2hJwhhr4pcY-4" value="2. Liberación" style="rounded=0;whiteSpace=wrap;html=1;fontSize=15;" parent="aKb07sc8I3OObU_iPS45-1" vertex="1">
          <mxGeometry x="-860" y="-70" width="120" height="60" as="geometry" />
        </mxCell>
        <mxCell id="wdOfcYoXb2hJwhhr4pcY-9" value="" style="edgeStyle=orthogonalEdgeStyle;rounded=0;orthogonalLoop=1;jettySize=auto;html=1;fontSize=15;" parent="aKb07sc8I3OObU_iPS45-1" source="wdOfcYoXb2hJwhhr4pcY-7" target="wdOfcYoXb2hJwhhr4pcY-8" edge="1">
          <mxGeometry relative="1" as="geometry" />
        </mxCell>
        <mxCell id="wdOfcYoXb2hJwhhr4pcY-7" value="3. Cambio de estructura" style="rounded=0;whiteSpace=wrap;html=1;fontSize=15;" parent="aKb07sc8I3OObU_iPS45-1" vertex="1">
          <mxGeometry x="-610" y="-80" width="120" height="60" as="geometry" />
        </mxCell>
        <mxCell id="wdOfcYoXb2hJwhhr4pcY-29" style="edgeStyle=orthogonalEdgeStyle;rounded=0;orthogonalLoop=1;jettySize=auto;html=1;entryX=0.5;entryY=0;entryDx=0;entryDy=0;fontSize=15;" parent="aKb07sc8I3OObU_iPS45-1" source="wdOfcYoXb2hJwhhr4pcY-8" target="c5cOzWmDf64X6aO6f1DW-2" edge="1">
          <mxGeometry relative="1" as="geometry" />
        </mxCell>
        <mxCell id="wdOfcYoXb2hJwhhr4pcY-30" style="edgeStyle=orthogonalEdgeStyle;rounded=0;orthogonalLoop=1;jettySize=auto;html=1;entryX=0.5;entryY=0;entryDx=0;entryDy=0;fontSize=15;" parent="aKb07sc8I3OObU_iPS45-1" source="wdOfcYoXb2hJwhhr4pcY-8" target="c5cOzWmDf64X6aO6f1DW-3" edge="1">
          <mxGeometry relative="1" as="geometry" />
        </mxCell>
        <mxCell id="wdOfcYoXb2hJwhhr4pcY-31" style="edgeStyle=orthogonalEdgeStyle;rounded=0;orthogonalLoop=1;jettySize=auto;html=1;fontSize=15;" parent="aKb07sc8I3OObU_iPS45-1" source="wdOfcYoXb2hJwhhr4pcY-8" target="c5cOzWmDf64X6aO6f1DW-4" edge="1">
          <mxGeometry relative="1" as="geometry" />
        </mxCell>
        <mxCell id="wdOfcYoXb2hJwhhr4pcY-34" style="edgeStyle=orthogonalEdgeStyle;rounded=0;orthogonalLoop=1;jettySize=auto;html=1;entryX=0.5;entryY=0;entryDx=0;entryDy=0;fontSize=15;" parent="aKb07sc8I3OObU_iPS45-1" source="wdOfcYoXb2hJwhhr4pcY-8" target="Pft8xKVkAoa8kcj5rMJR-2" edge="1">
          <mxGeometry relative="1" as="geometry" />
        </mxCell>
        <mxCell id="wdOfcYoXb2hJwhhr4pcY-35" style="edgeStyle=orthogonalEdgeStyle;rounded=0;orthogonalLoop=1;jettySize=auto;html=1;fontSize=15;" parent="aKb07sc8I3OObU_iPS45-1" source="wdOfcYoXb2hJwhhr4pcY-8" target="Pft8xKVkAoa8kcj5rMJR-1" edge="1">
          <mxGeometry relative="1" as="geometry" />
        </mxCell>
        <mxCell id="wdOfcYoXb2hJwhhr4pcY-8" value="&lt;span style=&quot;color: rgb(68 , 68 , 68) ; font-family: &amp;#34;calibri&amp;#34; , sans-serif , &amp;#34;mongolian baiti&amp;#34; , &amp;#34;microsoft yi baiti&amp;#34; , &amp;#34;javanese text&amp;#34; , &amp;#34;yu gothic&amp;#34; ; font-size: 14.6667px ; font-weight: 700 ; text-align: left ; background-color: rgb(153 , 204 , 255)&quot;&gt;4. ¿Qué componentes&amp;nbsp;se pueden quedar activos si se quedan sin utilización?&lt;br&gt;&lt;/span&gt;&lt;span style=&quot;color: rgb(68 , 68 , 68) ; font-family: &amp;#34;calibri&amp;#34; , sans-serif , &amp;#34;mongolian baiti&amp;#34; , &amp;#34;microsoft yi baiti&amp;#34; , &amp;#34;javanese text&amp;#34; , &amp;#34;yu gothic&amp;#34; ; font-size: 14.6667px ; font-weight: 700 ; text-align: left ; background-color: rgb(153 , 204 , 255)&quot;&gt;5. ¿Qué casilla activar si solo requiero ajustar la cantidad de un material?&lt;br&gt;&lt;/span&gt;&lt;span style=&quot;color: rgb(68 , 68 , 68) ; font-family: &amp;#34;calibri&amp;#34; , sans-serif , &amp;#34;mongolian baiti&amp;#34; , &amp;#34;microsoft yi baiti&amp;#34; , &amp;#34;javanese text&amp;#34; , &amp;#34;yu gothic&amp;#34; ; font-size: 14.6667px ; font-weight: 700 ; text-align: left ; background-color: rgb(153 , 204 , 255)&quot;&gt;6. ¿Cuándo hacer el desglose&amp;nbsp;de componentes?&lt;br&gt;&lt;/span&gt;&lt;span style=&quot;color: rgb(68 , 68 , 68) ; font-family: &amp;#34;calibri&amp;#34; , sans-serif , &amp;#34;mongolian baiti&amp;#34; , &amp;#34;microsoft yi baiti&amp;#34; , &amp;#34;javanese text&amp;#34; , &amp;#34;yu gothic&amp;#34; ; font-size: 14.6667px ; font-weight: 700 ; text-align: left ; background-color: rgb(153 , 204 , 255)&quot;&gt;13. Consideraciones para activar: ¿Afecta versión / manual de refacciones?&lt;br&gt;&lt;/span&gt;&lt;span style=&quot;color: rgb(68 , 68 , 68) ; font-family: &amp;#34;calibri&amp;#34; , sans-serif , &amp;#34;mongolian baiti&amp;#34; , &amp;#34;microsoft yi baiti&amp;#34; , &amp;#34;javanese text&amp;#34; , &amp;#34;yu gothic&amp;#34; ; font-size: 14.6667px ; font-weight: 700 ; text-align: left ; background-color: rgb(153 , 204 , 255)&quot;&gt;14. ¿Qué hacer si quiero agregar un nuevo ensamble o material que no está indicado en la guía de BTO?&lt;/span&gt;&lt;span style=&quot;color: rgb(68 , 68 , 68) ; font-family: &amp;#34;calibri&amp;#34; , sans-serif , &amp;#34;mongolian baiti&amp;#34; , &amp;#34;microsoft yi baiti&amp;#34; , &amp;#34;javanese text&amp;#34; , &amp;#34;yu gothic&amp;#34; ; font-size: 14.6667px ; font-weight: 700 ; text-align: left ; background-color: rgb(153 , 204 , 255)&quot;&gt;&lt;br&gt;&lt;/span&gt;" style="whiteSpace=wrap;html=1;rounded=0;fontSize=15;" parent="aKb07sc8I3OObU_iPS45-1" vertex="1">
          <mxGeometry x="-710" y="60" width="320" height="230" as="geometry" />
        </mxCell>
        <mxCell id="wdOfcYoXb2hJwhhr4pcY-14" value="" style="edgeStyle=orthogonalEdgeStyle;rounded=0;orthogonalLoop=1;jettySize=auto;html=1;fontSize=15;" parent="aKb07sc8I3OObU_iPS45-1" source="wdOfcYoXb2hJwhhr4pcY-12" target="wdOfcYoXb2hJwhhr4pcY-13" edge="1">
          <mxGeometry relative="1" as="geometry" />
        </mxCell>
        <mxCell id="wdOfcYoXb2hJwhhr4pcY-12" value="4. Avisos rechazados y partidas canceladas" style="rounded=0;whiteSpace=wrap;html=1;fontSize=15;" parent="aKb07sc8I3OObU_iPS45-1" vertex="1">
          <mxGeometry x="500" y="10" width="140" height="70" as="geometry" />
        </mxCell>
        <mxCell id="wdOfcYoXb2hJwhhr4pcY-37" style="edgeStyle=orthogonalEdgeStyle;rounded=0;orthogonalLoop=1;jettySize=auto;html=1;entryX=0.5;entryY=0;entryDx=0;entryDy=0;fontSize=15;" parent="aKb07sc8I3OObU_iPS45-1" source="wdOfcYoXb2hJwhhr4pcY-13" target="x-iL0cHxa0Fp-1ngTn5Y-8" edge="1">
          <mxGeometry relative="1" as="geometry" />
        </mxCell>
        <mxCell id="wdOfcYoXb2hJwhhr4pcY-38" style="edgeStyle=orthogonalEdgeStyle;rounded=0;orthogonalLoop=1;jettySize=auto;html=1;entryX=0.5;entryY=0;entryDx=0;entryDy=0;fontSize=15;" parent="aKb07sc8I3OObU_iPS45-1" source="wdOfcYoXb2hJwhhr4pcY-13" target="c5cOzWmDf64X6aO6f1DW-5" edge="1">
          <mxGeometry relative="1" as="geometry" />
        </mxCell>
        <mxCell id="wdOfcYoXb2hJwhhr4pcY-39" style="edgeStyle=orthogonalEdgeStyle;rounded=0;orthogonalLoop=1;jettySize=auto;html=1;entryX=0.5;entryY=0;entryDx=0;entryDy=0;fontSize=15;" parent="aKb07sc8I3OObU_iPS45-1" source="wdOfcYoXb2hJwhhr4pcY-13" target="c5cOzWmDf64X6aO6f1DW-0" edge="1">
          <mxGeometry relative="1" as="geometry" />
        </mxCell>
        <mxCell id="wdOfcYoXb2hJwhhr4pcY-13" value="&lt;span style=&quot;background-color: rgb(255, 255, 255);&quot;&gt;&lt;span style=&quot;color: rgb(68, 68, 68); font-family: calibri, sans-serif, &amp;quot;mongolian baiti&amp;quot;, &amp;quot;microsoft yi baiti&amp;quot;, &amp;quot;javanese text&amp;quot;, &amp;quot;yu gothic&amp;quot;; font-size: 14.6667px; font-weight: 700; text-align: left; background-color: rgb(255, 255, 255);&quot;&gt;7. ¿Qué hacer si me cancelaron una partida? y ¿Cómo pasar el seguimiento correctamente?&lt;br&gt;&lt;/span&gt;&lt;span style=&quot;color: rgb(68, 68, 68); font-family: calibri, sans-serif, &amp;quot;mongolian baiti&amp;quot;, &amp;quot;microsoft yi baiti&amp;quot;, &amp;quot;javanese text&amp;quot;, &amp;quot;yu gothic&amp;quot;; font-size: 14.6667px; font-weight: 700; text-align: left; background-color: rgb(153, 204, 255);&quot;&gt;3. Consideraciones para liberación de partidas canceladas&lt;br&gt;&lt;/span&gt;&lt;span style=&quot;color: rgb(68, 68, 68); font-family: calibri, sans-serif, &amp;quot;mongolian baiti&amp;quot;, &amp;quot;microsoft yi baiti&amp;quot;, &amp;quot;javanese text&amp;quot;, &amp;quot;yu gothic&amp;quot;; font-size: 14.6667px; font-weight: 700; text-align: left; background-color: rgb(153, 204, 255);&quot;&gt;8. ¿Qué hacer si me rechazan un aviso y ya no quiero que aplique?&lt;/span&gt;&lt;/span&gt;&lt;span style=&quot;color: rgb(68, 68, 68); font-family: calibri, sans-serif, &amp;quot;mongolian baiti&amp;quot;, &amp;quot;microsoft yi baiti&amp;quot;, &amp;quot;javanese text&amp;quot;, &amp;quot;yu gothic&amp;quot;; font-size: 14.6667px; font-weight: 700; text-align: left; background-color: rgb(153, 204, 255);&quot;&gt;&lt;br&gt;&lt;/span&gt;" style="whiteSpace=wrap;html=1;rounded=0;fontSize=15;" parent="aKb07sc8I3OObU_iPS45-1" vertex="1">
          <mxGeometry x="690" y="90" width="230" height="140" as="geometry" />
        </mxCell>
        <mxCell id="wdOfcYoXb2hJwhhr4pcY-18" value="" style="edgeStyle=orthogonalEdgeStyle;rounded=0;orthogonalLoop=1;jettySize=auto;html=1;fontSize=15;" parent="aKb07sc8I3OObU_iPS45-1" source="wdOfcYoXb2hJwhhr4pcY-15" target="wdOfcYoXb2hJwhhr4pcY-17" edge="1">
          <mxGeometry relative="1" as="geometry" />
        </mxCell>
        <mxCell id="wdOfcYoXb2hJwhhr4pcY-15" value="5. Reactivación" style="rounded=0;whiteSpace=wrap;html=1;fontSize=15;" parent="aKb07sc8I3OObU_iPS45-1" vertex="1">
          <mxGeometry x="1450" y="-120" width="120" height="60" as="geometry" />
        </mxCell>
        <mxCell id="wdOfcYoXb2hJwhhr4pcY-40" style="edgeStyle=orthogonalEdgeStyle;rounded=0;orthogonalLoop=1;jettySize=auto;html=1;entryX=0.5;entryY=0;entryDx=0;entryDy=0;fontSize=15;" parent="aKb07sc8I3OObU_iPS45-1" source="wdOfcYoXb2hJwhhr4pcY-17" target="Pft8xKVkAoa8kcj5rMJR-5" edge="1">
          <mxGeometry relative="1" as="geometry" />
        </mxCell>
        <mxCell id="wdOfcYoXb2hJwhhr4pcY-41" style="edgeStyle=orthogonalEdgeStyle;rounded=0;orthogonalLoop=1;jettySize=auto;html=1;fontSize=15;" parent="aKb07sc8I3OObU_iPS45-1" source="wdOfcYoXb2hJwhhr4pcY-17" target="Pft8xKVkAoa8kcj5rMJR-6" edge="1">
          <mxGeometry relative="1" as="geometry" />
        </mxCell>
        <mxCell id="wdOfcYoXb2hJwhhr4pcY-17" value="&lt;span style=&quot;background-color: rgb(255, 255, 255);&quot;&gt;&lt;span style=&quot;color: rgb(68, 68, 68); font-family: calibri, sans-serif, &amp;quot;mongolian baiti&amp;quot;, &amp;quot;microsoft yi baiti&amp;quot;, &amp;quot;javanese text&amp;quot;, &amp;quot;yu gothic&amp;quot;; font-size: 14.6667px; font-weight: 700; text-align: left; background-color: rgb(153, 204, 255);&quot;&gt;10. ¿Cómo reactivar un material?&lt;br&gt;&lt;/span&gt;&lt;span style=&quot;color: rgb(68, 68, 68); font-family: calibri, sans-serif, &amp;quot;mongolian baiti&amp;quot;, &amp;quot;microsoft yi baiti&amp;quot;, &amp;quot;javanese text&amp;quot;, &amp;quot;yu gothic&amp;quot;; font-size: 14.6667px; font-weight: 700; text-align: left; background-color: rgb(153, 204, 255);&quot;&gt;11. ¿Cómo reactivar un subensamble que no se libera?&lt;/span&gt;&lt;/span&gt;&lt;span style=&quot;color: rgb(68, 68, 68); font-family: calibri, sans-serif, &amp;quot;mongolian baiti&amp;quot;, &amp;quot;microsoft yi baiti&amp;quot;, &amp;quot;javanese text&amp;quot;, &amp;quot;yu gothic&amp;quot;; font-size: 14.6667px; font-weight: 700; text-align: left; background-color: rgb(153, 204, 255);&quot;&gt;&lt;br&gt;&lt;/span&gt;" style="rounded=0;whiteSpace=wrap;html=1;fontSize=15;" parent="aKb07sc8I3OObU_iPS45-1" vertex="1">
          <mxGeometry x="1450" y="260" width="120" height="60" as="geometry" />
        </mxCell>
        <mxCell id="wdOfcYoXb2hJwhhr4pcY-42" style="edgeStyle=orthogonalEdgeStyle;rounded=0;orthogonalLoop=1;jettySize=auto;html=1;fontSize=15;" parent="aKb07sc8I3OObU_iPS45-1" source="wdOfcYoXb2hJwhhr4pcY-19" target="Pft8xKVkAoa8kcj5rMJR-0" edge="1">
          <mxGeometry relative="1" as="geometry" />
        </mxCell>
        <mxCell id="wdOfcYoXb2hJwhhr4pcY-19" value="6. Consideraciones metálicos" style="rounded=0;whiteSpace=wrap;html=1;fontSize=15;" parent="aKb07sc8I3OObU_iPS45-1" vertex="1">
          <mxGeometry x="2015" y="-120" width="120" height="60" as="geometry" />
        </mxCell>
        <mxCell id="7pJpxuA9UxNVvOQBuYGB-5" value="&lt;b&gt;Crear nuevo tema similar a éxito confirmado para lo de la encuesta&lt;/b&gt;" style="text;html=1;strokeColor=none;fillColor=none;align=center;verticalAlign=middle;whiteSpace=wrap;rounded=0;" parent="aKb07sc8I3OObU_iPS45-1" vertex="1">
          <mxGeometry x="250" y="1050" width="210" height="40" as="geometry" />
        </mxCell>
        <mxCell id="qkkCb_j553BI5mv0-e3k-0" value="- Poner opciones del punto 4&lt;br&gt;- El botón de regresar debe posicionarse en las opciones de menú del módulo" style="text;html=1;strokeColor=none;fillColor=none;align=center;verticalAlign=middle;whiteSpace=wrap;rounded=0;fontSize=20;" parent="aKb07sc8I3OObU_iPS45-1" vertex="1">
          <mxGeometry x="610" y="-500" width="380" height="110" as="geometry" />
        </mxCell>
      </root>
    </mxGraphModel>
  </diagram>
  <diagram id="J30oCk0lZkeUN4CnMRwd" name="prueba2">
    <mxGraphModel dx="1613" dy="497" grid="1" gridSize="10" guides="1" tooltips="1" connect="1" arrows="1" fold="1" page="1" pageScale="1" pageWidth="827" pageHeight="1169" math="0" shadow="0">
      <root>
        <mxCell id="86kgg8M45E4MDIGwioL3-0" />
        <mxCell id="86kgg8M45E4MDIGwioL3-1" parent="86kgg8M45E4MDIGwioL3-0" />
        <mxCell id="uDKULjw3OYat_Tei7g2C-0" value="&#xa;&#xa;&lt;span style=&quot;color: rgb(0, 0, 0); font-family: helvetica; font-size: 12px; font-style: normal; letter-spacing: normal; text-align: center; text-indent: 0px; text-transform: none; word-spacing: 0px; background-color: rgb(248, 249, 250); display: inline; float: none;&quot;&gt;Resolví tú duda&lt;/span&gt;&#xa;&#xa;" style="whiteSpace=wrap;html=1;aspect=fixed;fillColor=none;fontStyle=1;strokeColor=#7F00FF;strokeWidth=8;" parent="86kgg8M45E4MDIGwioL3-1" vertex="1">
          <mxGeometry x="-10" y="710" width="700" height="700" as="geometry" />
        </mxCell>
        <mxCell id="uDKULjw3OYat_Tei7g2C-1" value="Tema: Ayuda + módulo" style="whiteSpace=wrap;html=1;aspect=fixed;fillColor=none;fontStyle=1;strokeColor=#CC6600;strokeWidth=8;fontSize=21;" parent="86kgg8M45E4MDIGwioL3-1" vertex="1">
          <mxGeometry x="-370" y="180" width="680" height="680" as="geometry" />
        </mxCell>
        <mxCell id="WPF_yaL3plXFTtDsaAuI-0" style="edgeStyle=orthogonalEdgeStyle;rounded=0;orthogonalLoop=1;jettySize=auto;html=1;entryX=0.5;entryY=0;entryDx=0;entryDy=0;fontSize=10;" parent="86kgg8M45E4MDIGwioL3-1" source="WPF_yaL3plXFTtDsaAuI-4" target="WPF_yaL3plXFTtDsaAuI-5" edge="1">
          <mxGeometry relative="1" as="geometry" />
        </mxCell>
        <mxCell id="WPF_yaL3plXFTtDsaAuI-1" value="SI" style="edgeLabel;html=1;align=center;verticalAlign=middle;resizable=0;points=[];fontSize=10;" parent="WPF_yaL3plXFTtDsaAuI-0" vertex="1" connectable="0">
          <mxGeometry x="-0.0464" relative="1" as="geometry">
            <mxPoint as="offset" />
          </mxGeometry>
        </mxCell>
        <mxCell id="WPF_yaL3plXFTtDsaAuI-2" style="edgeStyle=orthogonalEdgeStyle;rounded=0;orthogonalLoop=1;jettySize=auto;html=1;entryX=0;entryY=0.5;entryDx=0;entryDy=0;" parent="86kgg8M45E4MDIGwioL3-1" source="WPF_yaL3plXFTtDsaAuI-4" target="WPF_yaL3plXFTtDsaAuI-11" edge="1">
          <mxGeometry relative="1" as="geometry" />
        </mxCell>
        <mxCell id="WPF_yaL3plXFTtDsaAuI-3" value="NO" style="edgeLabel;html=1;align=center;verticalAlign=middle;resizable=0;points=[];" parent="WPF_yaL3plXFTtDsaAuI-2" vertex="1" connectable="0">
          <mxGeometry x="0.3243" y="-1" relative="1" as="geometry">
            <mxPoint as="offset" />
          </mxGeometry>
        </mxCell>
        <mxCell id="WPF_yaL3plXFTtDsaAuI-4" value="¿Te puedo ayudar en algo más sobre este módulo?" style="shape=callout;whiteSpace=wrap;html=1;perimeter=calloutPerimeter;labelBackgroundColor=none;fontSize=10;align=center;fillColor=#d5e8d4;strokeColor=#82b366;" parent="86kgg8M45E4MDIGwioL3-1" vertex="1">
          <mxGeometry x="-173.5" y="570" width="190" height="120" as="geometry" />
        </mxCell>
        <mxCell id="WPF_yaL3plXFTtDsaAuI-5" value="Menú de módulo consultado" style="rounded=0;whiteSpace=wrap;html=1;labelBackgroundColor=none;fontSize=10;align=center;fillColor=#d5e8d4;strokeColor=#82b366;" parent="86kgg8M45E4MDIGwioL3-1" vertex="1">
          <mxGeometry x="-370" y="780" width="120" height="60" as="geometry" />
        </mxCell>
        <mxCell id="WPF_yaL3plXFTtDsaAuI-6" value="&lt;span style=&quot;font-size: 10px&quot;&gt;MENÚ PRINCIPAL&lt;/span&gt;" style="rounded=0;whiteSpace=wrap;html=1;fillColor=#d5e8d4;strokeColor=#82b366;" parent="86kgg8M45E4MDIGwioL3-1" vertex="1">
          <mxGeometry x="-10" y="860" width="120" height="60" as="geometry" />
        </mxCell>
        <mxCell id="WPF_yaL3plXFTtDsaAuI-7" style="edgeStyle=orthogonalEdgeStyle;rounded=0;orthogonalLoop=1;jettySize=auto;html=1;exitX=0.5;exitY=1;exitDx=0;exitDy=0;entryX=0.458;entryY=-0.025;entryDx=0;entryDy=0;entryPerimeter=0;" parent="86kgg8M45E4MDIGwioL3-1" source="WPF_yaL3plXFTtDsaAuI-11" target="WPF_yaL3plXFTtDsaAuI-6" edge="1">
          <mxGeometry relative="1" as="geometry" />
        </mxCell>
        <mxCell id="WPF_yaL3plXFTtDsaAuI-8" value="SI" style="edgeLabel;html=1;align=center;verticalAlign=middle;resizable=0;points=[];" parent="WPF_yaL3plXFTtDsaAuI-7" vertex="1" connectable="0">
          <mxGeometry x="0.2008" y="-1" relative="1" as="geometry">
            <mxPoint as="offset" />
          </mxGeometry>
        </mxCell>
        <mxCell id="WPF_yaL3plXFTtDsaAuI-9" style="edgeStyle=orthogonalEdgeStyle;rounded=0;orthogonalLoop=1;jettySize=auto;html=1;" parent="86kgg8M45E4MDIGwioL3-1" source="WPF_yaL3plXFTtDsaAuI-11" target="WPF_yaL3plXFTtDsaAuI-16" edge="1">
          <mxGeometry relative="1" as="geometry">
            <mxPoint x="330" y="900" as="targetPoint" />
          </mxGeometry>
        </mxCell>
        <mxCell id="WPF_yaL3plXFTtDsaAuI-10" value="NO" style="edgeLabel;html=1;align=center;verticalAlign=middle;resizable=0;points=[];" parent="WPF_yaL3plXFTtDsaAuI-9" vertex="1" connectable="0">
          <mxGeometry x="0.0818" y="1" relative="1" as="geometry">
            <mxPoint as="offset" />
          </mxGeometry>
        </mxCell>
        <mxCell id="WPF_yaL3plXFTtDsaAuI-11" value="¿Requieres ayuda con otro módulo?" style="rhombus;whiteSpace=wrap;html=1;fillColor=#d5e8d4;strokeColor=#82b366;" parent="86kgg8M45E4MDIGwioL3-1" vertex="1">
          <mxGeometry x="130" y="720" width="160" height="90" as="geometry" />
        </mxCell>
        <mxCell id="WPF_yaL3plXFTtDsaAuI-12" value="" style="edgeStyle=orthogonalEdgeStyle;rounded=0;orthogonalLoop=1;jettySize=auto;html=1;" parent="86kgg8M45E4MDIGwioL3-1" source="WPF_yaL3plXFTtDsaAuI-16" target="WPF_yaL3plXFTtDsaAuI-18" edge="1">
          <mxGeometry relative="1" as="geometry" />
        </mxCell>
        <mxCell id="WPF_yaL3plXFTtDsaAuI-13" value="Si" style="edgeLabel;html=1;align=center;verticalAlign=middle;resizable=0;points=[];" parent="WPF_yaL3plXFTtDsaAuI-12" vertex="1" connectable="0">
          <mxGeometry x="-0.2111" y="1" relative="1" as="geometry">
            <mxPoint as="offset" />
          </mxGeometry>
        </mxCell>
        <mxCell id="WPF_yaL3plXFTtDsaAuI-14" value="" style="edgeStyle=orthogonalEdgeStyle;rounded=0;orthogonalLoop=1;jettySize=auto;html=1;" parent="86kgg8M45E4MDIGwioL3-1" source="WPF_yaL3plXFTtDsaAuI-16" target="WPF_yaL3plXFTtDsaAuI-20" edge="1">
          <mxGeometry relative="1" as="geometry" />
        </mxCell>
        <mxCell id="WPF_yaL3plXFTtDsaAuI-15" value="NO" style="edgeLabel;html=1;align=center;verticalAlign=middle;resizable=0;points=[];" parent="WPF_yaL3plXFTtDsaAuI-14" vertex="1" connectable="0">
          <mxGeometry x="0.131" y="1" relative="1" as="geometry">
            <mxPoint as="offset" />
          </mxGeometry>
        </mxCell>
        <mxCell id="WPF_yaL3plXFTtDsaAuI-16" value="¿Resolví tú duda?" style="rhombus;whiteSpace=wrap;html=1;fillColor=#d5e8d4;strokeColor=#82b366;" parent="86kgg8M45E4MDIGwioL3-1" vertex="1">
          <mxGeometry x="290" y="860" width="80" height="80" as="geometry" />
        </mxCell>
        <mxCell id="WPF_yaL3plXFTtDsaAuI-17" value="" style="edgeStyle=orthogonalEdgeStyle;rounded=0;orthogonalLoop=1;jettySize=auto;html=1;" parent="86kgg8M45E4MDIGwioL3-1" source="WPF_yaL3plXFTtDsaAuI-18" target="WPF_yaL3plXFTtDsaAuI-23" edge="1">
          <mxGeometry relative="1" as="geometry" />
        </mxCell>
        <mxCell id="WPF_yaL3plXFTtDsaAuI-18" value="Encuesta" style="whiteSpace=wrap;html=1;fillColor=#d5e8d4;strokeColor=#82b366;" parent="86kgg8M45E4MDIGwioL3-1" vertex="1">
          <mxGeometry x="90" y="950" width="120" height="60" as="geometry" />
        </mxCell>
        <mxCell id="WPF_yaL3plXFTtDsaAuI-19" value="" style="edgeStyle=orthogonalEdgeStyle;rounded=0;orthogonalLoop=1;jettySize=auto;html=1;" parent="86kgg8M45E4MDIGwioL3-1" source="WPF_yaL3plXFTtDsaAuI-20" target="WPF_yaL3plXFTtDsaAuI-22" edge="1">
          <mxGeometry relative="1" as="geometry" />
        </mxCell>
        <mxCell id="WPF_yaL3plXFTtDsaAuI-20" value="Ingresa tú duda para ser enviada al equipo de información o comunícate directamente con alguien de ellos." style="whiteSpace=wrap;html=1;fillColor=#f8cecc;strokeColor=#b85450;" parent="86kgg8M45E4MDIGwioL3-1" vertex="1">
          <mxGeometry x="390" y="950" width="160" height="80" as="geometry" />
        </mxCell>
        <mxCell id="WPF_yaL3plXFTtDsaAuI-21" value="" style="edgeStyle=orthogonalEdgeStyle;rounded=0;orthogonalLoop=1;jettySize=auto;html=1;" parent="86kgg8M45E4MDIGwioL3-1" source="WPF_yaL3plXFTtDsaAuI-22" target="WPF_yaL3plXFTtDsaAuI-24" edge="1">
          <mxGeometry relative="1" as="geometry" />
        </mxCell>
        <mxCell id="WPF_yaL3plXFTtDsaAuI-22" value="Encuesta" style="whiteSpace=wrap;html=1;strokeColor=#82b366;fillColor=#d5e8d4;" parent="86kgg8M45E4MDIGwioL3-1" vertex="1">
          <mxGeometry x="410" y="1080" width="120" height="60" as="geometry" />
        </mxCell>
        <mxCell id="WPF_yaL3plXFTtDsaAuI-23" value="Despedida" style="whiteSpace=wrap;html=1;strokeColor=#82b366;fillColor=#d5e8d4;" parent="86kgg8M45E4MDIGwioL3-1" vertex="1">
          <mxGeometry x="90" y="1090" width="120" height="60" as="geometry" />
        </mxCell>
        <mxCell id="WPF_yaL3plXFTtDsaAuI-24" value="Despedida" style="whiteSpace=wrap;html=1;strokeColor=#82b366;fillColor=#d5e8d4;" parent="86kgg8M45E4MDIGwioL3-1" vertex="1">
          <mxGeometry x="410" y="1220" width="120" height="60" as="geometry" />
        </mxCell>
        <mxCell id="uDKULjw3OYat_Tei7g2C-2" value="Tema:&lt;br style=&quot;font-size: 19px;&quot;&gt;Regresar + nombre módulo" style="text;html=1;strokeColor=none;fillColor=none;align=center;verticalAlign=middle;whiteSpace=wrap;rounded=0;fontStyle=1;fontSize=19;" parent="86kgg8M45E4MDIGwioL3-1" vertex="1">
          <mxGeometry x="-446.5" y="880" width="273" height="20" as="geometry" />
        </mxCell>
        <mxCell id="uDKULjw3OYat_Tei7g2C-3" value="Tema:&lt;br style=&quot;font-size: 19px&quot;&gt;Resolví tú duda" style="text;html=1;strokeColor=none;fillColor=none;align=center;verticalAlign=middle;whiteSpace=wrap;rounded=0;fontStyle=1;fontSize=19;" parent="86kgg8M45E4MDIGwioL3-1" vertex="1">
          <mxGeometry x="320" y="740" width="273" height="20" as="geometry" />
        </mxCell>
        <mxCell id="ZRQfDMRfA0irFlxe_ICW-0" value="OK" style="text;html=1;strokeColor=none;fillColor=none;align=center;verticalAlign=middle;whiteSpace=wrap;rounded=0;fontSize=26;" parent="86kgg8M45E4MDIGwioL3-1" vertex="1">
          <mxGeometry x="580" y="1100" width="40" height="20" as="geometry" />
        </mxCell>
        <mxCell id="mZzGPnGImbsCsos1OTto-0" value="Correo por power automate (ver opción de registrar en una tabla de excel)" style="text;html=1;strokeColor=none;fillColor=none;align=center;verticalAlign=middle;whiteSpace=wrap;rounded=0;fontSize=23;fontStyle=3;fontColor=#99004D;" parent="86kgg8M45E4MDIGwioL3-1" vertex="1">
          <mxGeometry x="540" y="955" width="150" height="70" as="geometry" />
        </mxCell>
      </root>
    </mxGraphModel>
  </diagram>
  <diagram id="K1qL8LWjMz4vxPhvDQij" name="prueba">
    <mxGraphModel dx="786" dy="497" grid="1" gridSize="10" guides="1" tooltips="1" connect="1" arrows="1" fold="1" page="1" pageScale="1" pageWidth="827" pageHeight="1169" math="0" shadow="0">
      <root>
        <mxCell id="0" />
        <mxCell id="1" parent="0" />
        <mxCell id="4tjgoyMQu1mdO6Iw65qG-3" value="" style="edgeStyle=orthogonalEdgeStyle;rounded=0;orthogonalLoop=1;jettySize=auto;html=1;" parent="1" source="4tjgoyMQu1mdO6Iw65qG-1" target="4tjgoyMQu1mdO6Iw65qG-2" edge="1">
          <mxGeometry relative="1" as="geometry" />
        </mxCell>
        <mxCell id="4tjgoyMQu1mdO6Iw65qG-1" value="¡Hola &lt;b&gt;(nombre)&lt;/b&gt;!, soy ImBot.&lt;br&gt;Puedo ayudarte con preguntas de los siguientes módulos, selecciona la opción a consultar.&amp;nbsp;" style="rounded=0;whiteSpace=wrap;html=1;" parent="1" vertex="1">
          <mxGeometry x="332" y="150" width="184" height="90" as="geometry" />
        </mxCell>
        <mxCell id="G-MZ8Jo7Xy3JjOwAwonE-2" value="" style="edgeStyle=orthogonalEdgeStyle;rounded=0;orthogonalLoop=1;jettySize=auto;html=1;fontSize=10;" parent="1" source="4tjgoyMQu1mdO6Iw65qG-2" target="G-MZ8Jo7Xy3JjOwAwonE-1" edge="1">
          <mxGeometry relative="1" as="geometry">
            <Array as="points">
              <mxPoint x="424" y="620" />
              <mxPoint x="239" y="620" />
            </Array>
          </mxGeometry>
        </mxCell>
        <mxCell id="KhbHEI1GEvNn1TnLSzVK-2" value="" style="edgeStyle=orthogonalEdgeStyle;rounded=0;orthogonalLoop=1;jettySize=auto;html=1;fontSize=10;" parent="1" source="4tjgoyMQu1mdO6Iw65qG-2" target="KhbHEI1GEvNn1TnLSzVK-1" edge="1">
          <mxGeometry relative="1" as="geometry">
            <Array as="points">
              <mxPoint x="424" y="620" />
              <mxPoint x="289" y="620" />
            </Array>
          </mxGeometry>
        </mxCell>
        <mxCell id="KhbHEI1GEvNn1TnLSzVK-6" value="" style="edgeStyle=orthogonalEdgeStyle;rounded=0;orthogonalLoop=1;jettySize=auto;html=1;fontSize=10;" parent="1" source="4tjgoyMQu1mdO6Iw65qG-2" target="KhbHEI1GEvNn1TnLSzVK-5" edge="1">
          <mxGeometry relative="1" as="geometry">
            <Array as="points">
              <mxPoint x="424" y="620" />
              <mxPoint x="339" y="620" />
            </Array>
          </mxGeometry>
        </mxCell>
        <mxCell id="KhbHEI1GEvNn1TnLSzVK-8" value="" style="edgeStyle=orthogonalEdgeStyle;rounded=0;orthogonalLoop=1;jettySize=auto;html=1;fontSize=10;" parent="1" source="4tjgoyMQu1mdO6Iw65qG-2" target="KhbHEI1GEvNn1TnLSzVK-7" edge="1">
          <mxGeometry relative="1" as="geometry">
            <Array as="points">
              <mxPoint x="424" y="620" />
              <mxPoint x="389" y="620" />
            </Array>
          </mxGeometry>
        </mxCell>
        <mxCell id="KhbHEI1GEvNn1TnLSzVK-10" value="" style="edgeStyle=orthogonalEdgeStyle;rounded=0;orthogonalLoop=1;jettySize=auto;html=1;fontSize=10;" parent="1" source="4tjgoyMQu1mdO6Iw65qG-2" target="KhbHEI1GEvNn1TnLSzVK-9" edge="1">
          <mxGeometry relative="1" as="geometry" />
        </mxCell>
        <mxCell id="KhbHEI1GEvNn1TnLSzVK-12" value="" style="edgeStyle=orthogonalEdgeStyle;rounded=0;orthogonalLoop=1;jettySize=auto;html=1;fontSize=10;" parent="1" source="4tjgoyMQu1mdO6Iw65qG-2" target="KhbHEI1GEvNn1TnLSzVK-11" edge="1">
          <mxGeometry relative="1" as="geometry">
            <Array as="points">
              <mxPoint x="424" y="620" />
              <mxPoint x="489" y="620" />
            </Array>
          </mxGeometry>
        </mxCell>
        <mxCell id="KhbHEI1GEvNn1TnLSzVK-14" value="" style="edgeStyle=orthogonalEdgeStyle;rounded=0;orthogonalLoop=1;jettySize=auto;html=1;fontSize=10;" parent="1" source="4tjgoyMQu1mdO6Iw65qG-2" target="KhbHEI1GEvNn1TnLSzVK-13" edge="1">
          <mxGeometry relative="1" as="geometry">
            <Array as="points">
              <mxPoint x="424" y="620" />
              <mxPoint x="539" y="620" />
            </Array>
          </mxGeometry>
        </mxCell>
        <mxCell id="KhbHEI1GEvNn1TnLSzVK-16" value="" style="edgeStyle=orthogonalEdgeStyle;rounded=0;orthogonalLoop=1;jettySize=auto;html=1;fontSize=10;" parent="1" source="4tjgoyMQu1mdO6Iw65qG-2" target="KhbHEI1GEvNn1TnLSzVK-15" edge="1">
          <mxGeometry relative="1" as="geometry">
            <Array as="points">
              <mxPoint x="424" y="620" />
              <mxPoint x="589" y="620" />
            </Array>
          </mxGeometry>
        </mxCell>
        <mxCell id="4tjgoyMQu1mdO6Iw65qG-2" value="&lt;b&gt;Menú de módulos&lt;/b&gt;&lt;br&gt;1.&amp;nbsp;&lt;span style=&quot;color: rgb(68 , 68 , 68) ; font-family: &amp;#34;calibri&amp;#34; , sans-serif , &amp;#34;mongolian baiti&amp;#34; , &amp;#34;microsoft yi baiti&amp;#34; , &amp;#34;javanese text&amp;#34; , &amp;#34;yu gothic&amp;#34; ; font-size: 14.6667px ; text-align: left ; background-color: rgb(255 , 255 , 255)&quot;&gt;Solicitud Mayor&lt;br&gt;2.&amp;nbsp;&lt;/span&gt;&lt;span style=&quot;color: rgb(68 , 68 , 68) ; font-family: &amp;#34;calibri&amp;#34; , sans-serif , &amp;#34;mongolian baiti&amp;#34; , &amp;#34;microsoft yi baiti&amp;#34; , &amp;#34;javanese text&amp;#34; , &amp;#34;yu gothic&amp;#34; ; font-size: 14.6667px ; text-align: left ; background-color: rgb(255 , 255 , 255)&quot;&gt;Aviso mayor&lt;br&gt;&lt;/span&gt;&lt;span style=&quot;color: rgb(68 , 68 , 68) ; font-family: &amp;#34;calibri&amp;#34; , sans-serif , &amp;#34;mongolian baiti&amp;#34; , &amp;#34;microsoft yi baiti&amp;#34; , &amp;#34;javanese text&amp;#34; , &amp;#34;yu gothic&amp;#34; ; font-size: 14.6667px ; text-align: left ; background-color: rgb(255 , 255 , 255)&quot;&gt;3.&amp;nbsp;&lt;/span&gt;&lt;span style=&quot;color: rgb(68 , 68 , 68) ; font-family: &amp;#34;calibri&amp;#34; , sans-serif , &amp;#34;mongolian baiti&amp;#34; , &amp;#34;microsoft yi baiti&amp;#34; , &amp;#34;javanese text&amp;#34; , &amp;#34;yu gothic&amp;#34; ; font-size: 14.6667px ; text-align: left ; background-color: rgb(255 , 255 , 255)&quot;&gt;Solicitud garantías &lt;br&gt;&lt;/span&gt;&lt;span style=&quot;color: rgb(68 , 68 , 68) ; font-family: &amp;#34;calibri&amp;#34; , sans-serif , &amp;#34;mongolian baiti&amp;#34; , &amp;#34;microsoft yi baiti&amp;#34; , &amp;#34;javanese text&amp;#34; , &amp;#34;yu gothic&amp;#34; ; font-size: 14.6667px ; text-align: left ; background-color: rgb(255 , 255 , 255)&quot;&gt;4.&amp;nbsp;&lt;/span&gt;&lt;span style=&quot;color: rgb(68 , 68 , 68) ; font-family: &amp;#34;calibri&amp;#34; , sans-serif , &amp;#34;mongolian baiti&amp;#34; , &amp;#34;microsoft yi baiti&amp;#34; , &amp;#34;javanese text&amp;#34; , &amp;#34;yu gothic&amp;#34; ; font-size: 14.6667px ; text-align: left ; background-color: rgb(255 , 255 , 255)&quot;&gt;Ajustes de estructuras &lt;br&gt;&lt;/span&gt;&lt;span style=&quot;color: rgb(68 , 68 , 68) ; font-family: &amp;#34;calibri&amp;#34; , sans-serif , &amp;#34;mongolian baiti&amp;#34; , &amp;#34;microsoft yi baiti&amp;#34; , &amp;#34;javanese text&amp;#34; , &amp;#34;yu gothic&amp;#34; ; font-size: 14.6667px ; text-align: left ; background-color: rgb(255 , 255 , 255)&quot;&gt;5.&amp;nbsp;&lt;/span&gt;&lt;span style=&quot;color: rgb(68 , 68 , 68) ; font-family: &amp;#34;calibri&amp;#34; , sans-serif , &amp;#34;mongolian baiti&amp;#34; , &amp;#34;microsoft yi baiti&amp;#34; , &amp;#34;javanese text&amp;#34; , &amp;#34;yu gothic&amp;#34; ; font-size: 14.6667px ; text-align: left ; background-color: rgb(255 , 255 , 255)&quot;&gt;BOMS&lt;br&gt;&lt;/span&gt;&lt;span style=&quot;color: rgb(68 , 68 , 68) ; font-family: &amp;#34;calibri&amp;#34; , sans-serif , &amp;#34;mongolian baiti&amp;#34; , &amp;#34;microsoft yi baiti&amp;#34; , &amp;#34;javanese text&amp;#34; , &amp;#34;yu gothic&amp;#34; ; font-size: 14.6667px ; text-align: left ; background-color: rgb(255 , 255 , 255)&quot;&gt;6.&amp;nbsp;&lt;/span&gt;&lt;span style=&quot;color: rgb(68 , 68 , 68) ; font-family: &amp;#34;calibri&amp;#34; , sans-serif , &amp;#34;mongolian baiti&amp;#34; , &amp;#34;microsoft yi baiti&amp;#34; , &amp;#34;javanese text&amp;#34; , &amp;#34;yu gothic&amp;#34; ; font-size: 14.6667px ; text-align: left ; background-color: rgb(255 , 255 , 255)&quot;&gt;Altas de materiales &lt;br&gt;&lt;/span&gt;&lt;span style=&quot;color: rgb(68 , 68 , 68) ; font-family: &amp;#34;calibri&amp;#34; , sans-serif , &amp;#34;mongolian baiti&amp;#34; , &amp;#34;microsoft yi baiti&amp;#34; , &amp;#34;javanese text&amp;#34; , &amp;#34;yu gothic&amp;#34; ; font-size: 14.6667px ; text-align: left ; background-color: rgb(255 , 255 , 255)&quot;&gt;7.&amp;nbsp;&lt;/span&gt;&lt;span style=&quot;color: rgb(68 , 68 , 68) ; font-family: &amp;#34;calibri&amp;#34; , sans-serif , &amp;#34;mongolian baiti&amp;#34; , &amp;#34;microsoft yi baiti&amp;#34; , &amp;#34;javanese text&amp;#34; , &amp;#34;yu gothic&amp;#34; ; font-size: 14.6667px ; text-align: left ; background-color: rgb(255 , 255 , 255)&quot;&gt;MMM&lt;br&gt;&lt;/span&gt;&lt;span style=&quot;color: rgb(68 , 68 , 68) ; font-family: &amp;#34;calibri&amp;#34; , sans-serif , &amp;#34;mongolian baiti&amp;#34; , &amp;#34;microsoft yi baiti&amp;#34; , &amp;#34;javanese text&amp;#34; , &amp;#34;yu gothic&amp;#34; ; font-size: 14.6667px ; text-align: left ; background-color: rgb(255 , 255 , 255)&quot;&gt;8.&amp;nbsp;&lt;/span&gt;&lt;span style=&quot;color: rgb(68 , 68 , 68) ; font-family: &amp;#34;calibri&amp;#34; , sans-serif , &amp;#34;mongolian baiti&amp;#34; , &amp;#34;microsoft yi baiti&amp;#34; , &amp;#34;javanese text&amp;#34; , &amp;#34;yu gothic&amp;#34; ; font-size: 14.6667px ; text-align: left ; background-color: rgb(255 , 255 , 255)&quot;&gt;Solicitud menor&lt;/span&gt;&lt;span style=&quot;color: rgb(68 , 68 , 68) ; font-family: &amp;#34;calibri&amp;#34; , sans-serif , &amp;#34;mongolian baiti&amp;#34; , &amp;#34;microsoft yi baiti&amp;#34; , &amp;#34;javanese text&amp;#34; , &amp;#34;yu gothic&amp;#34; ; font-size: 14.6667px ; text-align: left ; background-color: rgb(255 , 255 , 255)&quot;&gt;&lt;br&gt;&lt;/span&gt;" style="rounded=0;whiteSpace=wrap;html=1;" parent="1" vertex="1">
          <mxGeometry x="289" y="390" width="270" height="160" as="geometry" />
        </mxCell>
        <UserObject label="1" link="data:page/id,Kiqp1y39vQRMJ9riBXQb" id="G-MZ8Jo7Xy3JjOwAwonE-1">
          <mxCell style="whiteSpace=wrap;html=1;rounded=0;" parent="1" vertex="1">
            <mxGeometry x="219" y="690" width="40" height="60" as="geometry" />
          </mxCell>
        </UserObject>
        <UserObject label="2" link="data:page/id,KD6LMxfnMNTXZ5h_aJvF" id="KhbHEI1GEvNn1TnLSzVK-1">
          <mxCell style="whiteSpace=wrap;html=1;rounded=0;" parent="1" vertex="1">
            <mxGeometry x="269" y="690" width="40" height="60" as="geometry" />
          </mxCell>
        </UserObject>
        <UserObject label="3" link="data:page/id,tNUe5tWFO01QcW7D_SEj" id="KhbHEI1GEvNn1TnLSzVK-5">
          <mxCell style="whiteSpace=wrap;html=1;rounded=0;" parent="1" vertex="1">
            <mxGeometry x="319" y="690" width="40" height="60" as="geometry" />
          </mxCell>
        </UserObject>
        <UserObject label="4" link="data:page/id,M-SpBoQDapPKxa1CvpDH" id="KhbHEI1GEvNn1TnLSzVK-7">
          <mxCell style="whiteSpace=wrap;html=1;rounded=0;" parent="1" vertex="1">
            <mxGeometry x="369" y="690" width="40" height="60" as="geometry" />
          </mxCell>
        </UserObject>
        <UserObject label="5" link="data:page/id,fUwnHYFHqpIb6uxigT5R" id="KhbHEI1GEvNn1TnLSzVK-9">
          <mxCell style="whiteSpace=wrap;html=1;rounded=0;" parent="1" vertex="1">
            <mxGeometry x="419" y="690" width="40" height="60" as="geometry" />
          </mxCell>
        </UserObject>
        <UserObject label="6" link="data:page/id,8eCEHtoxQRxR08vLJhsJ" id="KhbHEI1GEvNn1TnLSzVK-11">
          <mxCell style="whiteSpace=wrap;html=1;rounded=0;" parent="1" vertex="1">
            <mxGeometry x="469" y="690" width="40" height="60" as="geometry" />
          </mxCell>
        </UserObject>
        <UserObject label="7" link="data:page/id,B7dlH4Aojz8JjoXW3sHu" id="KhbHEI1GEvNn1TnLSzVK-13">
          <mxCell style="whiteSpace=wrap;html=1;rounded=0;" parent="1" vertex="1">
            <mxGeometry x="519" y="690" width="40" height="60" as="geometry" />
          </mxCell>
        </UserObject>
        <UserObject label="8" link="data:page/id,G4u_pkSomlROims-IxfI" id="KhbHEI1GEvNn1TnLSzVK-15">
          <mxCell style="whiteSpace=wrap;html=1;rounded=0;" parent="1" vertex="1">
            <mxGeometry x="569" y="690" width="40" height="60" as="geometry" />
          </mxCell>
        </UserObject>
        <mxCell id="H2PuwrK084du7t86IAy4-1" value="Opción por botones" style="text;html=1;strokeColor=#d6b656;fillColor=#fff2cc;align=center;verticalAlign=middle;whiteSpace=wrap;rounded=0;" parent="1" vertex="1">
          <mxGeometry x="600" y="430" width="130" height="40" as="geometry" />
        </mxCell>
        <mxCell id="WyeiB2Mnx_PeULUEvYwX-1" value="¡Fue un placer ayudarte!,&lt;b&gt; Califícame aquí &lt;/b&gt;para saber como fue tú experiencia&amp;nbsp;" style="rounded=0;whiteSpace=wrap;html=1;" parent="1" vertex="1">
          <mxGeometry x="359.5" y="895" width="129" height="80" as="geometry" />
        </mxCell>
        <mxCell id="rRm63M6i1uccZNA8FGrB-1" value="Saludo" style="text;html=1;strokeColor=#d6b656;fillColor=#fff2cc;align=center;verticalAlign=middle;whiteSpace=wrap;rounded=0;" parent="1" vertex="1">
          <mxGeometry x="569" y="170" width="130" height="40" as="geometry" />
        </mxCell>
        <mxCell id="rRm63M6i1uccZNA8FGrB-2" value="Despedida" style="text;html=1;strokeColor=#d6b656;fillColor=#fff2cc;align=center;verticalAlign=middle;whiteSpace=wrap;rounded=0;" parent="1" vertex="1">
          <mxGeometry x="600" y="895" width="130" height="40" as="geometry" />
        </mxCell>
      </root>
    </mxGraphModel>
  </diagram>
  <diagram id="G4u_pkSomlROims-IxfI" name="8. Solicitud menor">
    <mxGraphModel dx="3197" dy="3608" grid="1" gridSize="10" guides="1" tooltips="1" connect="1" arrows="1" fold="1" page="1" pageScale="1" pageWidth="827" pageHeight="1169" math="0" shadow="0">
      <root>
        <mxCell id="C6nuiG1XKlpZaPa2wWxm-0" />
        <mxCell id="C6nuiG1XKlpZaPa2wWxm-1" parent="C6nuiG1XKlpZaPa2wWxm-0" />
        <mxCell id="1Y54z860Rkbxnax6XckA-1" style="edgeStyle=orthogonalEdgeStyle;rounded=0;orthogonalLoop=1;jettySize=auto;html=1;entryX=0.5;entryY=0;entryDx=0;entryDy=0;fontSize=10;exitX=0;exitY=0;exitDx=285;exitDy=280;exitPerimeter=0;" parent="C6nuiG1XKlpZaPa2wWxm-1" source="1Y54z860Rkbxnax6XckA-5" target="1Y54z860Rkbxnax6XckA-7" edge="1">
          <mxGeometry relative="1" as="geometry">
            <Array as="points">
              <mxPoint x="-415" y="-1970" />
              <mxPoint x="-595" y="-1970" />
            </Array>
          </mxGeometry>
        </mxCell>
        <mxCell id="1Y54z860Rkbxnax6XckA-2" style="edgeStyle=orthogonalEdgeStyle;rounded=0;orthogonalLoop=1;jettySize=auto;html=1;entryX=0.5;entryY=0;entryDx=0;entryDy=0;fontSize=10;exitX=0;exitY=0;exitDx=285;exitDy=280;exitPerimeter=0;" parent="C6nuiG1XKlpZaPa2wWxm-1" source="1Y54z860Rkbxnax6XckA-5" target="1Y54z860Rkbxnax6XckA-10" edge="1">
          <mxGeometry relative="1" as="geometry">
            <Array as="points">
              <mxPoint x="-415" y="-1970" />
            </Array>
          </mxGeometry>
        </mxCell>
        <mxCell id="1Y54z860Rkbxnax6XckA-3" style="edgeStyle=orthogonalEdgeStyle;rounded=0;orthogonalLoop=1;jettySize=auto;html=1;fontSize=10;exitX=0;exitY=0;exitDx=285;exitDy=280;exitPerimeter=0;" parent="C6nuiG1XKlpZaPa2wWxm-1" source="1Y54z860Rkbxnax6XckA-5" target="1Y54z860Rkbxnax6XckA-13" edge="1">
          <mxGeometry relative="1" as="geometry">
            <Array as="points">
              <mxPoint x="-235" y="-1970" />
            </Array>
          </mxGeometry>
        </mxCell>
        <mxCell id="1Y54z860Rkbxnax6XckA-5" value="&lt;div&gt;&lt;div&gt;1. ¿Cuáles son las consideraciones para pasar un aviso menor?&lt;/div&gt;&lt;div&gt;2. ¿A qué configuración se puede cambiar con solicitud menor?&lt;/div&gt;&lt;div&gt;3. Consideraciones de metálicos&lt;/div&gt;&lt;/div&gt;" style="shape=callout;whiteSpace=wrap;html=1;perimeter=calloutPerimeter;fillColor=#d5e8d4;strokeColor=#82b366;align=left;" parent="C6nuiG1XKlpZaPa2wWxm-1" vertex="1">
          <mxGeometry x="-700" y="-2320" width="570" height="280" as="geometry" />
        </mxCell>
        <mxCell id="1Y54z860Rkbxnax6XckA-6" value="" style="group;align=left;fontStyle=1;fontSize=8;" parent="C6nuiG1XKlpZaPa2wWxm-1" vertex="1" connectable="0">
          <mxGeometry x="-680" y="-1890" width="190" height="230" as="geometry" />
        </mxCell>
        <mxCell id="1Y54z860Rkbxnax6XckA-7" value="&lt;p class=&quot;MsoListParagraphCxSpFirst&quot; style=&quot;text-indent: -18pt; font-size: 9px;&quot;&gt;&lt;/p&gt;&lt;div style=&quot;text-align: left; font-size: 9px;&quot;&gt;&lt;b style=&quot;font-size: 9px;&quot;&gt;1. Que los materiales que se desean ajustar sean componentes de línea y no sean críticos (mínimo 10 variantes activos, no se considera PRO, INH, OBS).&lt;/b&gt;&lt;/div&gt;&lt;div style=&quot;text-align: left; font-size: 9px;&quot;&gt;&lt;b style=&quot;font-size: 9px;&quot;&gt;2. Que no afecte considerablemente el costo (Incremento o disminución no mayor a $50.00).&lt;/b&gt;&lt;/div&gt;&lt;div style=&quot;text-align: left; font-size: 9px;&quot;&gt;&lt;b style=&quot;font-size: 9px;&quot;&gt;3. Que no se pretenda hacer obsoletos los materiales.&amp;nbsp;&lt;/b&gt;&lt;/div&gt;&lt;div style=&quot;text-align: left; font-size: 9px;&quot;&gt;&lt;b style=&quot;font-size: 9px;&quot;&gt;4. Que no afecte planos.&amp;nbsp;&lt;/b&gt;&lt;/div&gt;&lt;div style=&quot;text-align: left; font-size: 9px;&quot;&gt;&lt;b style=&quot;font-size: 9px;&quot;&gt;5. Que no se afecte considerablemente el MRP (que el material tenga inventario, que No se elimine de la mayoría de las estructuras)&lt;/b&gt;&lt;/div&gt;&lt;div style=&quot;text-align: left; font-size: 9px;&quot;&gt;&lt;br style=&quot;font-size: 9px;&quot;&gt;&lt;/div&gt;" style="whiteSpace=wrap;html=1;aspect=fixed;fontSize=9;" parent="1Y54z860Rkbxnax6XckA-6" vertex="1">
          <mxGeometry y="18.4" width="170" height="170" as="geometry" />
        </mxCell>
        <mxCell id="1Y54z860Rkbxnax6XckA-8" value="&lt;b&gt;1&lt;/b&gt;" style="text;html=1;strokeColor=none;fillColor=none;align=center;verticalAlign=middle;whiteSpace=wrap;rounded=0;" parent="1Y54z860Rkbxnax6XckA-6" vertex="1">
          <mxGeometry width="31.55709342560554" height="15.86206896551724" as="geometry" />
        </mxCell>
        <mxCell id="1Y54z860Rkbxnax6XckA-9" value="" style="group;align=left;fontStyle=1;fontSize=8;" parent="C6nuiG1XKlpZaPa2wWxm-1" vertex="1" connectable="0">
          <mxGeometry x="-500" y="-1890" width="260" height="240" as="geometry" />
        </mxCell>
        <mxCell id="1Y54z860Rkbxnax6XckA-10" value="&lt;p class=&quot;MsoListParagraphCxSpFirst&quot; style=&quot;text-indent: -18pt ; font-size: 10px&quot;&gt;&lt;/p&gt;&lt;div style=&quot;text-align: left&quot;&gt;&lt;p class=&quot;MsoNormal&quot;&gt;&lt;font color=&quot;#444444&quot;&gt;A producción y ficticio siempre y cuando no se modifique la estructura.&lt;/font&gt;&lt;br&gt;&lt;/p&gt;&lt;/div&gt;" style="whiteSpace=wrap;html=1;aspect=fixed;fontSize=10;" parent="1Y54z860Rkbxnax6XckA-9" vertex="1">
          <mxGeometry y="18.4" width="170" height="170" as="geometry" />
        </mxCell>
        <mxCell id="1Y54z860Rkbxnax6XckA-11" value="&lt;b&gt;2&lt;/b&gt;" style="text;html=1;strokeColor=none;fillColor=none;align=center;verticalAlign=middle;whiteSpace=wrap;rounded=0;" parent="1Y54z860Rkbxnax6XckA-9" vertex="1">
          <mxGeometry width="31.55709342560554" height="15.86206896551724" as="geometry" />
        </mxCell>
        <mxCell id="1Y54z860Rkbxnax6XckA-12" value="" style="group;align=left;fontStyle=1;fontSize=8;" parent="1Y54z860Rkbxnax6XckA-9" vertex="1" connectable="0">
          <mxGeometry x="180" width="190" height="230" as="geometry" />
        </mxCell>
        <mxCell id="1Y54z860Rkbxnax6XckA-13" value="&lt;p class=&quot;MsoListParagraphCxSpFirst&quot; style=&quot;text-indent: -18pt ; font-size: 10px&quot;&gt;&lt;/p&gt;&lt;div&gt;&lt;p class=&quot;MsoNormal&quot;&gt;&lt;/p&gt;&lt;div style=&quot;text-align: left&quot;&gt;&lt;font color=&quot;#444444&quot;&gt;Agregar/eliminar/ajustar soldadura y pintura (Solo aplica para bases gabinete).&lt;/font&gt;&lt;br&gt;&lt;/div&gt;&lt;p&gt;&lt;/p&gt;&lt;/div&gt;" style="whiteSpace=wrap;html=1;aspect=fixed;fontSize=10;labelBorderColor=none;labelBackgroundColor=none;" parent="1Y54z860Rkbxnax6XckA-12" vertex="1">
          <mxGeometry y="18.4" width="170" height="170" as="geometry" />
        </mxCell>
        <mxCell id="1Y54z860Rkbxnax6XckA-14" value="&lt;b&gt;3&lt;/b&gt;" style="text;html=1;strokeColor=none;fillColor=none;align=center;verticalAlign=middle;whiteSpace=wrap;rounded=0;" parent="1Y54z860Rkbxnax6XckA-12" vertex="1">
          <mxGeometry width="31.55709342560554" height="15.86206896551724" as="geometry" />
        </mxCell>
        <mxCell id="1Y54z860Rkbxnax6XckA-27" style="edgeStyle=orthogonalEdgeStyle;rounded=0;orthogonalLoop=1;jettySize=auto;html=1;fontSize=10;" parent="C6nuiG1XKlpZaPa2wWxm-1" source="1Y54z860Rkbxnax6XckA-7" edge="1">
          <mxGeometry relative="1" as="geometry">
            <Array as="points">
              <mxPoint x="-595" y="-1610" />
              <mxPoint x="125" y="-1610" />
            </Array>
            <mxPoint x="125" y="-1560" as="targetPoint" />
          </mxGeometry>
        </mxCell>
        <mxCell id="1Y54z860Rkbxnax6XckA-28" style="edgeStyle=orthogonalEdgeStyle;rounded=0;orthogonalLoop=1;jettySize=auto;html=1;entryX=0.5;entryY=0;entryDx=0;entryDy=0;entryPerimeter=0;fontSize=10;" parent="C6nuiG1XKlpZaPa2wWxm-1" source="1Y54z860Rkbxnax6XckA-10" edge="1">
          <mxGeometry relative="1" as="geometry">
            <Array as="points">
              <mxPoint x="-415" y="-1610" />
              <mxPoint x="125" y="-1610" />
            </Array>
            <mxPoint x="125" y="-1560" as="targetPoint" />
          </mxGeometry>
        </mxCell>
        <mxCell id="1Y54z860Rkbxnax6XckA-29" style="edgeStyle=orthogonalEdgeStyle;rounded=0;orthogonalLoop=1;jettySize=auto;html=1;entryX=0.5;entryY=0;entryDx=0;entryDy=0;entryPerimeter=0;fontSize=10;" parent="C6nuiG1XKlpZaPa2wWxm-1" source="1Y54z860Rkbxnax6XckA-13" edge="1">
          <mxGeometry relative="1" as="geometry">
            <Array as="points">
              <mxPoint x="-235" y="-1610" />
              <mxPoint x="125" y="-1610" />
            </Array>
            <mxPoint x="125" y="-1560" as="targetPoint" />
          </mxGeometry>
        </mxCell>
      </root>
    </mxGraphModel>
  </diagram>
  <diagram id="kVKd7xBeBWr_mUP60LoN" name="BOMS">
    <mxGraphModel dx="2370" dy="1270" grid="1" gridSize="10" guides="1" tooltips="1" connect="1" arrows="1" fold="1" page="1" pageScale="1" pageWidth="850" pageHeight="1100" math="0" shadow="0">
      <root>
        <mxCell id="h-V_TkAxEfI6E8n3z3sO-0" />
        <mxCell id="h-V_TkAxEfI6E8n3z3sO-1" parent="h-V_TkAxEfI6E8n3z3sO-0" />
        <mxCell id="h-V_TkAxEfI6E8n3z3sO-2" value="&lt;div&gt;1.¿Cuándo aplica un nuevo configurable con su PTO BASE y variante?&lt;/div&gt;&lt;div&gt;2.¿Cómo saber si la estructura está preparada para generar un variante (con ensambles BTO)?&lt;/div&gt;&lt;div&gt;3.¿Dónde puedo consultar la nomenclatura de producto terminado?&lt;/div&gt;&lt;div&gt;4.¿Qué hacer si quiero agregar un nuevo ensamble o material que no está indicado en la guía de BTO?&lt;/div&gt;&lt;div&gt;5.¿Cuándo se puede usar un GAE existente?&lt;/div&gt;&lt;div&gt;6.¿Cuándo aplica un nuevo GAE?&lt;/div&gt;&lt;div&gt;7.¿Cuándo aplica la configuración make to order?&lt;/div&gt;&lt;div&gt;8.¿Cuándo aplica indicar el campo Inf.Fabricación?&lt;/div&gt;&lt;div&gt;9.¿Cuándo aplica generar un variante?&lt;/div&gt;" style="rounded=1;whiteSpace=wrap;html=1;fontSize=12;glass=0;strokeWidth=1;shadow=0;" parent="h-V_TkAxEfI6E8n3z3sO-1" vertex="1">
          <mxGeometry x="210" y="80" width="570" height="170" as="geometry" />
        </mxCell>
        <mxCell id="h-V_TkAxEfI6E8n3z3sO-3" value="&lt;span style=&quot;font-family: &amp;#34;calibri&amp;#34; , &amp;#34;segoe ui&amp;#34; , &amp;#34;calibri&amp;#34; , &amp;#34;thonburi&amp;#34; , &amp;#34;arial&amp;#34; , &amp;#34;verdana&amp;#34; , sans-serif , &amp;#34;mongolian baiti&amp;#34; , &amp;#34;microsoft yi baiti&amp;#34; , &amp;#34;javanese text&amp;#34; ; font-size: 14.6667px ; background-color: rgb(255 , 255 , 255)&quot;&gt;1. Nomenclatura nueva: http://empmpdm.fn.dne/Windchill/app/#ptc1/tcomp/infoPage?oid=VR%3Awt.doc.WTDocument%3A183382720&amp;amp;ContainerOid=OR%3Awt.inf.library.WTLibrary%3A34663032&amp;amp;u8=1&lt;br/&gt;2. Nomenclatura anterior: http://empmpdm.fn.dne/Windchill/app/#ptc1/tcomp/infoPage?oid=VR%3Awt.doc.WTDocument%3A194041404&amp;amp;ContainerOid=OR%3Awt.inf.library.WTLibrary%3A34663032&amp;amp;u8=1&lt;/span&gt;" style="rounded=1;whiteSpace=wrap;html=1;fontSize=12;glass=0;strokeWidth=1;shadow=0;" parent="h-V_TkAxEfI6E8n3z3sO-1" vertex="1">
          <mxGeometry x="30" y="680" width="740" height="100" as="geometry" />
        </mxCell>
        <mxCell id="h-V_TkAxEfI6E8n3z3sO-4" value="&lt;span style=&quot;font-family: &amp;#34;calibri&amp;#34; , &amp;#34;segoe ui&amp;#34; , &amp;#34;calibri&amp;#34; , &amp;#34;thonburi&amp;#34; , &amp;#34;arial&amp;#34; , &amp;#34;verdana&amp;#34; , sans-serif , &amp;#34;mongolian baiti&amp;#34; , &amp;#34;microsoft yi baiti&amp;#34; , &amp;#34;javanese text&amp;#34; ; font-size: 14.6667px ; background-color: rgb(255 , 255 , 255)&quot;&gt;1. Cuando se tenga un nuevo modelo&lt;br/&gt;2. Cuando cambie o sea un nuevo sistema de refrigeración&lt;br/&gt;3. Cuando cambie el tipo de control&lt;br/&gt;4. Cuando la construcción tiene requerimientos especificos (ejemplo: cambia por barrenos de antena u otros componentes, es tipo NGD, más frío, etc.)&lt;/span&gt;" style="rounded=1;whiteSpace=wrap;html=1;fontSize=12;glass=0;strokeWidth=1;shadow=0;" parent="h-V_TkAxEfI6E8n3z3sO-1" vertex="1">
          <mxGeometry x="20" y="350" width="120" height="320" as="geometry" />
        </mxCell>
        <mxCell id="h-V_TkAxEfI6E8n3z3sO-5" value="&lt;span style=&quot;color: rgb(68 , 68 , 68) ; font-family: &amp;#34;calibri&amp;#34; , sans-serif , &amp;#34;mongolian baiti&amp;#34; , &amp;#34;microsoft yi baiti&amp;#34; , &amp;#34;javanese text&amp;#34; , &amp;#34;yu gothic&amp;#34; ; font-size: 14.6667px ; text-align: left ; background-color: rgb(255 , 255 , 255)&quot;&gt;Que en estructura contenga subensambles (ejemplo SE GAB, SE ARNES, SE ILUM, SE CONTROL, etc).&lt;/span&gt;" style="rounded=1;whiteSpace=wrap;html=1;fontSize=12;glass=0;strokeWidth=1;shadow=0;" parent="h-V_TkAxEfI6E8n3z3sO-1" vertex="1">
          <mxGeometry x="170" y="350" width="120" height="110" as="geometry" />
        </mxCell>
        <mxCell id="h-V_TkAxEfI6E8n3z3sO-6" value="" style="endArrow=classic;html=1;exitX=0.5;exitY=1;exitDx=0;exitDy=0;entryX=0.5;entryY=0;entryDx=0;entryDy=0;" parent="h-V_TkAxEfI6E8n3z3sO-1" target="h-V_TkAxEfI6E8n3z3sO-2" edge="1">
          <mxGeometry width="50" height="50" relative="1" as="geometry">
            <mxPoint x="495" y="60" as="sourcePoint" />
            <mxPoint x="760" y="360" as="targetPoint" />
          </mxGeometry>
        </mxCell>
        <mxCell id="h-V_TkAxEfI6E8n3z3sO-7" value="" style="endArrow=classic;html=1;exitX=0.5;exitY=1;exitDx=0;exitDy=0;" parent="h-V_TkAxEfI6E8n3z3sO-1" source="h-V_TkAxEfI6E8n3z3sO-2" edge="1">
          <mxGeometry width="50" height="50" relative="1" as="geometry">
            <mxPoint x="710" y="410" as="sourcePoint" />
            <mxPoint x="495" y="320" as="targetPoint" />
          </mxGeometry>
        </mxCell>
        <mxCell id="h-V_TkAxEfI6E8n3z3sO-8" value="" style="endArrow=none;html=1;" parent="h-V_TkAxEfI6E8n3z3sO-1" edge="1">
          <mxGeometry width="50" height="50" relative="1" as="geometry">
            <mxPoint x="80" y="320" as="sourcePoint" />
            <mxPoint x="1020" y="320" as="targetPoint" />
          </mxGeometry>
        </mxCell>
        <mxCell id="h-V_TkAxEfI6E8n3z3sO-9" value="&lt;span style=&quot;text-align: left ; background-color: rgb(255 , 255 , 255)&quot;&gt;&lt;font color=&quot;#444444&quot; face=&quot;Calibri, sans-serif, Mongolian Baiti, Microsoft Yi Baiti, Javanese Text, Yu Gothic&quot;&gt;&lt;span style=&quot;font-size: 14.6667px&quot;&gt;Cuando ventas indica que sea de este tipo porque lleva datos ligados de cliente con numeración&amp;nbsp;serial de Imbera.&lt;/span&gt;&lt;/font&gt;&lt;/span&gt;" style="rounded=1;whiteSpace=wrap;html=1;fontSize=12;glass=0;strokeWidth=1;shadow=0;" parent="h-V_TkAxEfI6E8n3z3sO-1" vertex="1">
          <mxGeometry x="650" y="350" width="120" height="140" as="geometry" />
        </mxCell>
        <mxCell id="h-V_TkAxEfI6E8n3z3sO-10" value="&lt;span style=&quot;color: rgb(68 , 68 , 68) ; font-family: &amp;#34;calibri&amp;#34; , sans-serif , &amp;#34;mongolian baiti&amp;#34; , &amp;#34;microsoft yi baiti&amp;#34; , &amp;#34;javanese text&amp;#34; , &amp;#34;yu gothic&amp;#34; ; font-size: 14.6667px ; text-align: left ; background-color: rgb(255 , 255 , 255)&quot;&gt;Cuando el sistema de refrigeración y datos técnicos coincida con el GAE y descripción del equipo.&lt;/span&gt;" style="rounded=1;whiteSpace=wrap;html=1;fontSize=12;glass=0;strokeWidth=1;shadow=0;" parent="h-V_TkAxEfI6E8n3z3sO-1" vertex="1">
          <mxGeometry x="340" y="350" width="120" height="110" as="geometry" />
        </mxCell>
        <mxCell id="h-V_TkAxEfI6E8n3z3sO-11" value="&lt;span style=&quot;color: rgb(68 , 68 , 68) ; font-family: &amp;#34;calibri&amp;#34; , sans-serif , &amp;#34;mongolian baiti&amp;#34; , &amp;#34;microsoft yi baiti&amp;#34; , &amp;#34;javanese text&amp;#34; , &amp;#34;yu gothic&amp;#34; ; font-size: 14.6667px ; text-align: left ; background-color: rgb(255 , 255 , 255)&quot;&gt;Cuando el sistema de refrigeración y datos tecnicos sean diferentes a los existentes (modelo, refrigerante, consumo, voltaje, frecuencia, etc).&lt;/span&gt;" style="rounded=1;whiteSpace=wrap;html=1;fontSize=12;glass=0;strokeWidth=1;shadow=0;" parent="h-V_TkAxEfI6E8n3z3sO-1" vertex="1">
          <mxGeometry x="500" y="350" width="120" height="150" as="geometry" />
        </mxCell>
        <mxCell id="h-V_TkAxEfI6E8n3z3sO-12" value="&lt;span style=&quot;color: rgb(68 , 68 , 68) ; font-family: &amp;#34;calibri&amp;#34; , sans-serif , &amp;#34;mongolian baiti&amp;#34; , &amp;#34;microsoft yi baiti&amp;#34; , &amp;#34;javanese text&amp;#34; , &amp;#34;yu gothic&amp;#34; ; font-size: 14.6667px ; text-align: left ; background-color: rgb(255 , 255 , 255)&quot;&gt;Cuando se requiere la impresión de la etiqueta con el nombre de la imagen que va en el equipo. &lt;/span&gt;" style="rounded=1;whiteSpace=wrap;html=1;fontSize=12;glass=0;strokeWidth=1;shadow=0;" parent="h-V_TkAxEfI6E8n3z3sO-1" vertex="1">
          <mxGeometry x="800" y="350" width="120" height="130" as="geometry" />
        </mxCell>
        <mxCell id="h-V_TkAxEfI6E8n3z3sO-13" value="&lt;span style=&quot;font-family: &amp;#34;calibri&amp;#34; , &amp;#34;segoe ui&amp;#34; , &amp;#34;calibri&amp;#34; , &amp;#34;thonburi&amp;#34; , &amp;#34;arial&amp;#34; , &amp;#34;verdana&amp;#34; , sans-serif , &amp;#34;mongolian baiti&amp;#34; , &amp;#34;microsoft yi baiti&amp;#34; , &amp;#34;javanese text&amp;#34; ; font-size: 14.6667px ; background-color: rgb(255 , 255 , 255)&quot;&gt;Cuando el equipo solo cambia por imagen, etiquetas, color de gabinete, tipo de iluminación (cantidad de leds), accesorios (como separador de pared, con o sin protección electrica, etc.).&lt;br/&gt;Nota: para que sea un variante no deben cambiar barrenos en el gabinete.&lt;/span&gt;" style="rounded=1;whiteSpace=wrap;html=1;fontSize=12;glass=0;strokeWidth=1;shadow=0;" parent="h-V_TkAxEfI6E8n3z3sO-1" vertex="1">
          <mxGeometry x="960" y="350" width="120" height="280" as="geometry" />
        </mxCell>
        <mxCell id="h-V_TkAxEfI6E8n3z3sO-14" value="" style="endArrow=classic;html=1;exitX=0.5;exitY=1;exitDx=0;exitDy=0;" parent="h-V_TkAxEfI6E8n3z3sO-1" edge="1">
          <mxGeometry width="50" height="50" relative="1" as="geometry">
            <mxPoint x="79.5" y="320" as="sourcePoint" />
            <mxPoint x="80" y="350" as="targetPoint" />
          </mxGeometry>
        </mxCell>
        <mxCell id="h-V_TkAxEfI6E8n3z3sO-15" value="" style="endArrow=classic;html=1;exitX=0.5;exitY=1;exitDx=0;exitDy=0;" parent="h-V_TkAxEfI6E8n3z3sO-1" edge="1">
          <mxGeometry width="50" height="50" relative="1" as="geometry">
            <mxPoint x="709.5" y="320" as="sourcePoint" />
            <mxPoint x="710" y="350" as="targetPoint" />
          </mxGeometry>
        </mxCell>
        <mxCell id="h-V_TkAxEfI6E8n3z3sO-16" value="" style="endArrow=classic;html=1;exitX=0.5;exitY=1;exitDx=0;exitDy=0;" parent="h-V_TkAxEfI6E8n3z3sO-1" edge="1">
          <mxGeometry width="50" height="50" relative="1" as="geometry">
            <mxPoint x="860" y="320" as="sourcePoint" />
            <mxPoint x="860" y="350" as="targetPoint" />
          </mxGeometry>
        </mxCell>
        <mxCell id="h-V_TkAxEfI6E8n3z3sO-17" value="" style="endArrow=classic;html=1;exitX=0.5;exitY=1;exitDx=0;exitDy=0;" parent="h-V_TkAxEfI6E8n3z3sO-1" edge="1">
          <mxGeometry width="50" height="50" relative="1" as="geometry">
            <mxPoint x="1020" y="320" as="sourcePoint" />
            <mxPoint x="1020" y="350" as="targetPoint" />
          </mxGeometry>
        </mxCell>
        <mxCell id="h-V_TkAxEfI6E8n3z3sO-18" value="" style="endArrow=classic;html=1;exitX=0.5;exitY=1;exitDx=0;exitDy=0;" parent="h-V_TkAxEfI6E8n3z3sO-1" edge="1">
          <mxGeometry width="50" height="50" relative="1" as="geometry">
            <mxPoint x="399.5" y="320" as="sourcePoint" />
            <mxPoint x="400" y="350" as="targetPoint" />
          </mxGeometry>
        </mxCell>
        <mxCell id="h-V_TkAxEfI6E8n3z3sO-19" value="" style="endArrow=classic;html=1;exitX=0.5;exitY=1;exitDx=0;exitDy=0;entryX=0.389;entryY=0.01;entryDx=0;entryDy=0;entryPerimeter=0;" parent="h-V_TkAxEfI6E8n3z3sO-1" target="h-V_TkAxEfI6E8n3z3sO-3" edge="1">
          <mxGeometry width="50" height="50" relative="1" as="geometry">
            <mxPoint x="320" y="320" as="sourcePoint" />
            <mxPoint x="320" y="390" as="targetPoint" />
          </mxGeometry>
        </mxCell>
        <mxCell id="h-V_TkAxEfI6E8n3z3sO-20" value="" style="endArrow=classic;html=1;exitX=0.5;exitY=1;exitDx=0;exitDy=0;" parent="h-V_TkAxEfI6E8n3z3sO-1" edge="1">
          <mxGeometry width="50" height="50" relative="1" as="geometry">
            <mxPoint x="229.5" y="320" as="sourcePoint" />
            <mxPoint x="230" y="350" as="targetPoint" />
          </mxGeometry>
        </mxCell>
        <mxCell id="h-V_TkAxEfI6E8n3z3sO-21" value="" style="endArrow=classic;html=1;exitX=0.5;exitY=1;exitDx=0;exitDy=0;" parent="h-V_TkAxEfI6E8n3z3sO-1" edge="1">
          <mxGeometry width="50" height="50" relative="1" as="geometry">
            <mxPoint x="559.5" y="320" as="sourcePoint" />
            <mxPoint x="560" y="350" as="targetPoint" />
          </mxGeometry>
        </mxCell>
        <mxCell id="h-V_TkAxEfI6E8n3z3sO-22" value="1" style="ellipse;whiteSpace=wrap;html=1;" parent="h-V_TkAxEfI6E8n3z3sO-1" vertex="1">
          <mxGeometry x="70" y="300" width="20" height="20" as="geometry" />
        </mxCell>
        <mxCell id="h-V_TkAxEfI6E8n3z3sO-23" value="2" style="ellipse;whiteSpace=wrap;html=1;" parent="h-V_TkAxEfI6E8n3z3sO-1" vertex="1">
          <mxGeometry x="220" y="300" width="20" height="20" as="geometry" />
        </mxCell>
        <mxCell id="h-V_TkAxEfI6E8n3z3sO-24" value="5" style="ellipse;whiteSpace=wrap;html=1;" parent="h-V_TkAxEfI6E8n3z3sO-1" vertex="1">
          <mxGeometry x="390" y="300" width="20" height="20" as="geometry" />
        </mxCell>
        <mxCell id="h-V_TkAxEfI6E8n3z3sO-25" value="3" style="ellipse;whiteSpace=wrap;html=1;" parent="h-V_TkAxEfI6E8n3z3sO-1" vertex="1">
          <mxGeometry x="310" y="300" width="20" height="20" as="geometry" />
        </mxCell>
        <mxCell id="h-V_TkAxEfI6E8n3z3sO-26" value="6" style="ellipse;whiteSpace=wrap;html=1;" parent="h-V_TkAxEfI6E8n3z3sO-1" vertex="1">
          <mxGeometry x="550" y="300" width="20" height="20" as="geometry" />
        </mxCell>
        <mxCell id="h-V_TkAxEfI6E8n3z3sO-27" value="7" style="ellipse;whiteSpace=wrap;html=1;" parent="h-V_TkAxEfI6E8n3z3sO-1" vertex="1">
          <mxGeometry x="700" y="300" width="20" height="20" as="geometry" />
        </mxCell>
        <mxCell id="h-V_TkAxEfI6E8n3z3sO-28" value="8" style="ellipse;whiteSpace=wrap;html=1;" parent="h-V_TkAxEfI6E8n3z3sO-1" vertex="1">
          <mxGeometry x="850" y="300" width="20" height="20" as="geometry" />
        </mxCell>
        <mxCell id="h-V_TkAxEfI6E8n3z3sO-29" value="9" style="ellipse;whiteSpace=wrap;html=1;" parent="h-V_TkAxEfI6E8n3z3sO-1" vertex="1">
          <mxGeometry x="1010" y="300" width="20" height="20" as="geometry" />
        </mxCell>
        <mxCell id="h-V_TkAxEfI6E8n3z3sO-30" value="BOMS" style="rounded=1;whiteSpace=wrap;html=1;" parent="h-V_TkAxEfI6E8n3z3sO-1" vertex="1">
          <mxGeometry x="435" width="120" height="60" as="geometry" />
        </mxCell>
      </root>
    </mxGraphModel>
  </diagram>
</mxfile>
